<svg width="107" height="88" viewBox="0 0 107 88" fill="none" xmlns="http://www.w3.org/2000/svg">
<circle cx="54" cy="30" r="29" fill="white" stroke="#3270E3" stroke-width="2"/>
<rect x="65" y="25" width="2" height="10" rx="1" fill="#3270E3"/>
<rect x="53" y="15" width="2" height="30" rx="1" fill="#3270E3"/>
<rect x="49" y="20" width="2" height="20" rx="1" fill="#3270E3"/>
<rect x="57" y="20" width="2" height="20" rx="1" fill="#3270E3"/>
<rect x="61" y="23" width="2" height="15" rx="1" fill="#3270E3"/>
<rect x="45" y="23" width="2" height="15" rx="1" fill="#3270E3"/>
<rect x="42" y="31" width="25" height="2" rx="1" transform="rotate(-180 42 31)" fill="#3270E3"/>
<rect x="91" y="31" width="25" height="2" rx="1" transform="rotate(-180 91 31)" fill="#3270E3"/>
<rect x="41" y="25" width="2" height="10" rx="1" fill="#3270E3"/>
<rect x="69" y="24" width="2" height="12" rx="1" fill="#3270E3"/>
<rect x="73" y="27" width="2" height="6" rx="1" fill="#3270E3"/>
<rect x="33" y="27" width="2" height="6" rx="1" fill="#3270E3"/>
<rect x="37" y="24" width="2" height="12" rx="1" fill="#3270E3"/>
<circle cx="13" cy="30" r="1" fill="#3270E3"/>
<circle cx="95" cy="30" r="1" fill="#3270E3"/>
<circle cx="99" cy="30" r="1" fill="#3270E3"/>
<circle cx="106" cy="30" r="1" fill="#3270E3"/>
<circle cx="1" cy="30" r="1" fill="#3270E3"/>
<circle cx="9" cy="30" r="1" fill="#3270E3"/>
<path d="M63.9716 77H61.8193C61.7698 77 61.7451 76.9691 61.7451 76.9072L61.7636 63.854C61.7636 63.8045 61.7945 63.7798 61.8564 63.7798H63.9716C64.0335 63.7798 64.0644 63.8045 64.0644 63.854L64.0458 69.0215H66.894V63.854C66.894 63.8045 66.9187 63.7798 66.9682 63.7798H69.0834C69.1453 63.7798 69.1762 63.8045 69.1762 63.854L69.2133 76.9072C69.2133 76.9691 69.1824 77 69.1205 77H66.9868C66.9249 77 66.894 76.9691 66.894 76.9072V71.3223H64.0458V76.9072C64.0458 76.9691 64.0211 77 63.9716 77ZM73.3878 77H71.2354C71.1736 77 71.1426 76.9691 71.1426 76.9072L71.1612 63.854C71.1612 63.8045 71.1859 63.7798 71.2354 63.7798H73.3692C73.4187 63.7798 73.4434 63.8045 73.4434 63.854L73.462 76.9072C73.462 76.9691 73.4372 77 73.3878 77ZM77.7385 77H75.6047C75.5428 77 75.5119 76.9691 75.5119 76.9072L75.549 63.854C75.549 63.8045 75.5737 63.7798 75.6232 63.7798H79.2785C80.4413 63.7798 81.3597 64.1354 82.0339 64.8467C82.7142 65.5518 83.0544 66.5135 83.0544 67.7319C83.0544 68.6226 82.8781 69.3988 82.5256 70.0605C82.1668 70.7161 81.703 71.2233 81.134 71.582C80.565 71.9408 79.9465 72.1201 79.2785 72.1201H77.8312V76.9072C77.8312 76.9691 77.8003 77 77.7385 77ZM79.2785 66.0342L77.8312 66.0527V69.8193H79.2785C79.6805 69.8193 80.03 69.6276 80.3268 69.2441C80.6237 68.8545 80.7721 68.3504 80.7721 67.7319C80.7721 67.2371 80.6392 66.832 80.3732 66.5166C80.1073 66.195 79.7424 66.0342 79.2785 66.0342Z" fill="#3270E3"/>
<path d="M25.1113 76.9072L27.4678 63.854C27.4801 63.8045 27.5111 63.7798 27.5605 63.7798H30.3159C30.3654 63.7798 30.3963 63.8045 30.4087 63.854L32.6724 76.9072C32.6785 76.9691 32.6538 77 32.5981 77H30.4922C30.4303 77 30.3963 76.9691 30.3901 76.9072L30.186 75.5156H27.5977L27.3936 76.9072C27.3874 76.9691 27.3564 77 27.3008 77H25.1855C25.1361 77 25.1113 76.9691 25.1113 76.9072ZM29.0264 68.1494L28.915 67.4443L28.8315 68.1494L27.978 73.4839H29.8057L29.0264 68.1494ZM36.485 77H34.3326C34.2708 77 34.2399 76.9691 34.2399 76.9072L34.2584 63.854C34.2584 63.8045 34.2832 63.7798 34.3326 63.7798H36.4664C36.5159 63.7798 36.5406 63.8045 36.5406 63.854L36.5592 76.9072C36.5592 76.9691 36.5345 77 36.485 77ZM40.8357 77H38.6833C38.6339 77 38.6091 76.9691 38.6091 76.9072L38.6462 63.854C38.6462 63.8045 38.671 63.7798 38.7204 63.7798H42.5613C43.2478 63.7798 43.8787 63.9468 44.4538 64.2808C45.029 64.6147 45.4867 65.0632 45.8269 65.626C46.1732 66.1888 46.3464 66.8258 46.3464 67.5371C46.3464 68.001 46.2753 68.4215 46.133 68.7988C45.9908 69.1761 45.8238 69.4946 45.6321 69.7544C45.4465 70.0142 45.2764 70.2059 45.1218 70.3296C45.8083 71.0903 46.1516 71.984 46.1516 73.0107L46.1702 76.9072C46.1702 76.9691 46.1392 77 46.0774 77H43.925C43.8756 77 43.8508 76.9814 43.8508 76.9443V73.0107C43.8508 72.5531 43.69 72.1572 43.3684 71.8232C43.0468 71.4893 42.651 71.3223 42.1809 71.3223H40.9285L40.9099 76.9072C40.9099 76.9691 40.8852 77 40.8357 77ZM42.5613 66.0527H40.9285V69.04H42.5613C42.9509 69.04 43.2973 68.8947 43.6003 68.604C43.9096 68.3133 44.0642 67.9577 44.0642 67.5371C44.0642 67.1351 43.9158 66.7887 43.6189 66.498C43.322 66.2012 42.9695 66.0527 42.5613 66.0527Z" fill="#3270E3"/>
<path d="M53.4545 64H58.3636C59.2674 64 60 64.6716 60 65.5C60 66.3284 59.2674 67 58.3636 67H53.4545V64Z" fill="#ED7C42"/>
<path d="M48 75.5C48 74.6716 48.7326 74 49.6364 74H54.5455V77H49.6364C48.7326 77 48 76.3284 48 75.5Z" fill="#ED7C42"/>
<path d="M48 66C48 64.8954 48.9768 64 50.1818 64H53.4545V71C53.4545 72.1046 52.4777 73 51.2727 73H50.1818C48.9768 73 48 72.1046 48 71V66Z" fill="#ED7C42"/>
<path d="M54.5455 70C54.5455 68.8954 55.5223 68 56.7273 68H57.8182C59.0232 68 60 68.8954 60 70V75C60 76.1046 59.0232 77 57.8182 77H54.5455V70Z" fill="#ED7C42"/>
</svg>
