<svg width="293" height="90" viewBox="0 0 293 90" fill="none" xmlns="http://www.w3.org/2000/svg">
<circle cx="54" cy="42" r="29" fill="white" stroke="#3270E3" stroke-width="2"/>
<rect x="65" y="37" width="2" height="10" rx="1" fill="#3270E3"/>
<rect x="53" y="27" width="2" height="30" rx="1" fill="#3270E3"/>
<rect x="49" y="32" width="2" height="20" rx="1" fill="#3270E3"/>
<rect x="57" y="32" width="2" height="20" rx="1" fill="#3270E3"/>
<rect x="61" y="35" width="2" height="15" rx="1" fill="#3270E3"/>
<rect x="45" y="35" width="2" height="15" rx="1" fill="#3270E3"/>
<rect x="42" y="43" width="25" height="2" rx="1" transform="rotate(-180 42 43)" fill="#3270E3"/>
<rect x="91" y="43" width="25" height="2" rx="1" transform="rotate(-180 91 43)" fill="#3270E3"/>
<rect x="41" y="37" width="2" height="10" rx="1" fill="#3270E3"/>
<rect x="69" y="36" width="2" height="12" rx="1" fill="#3270E3"/>
<rect x="73" y="39" width="2" height="6" rx="1" fill="#3270E3"/>
<rect x="33" y="39" width="2" height="6" rx="1" fill="#3270E3"/>
<rect x="37" y="36" width="2" height="12" rx="1" fill="#3270E3"/>
<circle cx="13" cy="42" r="1" fill="#3270E3"/>
<circle cx="95" cy="42" r="1" fill="#3270E3"/>
<circle cx="99" cy="42" r="1" fill="#3270E3"/>
<circle cx="106" cy="42" r="1" fill="#3270E3"/>
<circle cx="1" cy="42" r="1" fill="#3270E3"/>
<circle cx="9" cy="42" r="1" fill="#3270E3"/>
<path d="M188.545 26H201.636C204.046 26 206 27.8081 206 30.0385C206 32.2688 204.046 34.0769 201.636 34.0769H188.545V26Z" fill="#ED7C42"/>
<path d="M174 56.9615C174 54.7312 175.954 52.9231 178.364 52.9231H191.455V61H178.364C175.954 61 174 59.1919 174 56.9615Z" fill="#ED7C42"/>
<path d="M174 31.3846C174 28.4108 176.605 26 179.818 26H188.545V44.8462C188.545 47.82 185.941 50.2308 182.727 50.2308H179.818C176.605 50.2308 174 47.82 174 44.8462V31.3846Z" fill="#ED7C42"/>
<path d="M191.455 42.1538C191.455 39.18 194.059 36.7692 197.273 36.7692H200.182C203.395 36.7692 206 39.18 206 42.1538V55.6154C206 58.5892 203.395 61 200.182 61H191.455V42.1538Z" fill="#ED7C42"/>
<path d="M112.293 60.7559L118.494 26.4053C118.527 26.2751 118.608 26.21 118.738 26.21H125.989C126.119 26.21 126.201 26.2751 126.233 26.4053L132.19 60.7559C132.207 60.9186 132.142 61 131.995 61H126.453C126.29 61 126.201 60.9186 126.185 60.7559L125.647 57.0938H118.836L118.299 60.7559C118.283 60.9186 118.201 61 118.055 61H112.488C112.358 61 112.293 60.9186 112.293 60.7559ZM122.596 37.709L122.303 35.8535L122.083 37.709L119.837 51.7471H124.646L122.596 37.709ZM142.224 61H136.56C136.397 61 136.315 60.9186 136.315 60.7559L136.364 26.4053C136.364 26.2751 136.429 26.21 136.56 26.21H142.175C142.305 26.21 142.37 26.2751 142.37 26.4053L142.419 60.7559C142.419 60.9186 142.354 61 142.224 61ZM153.673 61H148.009C147.879 61 147.813 60.9186 147.813 60.7559L147.911 26.4053C147.911 26.2751 147.976 26.21 148.106 26.21H158.214C160.021 26.21 161.681 26.6494 163.194 27.5283C164.708 28.4072 165.912 29.5872 166.808 31.0684C167.719 32.5495 168.175 34.2259 168.175 36.0977C168.175 37.3184 167.988 38.4251 167.613 39.418C167.239 40.4108 166.799 41.249 166.295 41.9326C165.807 42.6162 165.359 43.1208 164.952 43.4463C166.759 45.4482 167.662 47.8001 167.662 50.502L167.711 60.7559C167.711 60.9186 167.63 61 167.467 61H161.803C161.673 61 161.607 60.9512 161.607 60.8535V50.502C161.607 49.2975 161.184 48.2559 160.338 47.377C159.492 46.498 158.45 46.0586 157.213 46.0586H153.917L153.868 60.7559C153.868 60.9186 153.803 61 153.673 61ZM158.214 32.1914H153.917V40.0527H158.214C159.239 40.0527 160.151 39.6702 160.948 38.9053C161.762 38.1403 162.169 37.2044 162.169 36.0977C162.169 35.0397 161.778 34.1283 160.997 33.3633C160.216 32.582 159.288 32.1914 158.214 32.1914Z" fill="#3270E3"/>
<path d="M221.474 61.4883C219.7 61.4883 218.064 61.0326 216.566 60.1211C215.085 59.2096 213.897 57.9971 213.002 56.4834C212.123 54.9535 211.684 53.277 211.684 51.4541V49.1592C211.684 48.9801 211.765 48.8906 211.928 48.8906H217.543C217.673 48.8906 217.738 48.9801 217.738 49.1592V51.4541C217.738 52.5446 218.104 53.4886 218.837 54.2861C219.569 55.0674 220.448 55.458 221.474 55.458C222.515 55.458 223.402 55.0592 224.135 54.2617C224.867 53.4479 225.233 52.512 225.233 51.4541C225.233 50.2334 224.436 49.1673 222.841 48.2559C222.58 48.0931 222.239 47.8978 221.815 47.6699C221.409 47.4258 220.92 47.1491 220.351 46.8398C219.781 46.5306 219.228 46.2295 218.69 45.9365C218.153 45.6273 217.632 45.3343 217.128 45.0576C215.305 43.9834 213.946 42.6406 213.051 41.0293C212.172 39.4017 211.732 37.5788 211.732 35.5605C211.732 33.7051 212.188 32.0286 213.1 30.5312C214.011 29.0501 215.199 27.8783 216.664 27.0156C218.145 26.1367 219.748 25.6973 221.474 25.6973C223.248 25.6973 224.875 26.1367 226.356 27.0156C227.838 27.9108 229.018 29.099 229.896 30.5801C230.792 32.0612 231.239 33.7214 231.239 35.5605V39.6621C231.239 39.7923 231.174 39.8574 231.044 39.8574H225.429C225.299 39.8574 225.233 39.7923 225.233 39.6621L225.185 35.5605C225.185 34.3887 224.818 33.4365 224.086 32.7041C223.354 31.9717 222.483 31.6055 221.474 31.6055C220.448 31.6055 219.569 31.9961 218.837 32.7773C218.104 33.5586 217.738 34.4863 217.738 35.5605C217.738 36.651 217.966 37.5625 218.422 38.2949C218.894 39.0273 219.748 39.7272 220.985 40.3945C221.116 40.4596 221.417 40.6224 221.889 40.8828C222.361 41.1432 222.882 41.4362 223.451 41.7617C224.037 42.071 224.566 42.3558 225.038 42.6162C225.51 42.8604 225.795 43.0068 225.893 43.0557C227.553 43.9834 228.863 45.1227 229.823 46.4736C230.8 47.8245 231.288 49.4847 231.288 51.4541C231.288 53.3584 230.849 55.0674 229.97 56.5811C229.075 58.0947 227.886 59.291 226.405 60.1699C224.924 61.0488 223.28 61.4883 221.474 61.4883ZM241.614 61H235.95C235.82 61 235.755 60.9186 235.755 60.7559L235.804 26.4053C235.804 26.2751 235.885 26.21 236.048 26.21H241.614C241.777 26.21 241.858 26.2751 241.858 26.4053L241.81 40.0039H249.305V26.4053C249.305 26.2751 249.37 26.21 249.5 26.21H255.066C255.229 26.21 255.311 26.2751 255.311 26.4053L255.408 60.7559C255.408 60.9186 255.327 61 255.164 61H249.549C249.386 61 249.305 60.9186 249.305 60.7559V46.0586H241.81V60.7559C241.81 60.9186 241.744 61 241.614 61ZM266.394 61H260.729C260.567 61 260.485 60.9186 260.485 60.7559L260.534 26.4053C260.534 26.2751 260.599 26.21 260.729 26.21H266.345C266.475 26.21 266.54 26.2751 266.54 26.4053L266.589 60.7559C266.589 60.9186 266.524 61 266.394 61ZM277.843 61H272.228C272.065 61 271.983 60.9186 271.983 60.7559L272.081 26.4053C272.081 26.2751 272.146 26.21 272.276 26.21H281.896C284.955 26.21 287.372 27.1458 289.146 29.0176C290.937 30.873 291.832 33.404 291.832 36.6104C291.832 38.9541 291.368 40.9967 290.44 42.7383C289.496 44.4635 288.276 45.7982 286.778 46.7422C285.281 47.6862 283.653 48.1582 281.896 48.1582H278.087V60.7559C278.087 60.9186 278.006 61 277.843 61ZM281.896 32.1426L278.087 32.1914V42.1035H281.896C282.953 42.1035 283.873 41.599 284.654 40.5898C285.436 39.5645 285.826 38.238 285.826 36.6104C285.826 35.3083 285.476 34.2422 284.776 33.4121C284.076 32.5658 283.116 32.1426 281.896 32.1426Z" fill="#3270E3"/>
</svg>
