<svg width="350" height="210" viewBox="0 0 35 21" fill="none" xmlns="http://www.w3.org/2000/svg">
<path d="M17.2696 20C22.3918 20 26.5442 15.7467 26.5442 10.5C26.5442 5.25329 22.3918 1 17.2696 1C12.1475 1 7.99512 5.25329 7.99512 10.5C7.99512 15.7467 12.1475 20 17.2696 20Z" fill="white" stroke="#3270E3" stroke-width="2"/>
<path d="M21.4277 9.18989C21.4277 9.00897 21.2845 8.8623 21.1079 8.8623C20.9313 8.8623 20.7881 9.00897 20.7881 9.18989V11.8106C20.7881 11.9915 20.9313 12.1382 21.1079 12.1382C21.2845 12.1382 21.4277 11.9915 21.4277 11.8106V9.18989Z" fill="#3270E3"/>
<path d="M17.5898 5.91377C17.5898 5.73285 17.4466 5.58618 17.27 5.58618C17.0934 5.58618 16.9502 5.73285 16.9502 5.91377V15.0862C16.9502 15.2671 17.0934 15.4138 17.27 15.4138C17.4466 15.4138 17.5898 15.2671 17.5898 15.0862V5.91377Z" fill="#3270E3"/>
<path d="M16.3105 7.55171C16.3105 7.37079 16.1673 7.22412 15.9907 7.22412C15.8141 7.22412 15.6709 7.37079 15.6709 7.55171V13.4483C15.6709 13.6292 15.8141 13.7758 15.9907 13.7758C16.1673 13.7758 16.3105 13.6292 16.3105 13.4483V7.55171Z" fill="#3270E3"/>
<path d="M18.8691 7.55171C18.8691 7.37079 18.7259 7.22412 18.5493 7.22412C18.3727 7.22412 18.2295 7.37079 18.2295 7.55171V13.4483C18.2295 13.6292 18.3727 13.7758 18.5493 13.7758C18.7259 13.7758 18.8691 13.6292 18.8691 13.4483V7.55171Z" fill="#3270E3"/>
<path d="M20.1479 8.53462C20.1479 8.3537 20.0047 8.20703 19.8281 8.20703C19.6515 8.20703 19.5083 8.3537 19.5083 8.53462V12.7932C19.5083 12.9742 19.6515 13.1208 19.8281 13.1208C20.0047 13.1208 20.1479 12.9742 20.1479 12.7932V8.53462Z" fill="#3270E3"/>
<path d="M15.0312 8.53462C15.0312 8.3537 14.888 8.20703 14.7114 8.20703C14.5348 8.20703 14.3916 8.3537 14.3916 8.53462V12.7932C14.3916 12.9742 14.5348 13.1208 14.7114 13.1208C14.888 13.1208 15.0312 12.9742 15.0312 12.7932V8.53462Z" fill="#3270E3"/>
<path d="M5.75666 10.8274L13.1123 10.8274C13.2889 10.8274 13.4321 10.6807 13.4321 10.4998C13.4321 10.3189 13.2889 10.1722 13.1123 10.1722L5.75666 10.1722C5.58003 10.1722 5.43685 10.3189 5.43685 10.4998C5.43685 10.6807 5.58003 10.8274 5.75666 10.8274Z" fill="#3270E3"/>
<path d="M21.4276 10.8274L28.7832 10.8274C28.9598 10.8274 29.103 10.6807 29.103 10.4998C29.103 10.3189 28.9598 10.1722 28.7832 10.1722L21.4276 10.1722C21.2509 10.1722 21.1077 10.3189 21.1077 10.4998C21.1077 10.6807 21.2509 10.8274 21.4276 10.8274Z" fill="#3270E3"/>
<path d="M13.7524 9.18989C13.7524 9.00897 13.6092 8.8623 13.4326 8.8623C13.256 8.8623 13.1128 9.00897 13.1128 9.18989V11.8106C13.1128 11.9915 13.256 12.1382 13.4326 12.1382C13.6092 12.1382 13.7524 11.9915 13.7524 11.8106V9.18989Z" fill="#3270E3"/>
<path d="M22.7065 8.86201C22.7065 8.68109 22.5633 8.53442 22.3867 8.53442C22.2101 8.53442 22.0669 8.68109 22.0669 8.86201V12.1379C22.0669 12.3188 22.2101 12.4655 22.3867 12.4655C22.5633 12.4655 22.7065 12.3188 22.7065 12.1379V8.86201Z" fill="#3270E3"/>
<path d="M23.9858 9.84492C23.9858 9.664 23.8426 9.51733 23.666 9.51733C23.4894 9.51733 23.3462 9.664 23.3462 9.84492V11.1553C23.3462 11.3362 23.4894 11.4829 23.666 11.4829C23.8426 11.4829 23.9858 11.3362 23.9858 11.1553V9.84492Z" fill="#3270E3"/>
<path d="M11.1928 9.84492C11.1928 9.664 11.0497 9.51733 10.873 9.51733C10.6964 9.51733 10.5532 9.664 10.5532 9.84492V11.1553C10.5532 11.3362 10.6964 11.4829 10.873 11.4829C11.0497 11.4829 11.1928 11.3362 11.1928 11.1553V9.84492Z" fill="#3270E3"/>
<path d="M12.4726 8.86201C12.4726 8.68109 12.3294 8.53442 12.1528 8.53442C11.9762 8.53442 11.833 8.68109 11.833 8.86201V12.1379C11.833 12.3188 11.9762 12.4655 12.1528 12.4655C12.3294 12.4655 12.4726 12.3188 12.4726 12.1379V8.86201Z" fill="#3270E3"/>
<path d="M4.1577 10.8278C4.33433 10.8278 4.47751 10.6811 4.47751 10.5002C4.47751 10.3193 4.33433 10.1726 4.1577 10.1726C3.98107 10.1726 3.83789 10.3193 3.83789 10.5002C3.83789 10.6811 3.98107 10.8278 4.1577 10.8278Z" fill="#3270E3"/>
<path d="M30.3823 10.8278C30.5589 10.8278 30.7021 10.6811 30.7021 10.5002C30.7021 10.3193 30.5589 10.1726 30.3823 10.1726C30.2057 10.1726 30.0625 10.3193 30.0625 10.5002C30.0625 10.6811 30.2057 10.8278 30.3823 10.8278Z" fill="#3270E3"/>
<path d="M31.6611 10.8278C31.8377 10.8278 31.9809 10.6811 31.9809 10.5002C31.9809 10.3193 31.8377 10.1726 31.6611 10.1726C31.4845 10.1726 31.3413 10.3193 31.3413 10.5002C31.3413 10.6811 31.4845 10.8278 31.6611 10.8278Z" fill="#3270E3"/>
<path d="M33.8999 10.8278C34.0765 10.8278 34.2197 10.6811 34.2197 10.5002C34.2197 10.3193 34.0765 10.1726 33.8999 10.1726C33.7233 10.1726 33.5801 10.3193 33.5801 10.5002C33.5801 10.6811 33.7233 10.8278 33.8999 10.8278Z" fill="#3270E3"/>
<path d="M0.319811 10.8278C0.496438 10.8278 0.639623 10.6811 0.639623 10.5002C0.639623 10.3193 0.496438 10.1726 0.319811 10.1726C0.143184 10.1726 0 10.3193 0 10.5002C0 10.6811 0.143184 10.8278 0.319811 10.8278Z" fill="#3270E3"/>
<path d="M2.87792 10.8278C3.05454 10.8278 3.19773 10.6811 3.19773 10.5002C3.19773 10.3193 3.05454 10.1726 2.87792 10.1726C2.70129 10.1726 2.55811 10.3193 2.55811 10.5002C2.55811 10.6811 2.70129 10.8278 2.87792 10.8278Z" fill="#3270E3"/>
</svg>
