<svg width="510" height="120" viewBox="0 0 51 12" fill="none" xmlns="http://www.w3.org/2000/svg">
<path d="M34.2039 11.919H32.3095C32.2659 11.919 32.2441 11.8911 32.2441 11.8353L32.2604 0.0668965C32.2604 0.0222686 32.2876 0 32.3421 0H34.2039C34.2583 0 34.2855 0.0222686 34.2855 0.0668965L34.2692 4.72578H36.7761V0.0668965C36.7761 0.0222686 36.7978 0 36.8414 0H38.7031C38.7576 0 38.7848 0.0222686 38.7848 0.0668965L38.8175 11.8353C38.8175 11.8911 38.7903 11.919 38.7358 11.919H36.8578C36.8033 11.919 36.7761 11.8911 36.7761 11.8353V6.80012H34.2692V11.8353C34.2692 11.8911 34.2474 11.919 34.2039 11.919ZM42.4918 11.919H40.5973C40.5429 11.919 40.5156 11.8911 40.5156 11.8353L40.532 0.0668965C40.532 0.0222686 40.5537 0 40.5973 0H42.4754C42.519 0 42.5407 0.0222686 42.5407 0.0668965L42.5571 11.8353C42.5571 11.8911 42.5352 11.919 42.4918 11.919ZM46.3211 11.919H44.443C44.3885 11.919 44.3613 11.8911 44.3613 11.8353L44.394 0.0668965C44.394 0.0222686 44.4157 0 44.4593 0H47.6766C48.7001 0 49.5084 0.320601 50.1018 0.961891C50.7006 1.59759 51.0001 2.46463 51.0001 3.56311C51.0001 4.36614 50.8449 5.06594 50.5346 5.66251C50.2188 6.25359 49.8106 6.71086 49.3098 7.03426C48.809 7.35774 48.2646 7.5194 47.6766 7.5194H46.4027V11.8353C46.4027 11.8911 46.3755 11.919 46.3211 11.919ZM47.6766 2.03251L46.4027 2.04918V5.44505H47.6766C48.0304 5.44505 48.3381 5.27222 48.5993 4.92647C48.8606 4.57522 48.9912 4.12074 48.9912 3.56311C48.9912 3.11701 48.8743 2.75178 48.6401 2.46743C48.4061 2.17748 48.0849 2.03251 47.6766 2.03251Z" fill="#3270E3"/>
<path d="M0 11.8353L2.07413 0.0668965C2.08496 0.0222686 2.11224 0 2.15573 0H4.58096C4.62453 0 4.65173 0.0222686 4.66264 0.0668965L6.6551 11.8353C6.66047 11.8911 6.63872 11.919 6.5897 11.919H4.73614C4.68165 11.919 4.65173 11.8911 4.64627 11.8353L4.46663 10.5807H2.18847L2.00883 11.8353C2.00337 11.8911 1.97608 11.919 1.92715 11.919H0.0653087C0.0218281 11.919 0 11.8911 0 11.8353ZM3.44598 3.93952L3.34792 3.30381L3.27443 3.93952L2.5232 8.74896H4.1319L3.44598 3.93952ZM10.0109 11.919H8.11636C8.06197 11.919 8.03477 11.8911 8.03477 11.8353L8.05105 0.0668965C8.05105 0.0222686 8.07288 0 8.11636 0H9.99448C10.0381 0 10.0598 0.0222686 10.0598 0.0668965L10.0762 11.8353C10.0762 11.8911 10.0544 11.919 10.0109 11.919ZM13.8402 11.919H11.9457C11.9023 11.919 11.8804 11.8911 11.8804 11.8353L11.9131 0.0668965C11.9131 0.0222686 11.9349 0 11.9784 0H15.3591C15.9633 0 16.5186 0.150562 17.0248 0.451688C17.5311 0.752723 17.9339 1.15708 18.2334 1.66448C18.5382 2.17189 18.6906 2.74619 18.6906 3.38748C18.6906 3.80572 18.628 4.18483 18.5028 4.525C18.3776 4.86516 18.2306 5.15232 18.0619 5.38654C17.8985 5.62077 17.7488 5.7936 17.6128 5.90512C18.217 6.59095 18.5192 7.39669 18.5192 8.32233L18.5355 11.8353C18.5355 11.8911 18.5082 11.919 18.4538 11.919H16.5594C16.5159 11.919 16.494 11.9022 16.494 11.8688V8.32233C16.494 7.90977 16.3525 7.55284 16.0695 7.25171C15.7864 6.95068 15.438 6.80012 15.0242 6.80012H13.9219L13.9055 11.8353C13.9055 11.8911 13.8838 11.919 13.8402 11.919ZM15.3591 2.04918H13.9219V4.74246H15.3591C15.702 4.74246 16.0069 4.61146 16.2736 4.34937C16.5458 4.08728 16.6819 3.76669 16.6819 3.38748C16.6819 3.02505 16.5513 2.71275 16.2899 2.45066C16.0286 2.18307 15.7183 2.04918 15.3591 2.04918Z" fill="#3270E3"/>
<path d="M24.9473 0.198486H29.2681C30.0636 0.198486 30.7085 0.803983 30.7085 1.55085C30.7085 2.29771 30.0636 2.90321 29.2681 2.90321H24.9473V0.198486Z" fill="#ED7C42" fill-opacity="0.95"/>
<path d="M20.146 10.5665C20.146 9.81961 20.7908 9.21411 21.5863 9.21411H25.9072V11.9188H21.5863C20.7908 11.9188 20.146 11.3133 20.146 10.5665Z" fill="#ED7C42" fill-opacity="0.95"/>
<path d="M20.146 2.00163C20.146 1.00576 21.0058 0.198486 22.0664 0.198486H24.9469V6.5095C24.9469 7.50538 24.0872 8.31265 23.0265 8.31265H22.0664C21.0058 8.31265 20.146 7.50538 20.146 6.5095V2.00163Z" fill="#ED7C42" fill-opacity="0.95"/>
<path d="M25.9072 5.60808C25.9072 4.6122 26.767 3.80493 27.8276 3.80493H28.7878C29.8484 3.80493 30.7081 4.6122 30.7081 5.60808V10.1159C30.7081 11.1118 29.8484 11.9191 28.7878 11.9191H25.9072V5.60808Z" fill="#ED7C42" fill-opacity="0.95"/>
</svg>
