<svg width="568" height="291" viewBox="0 0 568 291" fill="none" xmlns="http://www.w3.org/2000/svg">
<rect x="0.25" y="0.25" width="567.5" height="290.5" rx="38.75" stroke="black" stroke-width="0.5"/>
<path d="M532.064 99.197H333.046C331.708 99.199 330.426 99.7354 329.48 100.689C328.534 101.642 328.002 102.934 328 104.282V233.11C328.002 234.459 328.534 235.751 329.48 236.704C330.426 237.657 331.708 238.194 333.046 238.196H532.064C533.402 238.194 534.684 237.657 535.63 236.704C536.576 235.751 537.108 234.459 537.11 233.11V104.282C537.108 102.934 536.576 101.642 535.63 100.689C534.684 99.7354 533.402 99.199 532.064 99.197ZM535.989 233.11C535.987 234.159 535.574 235.164 534.838 235.906C534.102 236.647 533.105 237.065 532.064 237.066H333.046C332.005 237.065 331.008 236.647 330.272 235.906C329.536 235.164 329.122 234.159 329.121 233.11V104.282C329.122 103.234 329.536 102.228 330.272 101.487C331.008 100.745 332.005 100.328 333.046 100.327H532.064C533.105 100.328 534.102 100.745 534.838 101.487C535.574 102.228 535.987 103.234 535.989 104.282V233.11Z" fill="#535353"/>
<path d="M378.977 156.423H347.583C346.319 156.422 345.108 155.915 344.215 155.015C343.321 154.115 342.819 152.894 342.817 151.621V119.979C342.819 118.705 343.321 117.484 344.215 116.584C345.108 115.684 346.319 115.177 347.583 115.176H378.977C380.24 115.177 381.452 115.684 382.345 116.584C383.238 117.484 383.741 118.705 383.742 119.979V151.621C383.741 152.894 383.238 154.115 382.345 155.015C381.452 155.915 380.24 156.422 378.977 156.423Z" fill="#4586B2"/>
<path d="M429.201 154.85H402.852C401.886 154.85 400.959 154.463 400.275 153.774C399.592 153.086 399.208 152.151 399.208 151.177C399.208 150.203 399.592 149.269 400.275 148.58C400.959 147.892 401.886 147.505 402.852 147.505H429.201C430.167 147.505 431.094 147.892 431.778 148.58C432.461 149.269 432.845 150.203 432.845 151.177C432.845 152.151 432.461 153.086 431.778 153.774C431.094 154.463 430.167 154.85 429.201 154.85Z" fill="#4586B2"/>
<path d="M517.218 136.775H402.852C401.886 136.775 400.959 136.388 400.275 135.699C399.592 135.01 399.208 134.076 399.208 133.102C399.208 132.128 399.592 131.194 400.275 130.505C400.959 129.816 401.886 129.429 402.852 129.429H517.218C518.184 129.429 519.111 129.816 519.794 130.505C520.478 131.194 520.862 132.128 520.862 133.102C520.862 134.076 520.478 135.01 519.794 135.699C519.111 136.388 518.184 136.775 517.218 136.775Z" fill="#4586B2"/>
<path d="M382.563 218.004L382.383 173.918C382.381 173.545 382.602 173.187 382.998 172.922C383.393 172.657 383.931 172.507 384.492 172.504C385.053 172.502 385.591 172.648 385.989 172.91C386.386 173.172 386.611 173.528 386.612 173.9L386.793 217.987C386.794 218.36 386.573 218.718 386.177 218.983C385.782 219.248 385.245 219.398 384.684 219.4C384.123 219.403 383.584 219.257 383.187 218.995C382.789 218.733 382.565 218.377 382.563 218.004Z" fill="#4586B2"/>
<path d="M375.125 215.574L374.969 177.424C374.967 177.102 375.189 176.792 375.585 176.562C375.98 176.333 376.518 176.202 377.079 176.2C377.639 176.198 378.178 176.324 378.575 176.55C378.973 176.776 379.197 177.085 379.198 177.407L379.355 215.556C379.356 215.879 379.134 216.189 378.739 216.418C378.343 216.648 377.806 216.778 377.245 216.781C376.684 216.783 376.145 216.657 375.748 216.431C375.35 216.204 375.126 215.896 375.125 215.574Z" fill="#4586B2"/>
<path d="M367.692 212.882L367.554 179.138C367.553 178.853 367.775 178.578 368.17 178.375C368.566 178.172 369.104 178.056 369.664 178.054C370.225 178.052 370.764 178.163 371.161 178.363C371.559 178.563 371.783 178.835 371.784 179.121L371.922 212.864C371.923 213.149 371.701 213.424 371.306 213.627C370.91 213.83 370.372 213.946 369.811 213.948C369.251 213.95 368.712 213.839 368.315 213.639C367.917 213.439 367.693 213.167 367.692 212.882Z" fill="#4586B2"/>
<path d="M360.242 207.504L360.14 182.566C360.139 182.355 360.361 182.152 360.757 182.001C361.153 181.851 361.69 181.765 362.251 181.763C362.812 181.76 363.351 181.842 363.748 181.989C364.145 182.137 364.369 182.338 364.369 182.549L364.472 207.487C364.472 207.698 364.25 207.901 363.854 208.051C363.458 208.202 362.921 208.288 362.36 208.29C361.799 208.293 361.261 208.211 360.864 208.064C360.466 207.916 360.243 207.715 360.242 207.504Z" fill="#4586B2"/>
<path d="M352.811 205.766L352.723 184.309C352.723 184.128 352.945 183.953 353.341 183.823C353.737 183.693 354.274 183.619 354.835 183.617C355.396 183.614 355.934 183.684 356.332 183.811C356.729 183.937 356.952 184.11 356.953 184.292L357.041 205.748C357.042 205.93 356.82 206.105 356.423 206.234C356.027 206.364 355.49 206.438 354.929 206.441C354.368 206.443 353.83 206.373 353.433 206.247C353.035 206.12 352.812 205.947 352.811 205.766Z" fill="#4586B2"/>
<path d="M345.439 209.665L345.313 179.039C345.312 178.78 345.534 178.531 345.93 178.346C346.326 178.161 346.863 178.056 347.424 178.054C347.985 178.052 348.523 178.152 348.921 178.334C349.318 178.515 349.542 178.762 349.543 179.021L349.668 209.647C349.67 209.906 349.448 210.155 349.052 210.34C348.656 210.525 348.119 210.63 347.558 210.632C346.997 210.634 346.458 210.534 346.061 210.352C345.664 210.171 345.44 209.924 345.439 209.665Z" fill="#4586B2"/>
<path d="M338.08 217.991L337.899 173.905C337.898 173.532 338.119 173.174 338.514 172.909C338.91 172.644 339.447 172.494 340.008 172.491C340.569 172.489 341.108 172.635 341.505 172.897C341.903 173.159 342.127 173.515 342.129 173.888L342.309 217.974C342.311 218.347 342.09 218.705 341.694 218.97C341.298 219.235 340.761 219.385 340.2 219.387C339.639 219.39 339.101 219.244 338.703 218.982C338.305 218.72 338.081 218.364 338.08 217.991Z" fill="#4586B2"/>
<path d="M330.61 209.665L330.484 179.039C330.483 178.78 330.705 178.531 331.101 178.346C331.497 178.161 332.034 178.056 332.595 178.054C333.156 178.052 333.694 178.152 334.092 178.334C334.489 178.515 334.713 178.762 334.714 179.021L334.839 209.647C334.84 209.906 334.619 210.155 334.223 210.34C333.827 210.525 333.289 210.63 332.729 210.632C332.168 210.634 331.629 210.534 331.232 210.352C330.835 210.171 330.611 209.924 330.61 209.665Z" fill="#4586B2"/>
<path d="M486.358 218.004L486.177 173.918C486.176 173.545 486.397 173.187 486.793 172.922C487.188 172.657 487.726 172.507 488.287 172.504C488.847 172.502 489.386 172.648 489.784 172.91C490.181 173.172 490.406 173.528 490.407 173.9L490.588 217.987C490.589 218.36 490.368 218.718 489.972 218.983C489.577 219.248 489.039 219.398 488.479 219.4C487.918 219.403 487.379 219.257 486.981 218.995C486.584 218.733 486.36 218.377 486.358 218.004Z" fill="#4586B2"/>
<path d="M478.919 215.574L478.763 177.424C478.761 177.102 478.983 176.792 479.379 176.562C479.774 176.333 480.312 176.202 480.872 176.2C481.433 176.198 481.972 176.324 482.369 176.55C482.767 176.776 482.991 177.085 482.992 177.407L483.149 215.556C483.15 215.879 482.928 216.189 482.533 216.418C482.137 216.648 481.6 216.778 481.039 216.781C480.478 216.783 479.939 216.657 479.542 216.431C479.144 216.204 478.92 215.896 478.919 215.574Z" fill="#4586B2"/>
<path d="M471.486 212.882L471.348 179.138C471.347 178.853 471.569 178.578 471.964 178.375C472.36 178.172 472.898 178.056 473.458 178.054C474.019 178.052 474.558 178.163 474.955 178.363C475.353 178.563 475.576 178.835 475.578 179.121L475.716 212.864C475.717 213.149 475.495 213.424 475.1 213.627C474.704 213.83 474.166 213.946 473.605 213.948C473.045 213.95 472.506 213.839 472.109 213.639C471.711 213.439 471.487 213.167 471.486 212.882Z" fill="#4586B2"/>
<path d="M464.036 207.504L463.934 182.566C463.933 182.355 464.155 182.152 464.551 182.001C464.947 181.851 465.484 181.765 466.045 181.763C466.606 181.76 467.144 181.842 467.542 181.989C467.939 182.137 468.163 182.338 468.163 182.549L468.266 207.487C468.266 207.698 468.044 207.901 467.648 208.051C467.252 208.202 466.715 208.288 466.154 208.29C465.593 208.293 465.055 208.211 464.658 208.064C464.26 207.916 464.037 207.715 464.036 207.504Z" fill="#4586B2"/>
<path d="M456.606 205.766L456.518 184.309C456.518 184.128 456.74 183.953 457.136 183.823C457.532 183.693 458.069 183.619 458.63 183.617C459.191 183.614 459.729 183.684 460.127 183.811C460.524 183.937 460.747 184.11 460.748 184.292L460.836 205.748C460.837 205.93 460.614 206.105 460.218 206.234C459.822 206.364 459.285 206.438 458.724 206.441C458.163 206.443 457.625 206.373 457.228 206.247C456.83 206.12 456.607 205.947 456.606 205.766Z" fill="#4586B2"/>
<path d="M449.232 209.665L449.106 179.039C449.105 178.78 449.327 178.531 449.723 178.346C450.119 178.161 450.656 178.056 451.217 178.054C451.778 178.052 452.316 178.152 452.714 178.334C453.111 178.515 453.335 178.762 453.336 179.021L453.461 209.647C453.463 209.906 453.241 210.155 452.845 210.34C452.449 210.525 451.911 210.63 451.351 210.632C450.79 210.634 450.251 210.534 449.854 210.352C449.457 210.171 449.233 209.924 449.232 209.665Z" fill="#4586B2"/>
<path d="M441.875 217.991L441.694 173.905C441.693 173.532 441.914 173.174 442.309 172.909C442.705 172.644 443.242 172.494 443.803 172.491C444.364 172.489 444.903 172.635 445.3 172.897C445.698 173.159 445.922 173.515 445.924 173.888L446.104 217.974C446.106 218.347 445.884 218.705 445.489 218.97C445.093 219.235 444.556 219.385 443.995 219.387C443.434 219.39 442.896 219.244 442.498 218.982C442.1 218.72 441.876 218.364 441.875 217.991Z" fill="#4586B2"/>
<path d="M427.047 216.137L426.867 172.051C426.865 171.678 427.087 171.32 427.482 171.055C427.878 170.79 428.415 170.64 428.976 170.637C429.537 170.635 430.075 170.781 430.473 171.043C430.871 171.304 431.095 171.661 431.097 172.033L431.277 216.12C431.279 216.492 431.057 216.851 430.662 217.116C430.266 217.381 429.729 217.531 429.168 217.533C428.607 217.536 428.069 217.39 427.671 217.128C427.273 216.866 427.049 216.51 427.047 216.137Z" fill="#4586B2"/>
<path d="M389.928 211.559L389.795 179.097C389.794 178.823 390.016 178.559 390.412 178.363C390.807 178.167 391.345 178.056 391.906 178.054C392.467 178.052 393.005 178.158 393.402 178.351C393.8 178.543 394.024 178.805 394.025 179.08L394.158 211.541C394.159 211.816 393.937 212.08 393.541 212.275C393.145 212.471 392.608 212.582 392.047 212.584C391.486 212.587 390.948 212.48 390.55 212.288C390.153 212.095 389.929 211.833 389.928 211.559Z" fill="#4586B2"/>
<path d="M397.289 206.102L397.208 186.116C397.207 185.948 397.429 185.785 397.825 185.664C398.221 185.543 398.759 185.473 399.32 185.471C399.881 185.469 400.419 185.534 400.816 185.651C401.213 185.769 401.436 185.93 401.437 186.099L401.519 206.085C401.52 206.254 401.298 206.417 400.901 206.538C400.505 206.659 399.968 206.728 399.407 206.73C398.846 206.733 398.308 206.668 397.911 206.55C397.514 206.432 397.29 206.271 397.289 206.102Z" fill="#4586B2"/>
<path d="M404.782 216.179L404.623 177.443C404.622 177.116 404.843 176.801 405.239 176.568C405.635 176.335 406.172 176.202 406.733 176.2C407.294 176.198 407.832 176.326 408.23 176.555C408.627 176.785 408.851 177.098 408.853 177.426L409.011 216.161C409.013 216.489 408.791 216.803 408.395 217.036C408 217.27 407.462 217.402 406.902 217.404C406.341 217.406 405.802 217.279 405.405 217.049C405.007 216.819 404.783 216.506 404.782 216.179Z" fill="#4586B2"/>
<path d="M412.219 217.991L412.039 173.905C412.037 173.532 412.259 173.174 412.654 172.909C413.05 172.644 413.587 172.494 414.148 172.491C414.709 172.489 415.247 172.635 415.645 172.897C416.043 173.159 416.267 173.515 416.268 173.888L416.449 217.974C416.451 218.347 416.229 218.705 415.834 218.97C415.438 219.235 414.901 219.385 414.34 219.387C413.779 219.39 413.24 219.244 412.843 218.982C412.445 218.72 412.221 218.364 412.219 217.991Z" fill="#4586B2"/>
<path d="M419.567 211.21L419.45 182.68C419.449 182.439 419.671 182.207 420.067 182.035C420.463 181.863 421 181.765 421.561 181.763C422.122 181.76 422.66 181.854 423.057 182.023C423.455 182.192 423.679 182.422 423.68 182.663L423.796 211.193C423.797 211.434 423.575 211.666 423.18 211.838C422.784 212.011 422.246 212.108 421.685 212.111C421.124 212.113 420.586 212.02 420.189 211.851C419.791 211.682 419.568 211.452 419.567 211.21Z" fill="#4586B2"/>
<path d="M434.394 211.21L434.277 182.68C434.276 182.439 434.498 182.207 434.894 182.035C435.29 181.863 435.827 181.765 436.388 181.763C436.949 181.76 437.487 181.854 437.885 182.023C438.282 182.192 438.506 182.422 438.507 182.663L438.623 211.193C438.624 211.434 438.403 211.666 438.007 211.838C437.611 212.011 437.073 212.108 436.512 212.111C435.951 212.113 435.413 212.02 435.016 211.851C434.619 211.682 434.395 211.452 434.394 211.21Z" fill="#4586B2"/>
<path d="M530.84 218.004L530.66 173.918C530.658 173.545 530.88 173.187 531.275 172.922C531.671 172.657 532.208 172.507 532.769 172.504C533.33 172.502 533.868 172.648 534.266 172.91C534.664 173.172 534.888 173.528 534.89 173.9L535.07 217.987C535.072 218.36 534.85 218.718 534.455 218.983C534.059 219.248 533.522 219.398 532.961 219.4C532.4 219.403 531.862 219.257 531.464 218.995C531.066 218.733 530.842 218.377 530.84 218.004Z" fill="#4586B2"/>
<path d="M523.401 215.574L523.245 177.424C523.244 177.102 523.465 176.792 523.861 176.562C524.257 176.333 524.794 176.202 525.355 176.2C525.916 176.198 526.454 176.324 526.852 176.55C527.249 176.776 527.473 177.085 527.475 177.407L527.631 215.556C527.632 215.879 527.411 216.189 527.015 216.418C526.619 216.648 526.082 216.778 525.521 216.781C524.96 216.783 524.422 216.657 524.024 216.431C523.627 216.204 523.403 215.896 523.401 215.574Z" fill="#4586B2"/>
<path d="M515.968 212.882L515.829 179.138C515.828 178.853 516.05 178.578 516.446 178.375C516.842 178.172 517.379 178.056 517.94 178.054C518.501 178.052 519.039 178.163 519.437 178.363C519.834 178.563 520.058 178.835 520.059 179.121L520.197 212.864C520.198 213.149 519.977 213.424 519.581 213.627C519.185 213.83 518.648 213.946 518.087 213.948C517.526 213.95 516.988 213.839 516.59 213.639C516.193 213.439 515.969 213.167 515.968 212.882Z" fill="#4586B2"/>
<path d="M508.518 207.504L508.416 182.566C508.415 182.355 508.637 182.152 509.033 182.001C509.429 181.851 509.967 181.765 510.528 181.763C511.089 181.76 511.627 181.842 512.024 181.989C512.421 182.137 512.645 182.338 512.646 182.549L512.748 207.487C512.749 207.698 512.527 207.901 512.131 208.051C511.735 208.202 511.197 208.288 510.636 208.29C510.075 208.293 509.537 208.211 509.14 208.064C508.743 207.916 508.519 207.715 508.518 207.504Z" fill="#4586B2"/>
<path d="M501.09 205.766L501.003 184.309C501.002 184.128 501.224 183.953 501.62 183.823C502.016 183.693 502.554 183.619 503.115 183.617C503.676 183.614 504.214 183.684 504.611 183.811C505.008 183.937 505.232 184.11 505.232 184.292L505.32 205.748C505.321 205.93 505.099 206.105 504.703 206.234C504.307 206.364 503.769 206.438 503.208 206.441C502.647 206.443 502.109 206.373 501.712 206.247C501.315 206.12 501.091 205.947 501.09 205.766Z" fill="#4586B2"/>
<path d="M493.716 209.665L493.591 179.039C493.59 178.78 493.811 178.531 494.207 178.346C494.603 178.161 495.141 178.056 495.702 178.054C496.262 178.052 496.801 178.152 497.198 178.334C497.596 178.515 497.819 178.762 497.82 179.021L497.946 209.647C497.947 209.906 497.725 210.155 497.329 210.34C496.933 210.525 496.396 210.63 495.835 210.632C495.274 210.634 494.736 210.534 494.338 210.352C493.941 210.171 493.717 209.924 493.716 209.665Z" fill="#4586B2"/>
<path d="M475.042 101.576C471.697 100.037 469.498 95.6371 469.623 91.298C469.748 86.9589 472.029 82.9008 475.173 80.8315C476.707 79.8477 478.46 79.2608 480.276 79.1234C482.091 78.986 483.913 79.3025 485.576 80.0443C488.951 81.4831 493.483 81.875 495.511 85.451C497.07 88.1991 496.509 94.3299 495.405 97.3856C494.451 100.027 492.118 101.515 489.843 102.348C487.326 103.261 484.641 103.622 481.972 103.407C479.302 103.192 476.71 102.405 474.371 101.1" fill="#2F2E41"/>
<path d="M512.045 220.858L507.306 222.624L498.247 205.158L505.241 202.551L512.045 220.858Z" fill="#FFB8B8"/>
<path d="M503.415 223.56L512.555 220.153L514.697 225.916L499.802 231.468C499.521 230.711 499.391 229.906 499.42 229.099C499.45 228.292 499.638 227.499 499.973 226.764C500.309 226.03 500.785 225.369 501.376 224.819C501.966 224.269 502.659 223.841 503.415 223.56Z" fill="#2F2E41"/>
<path d="M466.582 227.795H461.525L459.119 208.262H466.583L466.582 227.795Z" fill="#FFB8B8"/>
<path d="M457.912 226.348H467.665V232.497H451.771C451.771 231.69 451.93 230.89 452.239 230.144C452.547 229.398 453 228.72 453.57 228.149C454.14 227.578 454.817 227.125 455.562 226.816C456.307 226.507 457.106 226.348 457.912 226.348Z" fill="#2F2E41"/>
<path d="M451.206 157.386C451.85 157.316 452.471 157.106 453.025 156.771C453.58 156.435 454.054 155.982 454.414 155.443C454.775 154.904 455.013 154.292 455.112 153.651C455.211 153.01 455.168 152.355 454.987 151.732L471.621 122.993L465.803 120.663L449.175 148.761C448.15 149.136 447.298 149.873 446.78 150.835C446.262 151.796 446.115 152.914 446.365 153.977C446.615 155.04 447.247 155.974 448.139 156.602C449.031 157.231 450.122 157.509 451.206 157.386Z" fill="#FFB8B8"/>
<path d="M467.882 133.21L459.041 127.709L467.378 112.496C467.745 111.826 468.242 111.238 468.84 110.764C469.438 110.291 470.125 109.942 470.86 109.739C471.595 109.536 472.363 109.482 473.119 109.582C473.875 109.681 474.603 109.931 475.261 110.318C475.919 110.704 476.492 111.218 476.948 111.831C477.404 112.443 477.732 113.14 477.914 113.882C478.096 114.623 478.127 115.394 478.006 116.148C477.886 116.902 477.615 117.624 477.211 118.271L467.882 133.21Z" fill="#2F2E41"/>
<path d="M501.64 214.541C501.297 214.541 500.961 214.445 500.669 214.264C500.377 214.084 500.141 213.825 499.988 213.518L477.994 168.182C477.859 167.914 477.644 167.696 477.379 167.556C477.115 167.416 476.813 167.363 476.517 167.402C476.22 167.441 475.943 167.572 475.724 167.776C475.505 167.98 475.354 168.247 475.293 168.54L467.457 211.75C467.37 212.168 467.141 212.544 466.811 212.814C466.48 213.084 466.066 213.232 465.639 213.234H460.648C460.184 213.236 459.737 213.064 459.394 212.751C459.051 212.438 458.839 212.007 458.799 211.545C455.732 177.844 457.391 153.32 463.731 138.654C463.911 138.247 464.229 137.917 464.63 137.724C465.031 137.531 465.487 137.487 465.917 137.601L491.26 144.419C491.579 144.505 491.869 144.675 492.101 144.911C492.333 145.147 492.497 145.44 492.578 145.761L508.462 210.642C508.577 211.102 508.512 211.588 508.281 212.001C508.051 212.414 507.671 212.724 507.221 212.867L502.204 214.453C502.022 214.511 501.832 214.541 501.64 214.541Z" fill="#2F2E41"/>
<path d="M481.955 105.69C487.55 105.69 492.086 101.148 492.086 95.5444C492.086 89.9413 487.55 85.399 481.955 85.399C476.36 85.399 471.824 89.9413 471.824 95.5444C471.824 101.148 476.36 105.69 481.955 105.69Z" fill="#FFB8B8"/>
<path d="M491.523 110.379C491.523 110.379 482.449 105.422 475.437 110.792C475.437 110.792 466.568 119.673 469.456 128.348L462.237 148.795C467.949 159.64 484.67 157.884 492.761 148.795L492.142 129.174L491.523 110.379Z" fill="#4586B2"/>
<path d="M497.267 164.998C495.689 165.041 494.124 164.693 492.713 163.984C490.485 162.787 489.114 160.535 488.638 157.293C487.842 151.876 488.498 144.431 489.191 136.549C490.094 126.297 491.027 115.697 488.529 109.863C488.398 109.556 488.353 109.219 488.398 108.889C488.442 108.558 488.575 108.246 488.783 107.984C488.99 107.723 489.263 107.522 489.575 107.404C489.886 107.285 490.224 107.253 490.552 107.31L497.657 108.537C498.027 108.602 498.369 108.778 498.637 109.04C498.906 109.303 499.089 109.641 499.163 110.009L509.013 160.118C509.093 160.523 509.036 160.945 508.85 161.314C508.664 161.684 508.36 161.981 507.986 162.157C505.841 163.168 501.387 164.998 497.267 164.998Z" fill="#2F2E41"/>
<path d="M460.062 164.332C459.807 164.332 459.555 164.279 459.321 164.178C458.152 163.672 456.536 162.937 454.518 161.994C448.944 159.389 463.645 123.402 466.648 116.214C466.752 115.964 466.91 115.74 467.111 115.558L475.158 108.223C475.468 107.981 475.847 107.844 476.24 107.832C476.633 107.819 477.02 107.933 477.345 108.155C477.67 108.377 477.915 108.696 478.047 109.068C478.179 109.439 478.189 109.842 478.077 110.22C476.665 114.959 474.163 122.904 471.515 131.315C467.336 144.589 463.015 158.315 461.859 162.928C461.759 163.329 461.527 163.685 461.202 163.939C460.876 164.194 460.475 164.332 460.062 164.332Z" fill="#2F2E41"/>
<path d="M516.623 155.627C516.955 155.071 517.162 154.448 517.229 153.803C517.295 153.157 517.22 152.505 517.007 151.892C516.795 151.28 516.451 150.721 515.999 150.255C515.548 149.79 515 149.43 514.395 149.199L501.513 118.589L496.15 121.835L508.525 152.055C508.206 153.099 508.281 154.225 508.735 155.218C509.189 156.211 509.991 157.002 510.99 157.443C511.988 157.883 513.112 157.942 514.151 157.607C515.189 157.272 516.068 156.568 516.623 155.627Z" fill="#FFB8B8"/>
<path d="M497.693 131.483L490.592 115.654C490.279 114.958 490.109 114.205 490.092 113.442C490.075 112.679 490.211 111.92 490.492 111.21C490.773 110.5 491.193 109.854 491.728 109.309C492.263 108.765 492.901 108.334 493.605 108.041C494.309 107.748 495.065 107.599 495.827 107.604C496.59 107.608 497.344 107.766 498.044 108.067C498.745 108.369 499.378 108.808 499.906 109.359C500.434 109.91 500.847 110.561 501.119 111.274L507.404 127.731L497.693 131.483Z" fill="#2F2E41"/>
<path d="M489.158 82.9165C489.523 82.9698 489.895 82.9012 490.217 82.7213C490.539 82.5413 490.793 82.2602 490.939 81.9212C491.074 81.5779 491.129 81.2081 491.099 80.8402C491.069 80.4723 490.956 80.1162 490.768 79.799C490.384 79.167 489.848 78.6411 489.21 78.2693C488.475 77.7772 487.625 77.4843 486.743 77.4192C486.303 77.3903 485.862 77.4565 485.449 77.6132C485.037 77.7699 484.663 78.0136 484.353 78.3277C484.05 78.6495 483.851 79.0544 483.779 79.4906C483.708 79.9268 483.768 80.3744 483.952 80.7762C484.323 81.4916 485.1 81.8927 485.857 82.1651C487.36 82.7041 488.96 82.9146 490.55 82.7824" fill="#2F2E41"/>
<path d="M492.761 93.8565C491.183 94.3169 491.269 93.465 490.403 92.0651C489.538 90.6652 488.413 89.0178 486.771 89.1055C485.425 89.1773 484.488 90.4013 483.529 91.3491C481.82 93.0384 479.338 94.1081 476.993 93.5924C474.647 93.0767 472.713 90.6533 473.228 88.3043C473.4 87.6513 473.704 87.0407 474.122 86.5101C474.539 85.9796 475.06 85.5405 475.654 85.22C476.846 84.5863 478.155 84.2032 479.5 84.094C482.477 83.7514 485.493 84.0673 488.335 85.0194C490.297 85.6786 492.269 86.7448 493.246 88.5717C494.222 90.3987 495.077 93.0424 493.174 93.8566L492.761 93.8565Z" fill="#2F2E41"/>
<path d="M487.764 77.6834C486.427 75.9853 486.931 73.31 488.49 71.8132C490.048 70.3164 492.367 69.8499 494.518 70.0403C496.649 70.2553 498.687 71.0278 500.426 72.2802C502.166 73.5326 503.546 75.221 504.428 77.176C505.787 80.2903 505.776 83.8525 507.005 87.0205C507.661 88.7093 508.654 90.2458 509.925 91.5355C511.196 92.8252 512.717 93.8407 514.394 94.5195C516.072 95.1984 517.87 95.5262 519.679 95.4827C521.487 95.4392 523.268 95.0255 524.911 94.2668C527.051 93.2787 529.089 91.3438 528.967 88.9871C530.32 94.2109 527.883 100.186 523.265 102.968C520.56 104.598 517.357 105.151 514.224 105.532C512.181 105.78 510.083 105.964 508.09 105.453C505.302 104.738 502.968 102.678 501.554 100.167C500.141 97.6564 499.585 94.7307 499.563 91.8487C499.546 89.6035 499.84 87.3571 499.685 85.1173C499.53 82.8774 498.857 80.5606 497.236 79.0099C495.615 77.4591 492.879 76.9487 491.099 78.3146C490.384 78.8636 489.86 79.6653 489.055 80.0702C488.25 80.4752 486.978 80.1603 486.924 79.2596L487.764 77.6834Z" fill="#2F2E41"/>
<path d="M57.716 92.912H73.844V96.836H57.716V92.912ZM55.916 67.964H68.66V71.78H55.916V67.964ZM56.852 64.22L61.712 65.192C58.652 70.448 54.332 75.272 47.852 79.16C47.24 78.08 45.8 76.496 44.828 75.74C50.768 72.608 54.764 68.216 56.852 64.22ZM67.292 67.964H68.12L68.84 67.748L71.828 69.332C67.616 80.528 58.004 87.872 47.276 91.472C46.736 90.284 45.656 88.52 44.756 87.62C54.692 84.74 63.98 77.756 67.292 68.684V67.964ZM51.2 75.884L54.404 73.076C56.888 74.84 60.164 77.396 61.748 79.268L58.256 82.4C56.888 80.528 53.684 77.756 51.2 75.884ZM71.828 81.932H76.328V98.276H71.828V81.932ZM59.552 81.932H73.988V85.856H59.552V98.204H55.232V85.136L58.508 81.932H59.552ZM81.548 68.36H100.232V72.212H81.548V68.36ZM89.036 64.724H92.996V98.132H89.036V64.724ZM96.128 74.768H99.872V81.716C99.872 83.264 99.656 84.164 98.648 84.704C97.712 85.28 96.452 85.316 94.724 85.316C94.58 84.308 94.148 82.94 93.716 82.004C94.616 82.04 95.444 82.04 95.732 82.004C96.056 82.004 96.128 81.932 96.128 81.608V74.768ZM89.324 82.4L92.168 83.804C90.008 88.52 86.516 93.74 82.736 96.548C82.34 95.36 81.404 93.632 80.72 92.588C84.176 90.32 87.632 86.144 89.324 82.4ZM92.348 85.172C93.932 85.964 98.972 89.096 100.232 89.96L97.964 93.704C96.092 91.976 92.132 88.88 90.152 87.512L92.348 85.172ZM82.484 74.768H97.532V78.476H86.228V84.992H82.484V74.768ZM101.78 68.288H105.884V88.664H101.78V68.288ZM109.412 65.156H113.588V93.092C113.588 95.504 113.12 96.692 111.752 97.376C110.312 98.096 108.152 98.24 105.092 98.204C104.912 97.016 104.3 95.036 103.688 93.812C105.776 93.92 107.864 93.92 108.548 93.884C109.16 93.884 109.412 93.668 109.412 93.056V65.156ZM137.276 70.34C136.772 74.012 136.052 78.224 134.792 82.472C132.632 89.744 129.536 94.208 125.612 94.208C121.58 94.208 118.268 89.78 118.268 83.696C118.268 75.416 125.504 68.288 134.828 68.288C143.72 68.288 149.372 74.48 149.372 82.364C149.372 89.924 144.728 95.288 135.656 96.692L132.92 92.444C134.324 92.264 135.332 92.084 136.304 91.868C140.876 90.752 144.476 87.476 144.476 82.184C144.476 76.532 140.948 72.5 134.72 72.5C127.088 72.5 122.912 78.728 122.912 83.264C122.912 86.9 124.352 88.664 125.72 88.664C127.268 88.664 128.636 86.36 130.148 81.5C131.192 78.116 131.984 73.976 132.344 70.196L137.276 70.34ZM169.712 70.304H186.992V74.408H167.696L169.712 70.304ZM174.464 78.224H186.056V82.148H174.464V78.224ZM174.428 86.18H186.524V90.212H174.428V86.18ZM172.268 71.672H176.696V98.24H172.268V71.672ZM170.54 64.76L174.716 65.876C172.7 71.708 169.46 77.684 166.148 81.428C165.464 80.636 163.808 79.088 162.872 78.404C166.04 75.164 168.884 69.98 170.54 64.76ZM161.036 64.58L165.212 65.912C162.872 72.032 159.092 78.62 155.132 82.724C154.736 81.644 153.512 79.196 152.756 78.116C156.068 74.84 159.2 69.728 161.036 64.58ZM157.4 74.516L161.72 70.16L161.756 70.196V98.204H157.4V74.516ZM194.516 77.972H202.832V81.932H194.516V77.972ZM201.176 77.972H205.388C205.388 77.972 205.352 79.052 205.352 79.556C205.208 87.188 205.028 90.392 204.2 91.508C203.48 92.408 202.76 92.732 201.716 92.912C200.744 93.056 199.196 93.056 197.504 93.02C197.432 91.76 196.964 90.068 196.316 88.988C197.612 89.132 198.836 89.132 199.412 89.132C199.916 89.132 200.24 89.06 200.528 88.7C200.96 88.124 201.104 85.604 201.176 78.62V77.972ZM212.012 66.704L214.604 64.076C216.584 65.12 219.248 66.776 220.544 67.964L217.772 70.88C216.584 69.62 214.028 67.856 212.012 66.704ZM216.26 75.956L220.616 77C217.592 86.396 212.3 93.704 205.172 98.096C204.524 97.196 202.94 95.396 202.04 94.532C208.952 90.824 213.776 84.308 216.26 75.956ZM194.768 69.836H222.524V74.084H194.768V69.836ZM191.888 69.836H196.424V80.42C196.424 85.82 195.812 93.812 192.536 98.672C191.816 97.808 189.872 96.224 188.864 95.72C191.636 91.4 191.888 85.1 191.888 80.384V69.836ZM206.504 64.472H211.04C210.788 79.16 214.1 93.596 217.736 93.596C218.564 93.596 218.996 91.76 219.212 87.224C220.184 88.232 221.732 89.24 222.884 89.672C222.2 96.368 220.76 97.988 217.376 97.988C209.528 97.988 206.612 80.888 206.504 64.472Z" fill="#3270E3"/>
<path d="M57.372 147.333H68.481V148.92H57.372V147.333ZM56.59 131.003H65.031V132.544H56.59V131.003ZM57.625 128.611L59.557 129.002C57.832 131.992 55.072 135.12 51.07 137.489C50.817 137.052 50.242 136.454 49.851 136.155C53.646 134.085 56.291 131.118 57.625 128.611ZM64.456 131.003H64.778L65.1 130.911L66.25 131.532C63.49 138.478 57.004 143.101 50.748 145.125C50.541 144.665 50.104 143.952 49.736 143.584C55.693 141.859 62.064 137.351 64.456 131.302V131.003ZM53.715 135.097L55.003 133.993C56.82 135.235 59.028 137.075 60.086 138.386L58.683 139.628C57.717 138.317 55.532 136.385 53.715 135.097ZM67.63 140.065H69.401V149.886H67.63V140.065ZM58.154 140.065H68.504V141.652H58.154V149.84H56.429V141.422L57.809 140.065H58.154ZM73.219 132.314H93.781V133.924H73.219V132.314ZM75.588 139.72H82.028V141.077H75.588V139.72ZM75.588 143.4H82.028V144.757H75.588V143.4ZM85.869 136.178H87.502V145.631H85.869V136.178ZM81.407 135.971H83.086V147.862C83.086 148.736 82.879 149.196 82.235 149.472C81.614 149.748 80.602 149.748 79.038 149.748C78.946 149.311 78.693 148.667 78.463 148.23C79.613 148.276 80.671 148.276 80.993 148.253C81.315 148.23 81.407 148.138 81.407 147.839V135.971ZM90.538 135.488H92.24V147.701C92.24 148.713 92.01 149.196 91.297 149.472C90.584 149.725 89.434 149.771 87.64 149.771C87.548 149.311 87.272 148.575 87.019 148.115C88.422 148.161 89.664 148.161 90.055 148.138C90.423 148.115 90.538 148.023 90.538 147.701V135.488ZM76.784 129.255L78.371 128.657C79.268 129.646 80.234 131.003 80.671 131.9L78.969 132.521C78.601 131.647 77.658 130.244 76.784 129.255ZM88.606 128.588L90.446 129.186C89.572 130.612 88.537 132.199 87.686 133.28L86.168 132.705C86.996 131.601 88.031 129.83 88.606 128.588ZM74.668 135.971H81.959V137.466H76.301V149.725H74.668V135.971ZM101.279 149.288C99.784 147.471 97.806 145.516 96.173 144.182L97.668 142.871C99.324 144.205 101.394 146.275 102.843 147.954L101.279 149.288ZM120.231 147.333C124.233 147.241 130.65 147.011 136.63 146.735L136.561 148.322C130.765 148.621 124.532 148.897 120.461 149.035L120.231 147.333ZM120.024 140.226H139.091V141.859H120.024V140.226ZM123.957 135.833H134.951V137.443H123.957V135.833ZM126.326 141.261L128.258 141.813C127.2 144.021 125.866 146.712 124.739 148.437L123.198 147.931C124.279 146.137 125.636 143.285 126.326 141.261ZM131.8 143.699L133.272 142.917C135.388 144.734 137.642 147.218 138.723 148.966L137.159 149.909C136.124 148.184 133.847 145.539 131.8 143.699ZM129.408 130.382C127.522 133.188 123.75 136.339 119.84 138.294C119.633 137.88 119.196 137.259 118.828 136.891C122.784 135.005 126.625 131.67 128.419 128.726H130.19C132.628 132.13 136.653 135.143 140.31 136.638C139.896 137.052 139.482 137.673 139.183 138.179C135.595 136.454 131.547 133.372 129.408 130.382ZM150.315 147.494H163.31V149.196H150.315V147.494ZM151.212 136.224H162.827V137.88H151.212V136.224ZM156.157 128.864H157.905V148.322H156.157V128.864ZM142.265 133.004H149.901V134.591H142.265V133.004ZM145.899 139.904L147.601 137.857V149.863H145.899V139.904ZM145.899 128.703H147.601V133.786H145.899V128.703ZM147.463 138.317C148.245 138.869 150.913 141.215 151.58 141.79L150.522 143.193C149.671 142.204 147.417 140.019 146.474 139.191L147.463 138.317ZM149.257 133.004H149.602L149.924 132.935L150.913 133.579C149.165 137.811 145.646 141.629 142.357 143.745C142.173 143.308 141.759 142.503 141.46 142.204C144.588 140.364 147.877 136.868 149.257 133.372V133.004ZM172.372 147.333H183.481V148.92H172.372V147.333ZM171.59 131.003H180.031V132.544H171.59V131.003ZM172.625 128.611L174.557 129.002C172.832 131.992 170.072 135.12 166.07 137.489C165.817 137.052 165.242 136.454 164.851 136.155C168.646 134.085 171.291 131.118 172.625 128.611ZM179.456 131.003H179.778L180.1 130.911L181.25 131.532C178.49 138.478 172.004 143.101 165.748 145.125C165.541 144.665 165.104 143.952 164.736 143.584C170.693 141.859 177.064 137.351 179.456 131.302V131.003ZM168.715 135.097L170.003 133.993C171.82 135.235 174.028 137.075 175.086 138.386L173.683 139.628C172.717 138.317 170.532 136.385 168.715 135.097ZM182.63 140.065H184.401V149.886H182.63V140.065ZM173.154 140.065H183.504V141.652H173.154V149.84H171.429V141.422L172.809 140.065H173.154ZM189.208 133.51C190.059 133.602 191.048 133.648 192.037 133.648C194.521 133.648 197.419 133.349 200.064 132.475L200.11 134.177C197.856 134.798 194.843 135.304 192.037 135.281C191.186 135.281 190.197 135.258 189.346 135.235L189.208 133.51ZM197.373 129.761C197.074 130.888 196.591 133.05 196.039 134.683C194.935 137.995 192.819 142.181 190.91 144.757L189.139 143.837C191.186 141.445 193.325 137.351 194.268 134.637C194.774 133.188 195.28 131.164 195.349 129.554L197.373 129.761ZM202.801 136.868C202.732 137.811 202.732 138.501 202.755 139.329C202.801 140.824 203.008 144.32 203.008 145.838C203.008 147.678 201.835 149.173 198.983 149.173C196.453 149.173 194.406 148.161 194.406 145.861C194.406 143.745 196.407 142.411 198.983 142.411C202.847 142.411 205.814 144.343 207.7 145.976L206.734 147.54C204.963 145.93 202.318 143.883 198.937 143.883C197.235 143.883 196.085 144.665 196.085 145.723C196.085 146.781 196.982 147.517 198.776 147.517C200.685 147.517 201.329 146.505 201.329 145.263C201.329 143.515 201.076 139.398 200.984 136.868H202.801ZM207.401 137.466C206.159 136.408 203.652 135.005 202.134 134.292L203.054 132.912C204.733 133.625 207.332 135.12 208.436 135.948L207.401 137.466ZM227.48 134.89C226.951 135.212 226.376 135.511 225.709 135.856C224.145 136.661 221.592 137.857 219.338 139.352C217.199 140.755 215.911 142.273 215.911 143.998C215.911 145.907 217.728 147.103 221.362 147.103C223.869 147.103 226.951 146.781 228.745 146.321L228.722 148.391C226.997 148.69 224.329 148.943 221.454 148.943C217.13 148.943 214.002 147.655 214.002 144.205C214.002 141.721 215.681 139.766 218.372 137.972C220.718 136.408 223.409 135.143 224.904 134.315C225.571 133.924 226.077 133.625 226.56 133.211L227.48 134.89ZM216.463 130.405C217.521 133.349 218.924 136.224 220.005 138.064L218.418 139.03C217.268 137.144 215.888 134.039 214.646 131.187L216.463 130.405ZM227.871 130.175C228.446 131.026 229.274 132.406 229.734 133.349L228.492 133.924C228.032 132.981 227.273 131.578 226.629 130.704L227.871 130.175ZM230.401 129.255C230.999 130.106 231.896 131.555 232.333 132.406L231.091 132.958C230.585 131.969 229.849 130.635 229.182 129.784L230.401 129.255ZM245.949 132.314C245.65 134.706 245.19 137.397 244.477 139.858C243.074 144.573 241.234 147.011 239.118 147.011C237.048 147.011 235.001 144.665 235.001 140.847C235.001 135.856 239.44 131.509 245.075 131.509C250.457 131.509 253.884 135.304 253.884 139.973C253.884 144.78 250.71 148 245.236 148.713L244.178 147.011C244.914 146.942 245.604 146.85 246.156 146.735C249.1 146.068 251.998 143.86 251.998 139.881C251.998 136.201 249.445 133.165 245.029 133.165C239.969 133.165 236.818 137.328 236.818 140.709C236.818 143.607 238.129 144.895 239.164 144.895C240.245 144.895 241.487 143.331 242.66 139.444C243.327 137.259 243.81 134.66 244.04 132.268L245.949 132.314ZM260.669 131.21C261.313 131.279 262.003 131.325 262.739 131.325C264.073 131.325 269.432 131.325 270.72 131.325C271.364 131.325 272.192 131.279 272.859 131.21V133.119C272.169 133.073 271.364 133.027 270.72 133.027C269.432 133.027 264.073 133.027 262.785 133.027C262.003 133.027 261.267 133.073 260.669 133.119V131.21ZM257.932 136.983C258.553 137.052 259.22 137.098 259.933 137.098C261.267 137.098 273.756 137.098 274.975 137.098C275.458 137.098 276.217 137.052 276.792 136.983V138.892C276.286 138.846 275.55 138.823 274.975 138.823C273.756 138.823 261.267 138.823 259.933 138.823C259.243 138.823 258.553 138.846 257.932 138.892V136.983ZM268.765 137.903C268.765 140.801 268.397 143.193 267.385 145.125C266.534 146.666 264.809 148.322 262.854 149.311L261.152 148.069C262.923 147.31 264.579 145.999 265.499 144.527C266.649 142.71 266.81 140.456 266.833 137.926L268.765 137.903ZM274.055 129.324C274.63 130.152 275.458 131.555 275.918 132.475L274.676 133.027C274.239 132.107 273.457 130.727 272.836 129.853L274.055 129.324ZM276.562 128.404C277.183 129.255 278.057 130.681 278.494 131.532L277.275 132.084C276.769 131.095 276.01 129.784 275.366 128.933L276.562 128.404ZM281.323 138.041C282.036 138.11 283.232 138.179 284.543 138.179C286.222 138.179 295.445 138.179 297.147 138.179C298.297 138.179 299.102 138.087 299.631 138.041V140.295C299.148 140.272 298.182 140.203 297.17 140.203C295.422 140.203 286.245 140.203 284.543 140.203C283.278 140.203 282.059 140.249 281.323 140.295V138.041ZM58.545 165.466C61.489 167.191 65.261 169.836 67.538 171.676L66.181 173.286C64.065 171.354 60.132 168.525 57.28 166.754L58.545 165.466ZM69.056 161.28C68.872 161.602 68.642 162.131 68.527 162.499C67.837 164.845 66.388 167.904 64.364 170.388C62.271 172.964 59.281 175.425 54.911 177.035L53.278 175.586C57.556 174.298 60.684 171.86 62.754 169.399C64.525 167.283 65.974 164.362 66.503 162.223H57.993L58.729 160.567H66.043C66.664 160.567 67.17 160.498 67.538 160.36L69.056 161.28ZM61.305 157.945C60.914 158.543 60.5 159.325 60.27 159.762C58.913 162.292 56.314 165.765 52.634 168.295L51.116 167.122C55.049 164.661 57.418 161.211 58.476 159.095C58.706 158.704 59.074 157.876 59.212 157.278L61.305 157.945ZM90.699 162.292C90.193 162.591 89.618 162.913 88.928 163.258C87.387 164.063 84.19 165.581 81.936 167.053C79.797 168.456 78.509 169.974 78.509 171.699C78.509 173.608 80.349 174.804 83.983 174.804C86.467 174.804 89.549 174.482 91.343 174.022L91.32 176.092C89.595 176.391 86.927 176.644 84.052 176.644C79.728 176.644 76.6 175.356 76.6 171.906C76.6 169.422 78.279 167.467 80.993 165.673C83.339 164.109 86.559 162.568 88.054 161.717C88.721 161.326 89.227 161.027 89.71 160.636L90.699 162.292ZM79.061 158.106C80.119 161.05 81.545 163.925 82.603 165.788L81.039 166.731C79.866 164.845 78.486 161.74 77.244 158.888L79.061 158.106ZM106.201 160.544H117.103V162.2H105.396L106.201 160.544ZM109.076 165.535H116.574V167.122H109.076V165.535ZM109.053 170.595H116.896V172.228H109.053V170.595ZM108.202 161.073H109.973V177.84H108.202V161.073ZM107.075 156.956L108.754 157.393C107.443 161.05 105.442 164.661 103.326 167.03C103.073 166.731 102.383 166.11 101.992 165.834C104.085 163.695 105.948 160.337 107.075 156.956ZM101.555 156.772L103.211 157.301C101.693 161.188 99.324 165.121 96.817 167.697C96.656 167.283 96.127 166.363 95.805 165.949C98.105 163.718 100.244 160.268 101.555 156.772ZM99.094 162.706L100.796 160.981L100.842 161.004V177.817H99.094V162.706ZM121.91 165.305H127.637V166.915H121.91V165.305ZM126.947 165.305H128.626C128.626 165.305 128.626 165.811 128.626 166.041C128.511 171.239 128.373 173.171 127.89 173.815C127.522 174.229 127.154 174.39 126.51 174.459C125.912 174.528 124.877 174.505 123.75 174.459C123.704 173.953 123.52 173.286 123.267 172.849C124.302 172.941 125.314 172.941 125.705 172.941C126.027 172.941 126.257 172.918 126.418 172.711C126.763 172.297 126.878 170.572 126.947 165.604V165.305ZM133.433 157.853L134.468 156.772C135.894 157.508 137.711 158.612 138.608 159.417L137.527 160.59C136.653 159.785 134.882 158.612 133.433 157.853ZM136.722 164.086L138.447 164.5C136.492 170.503 133.065 174.942 128.35 177.725C128.097 177.38 127.453 176.667 127.085 176.322C131.754 173.838 134.997 169.629 136.722 164.086ZM122.048 160.59H139.85V162.292H122.048V160.59ZM120.944 160.59H122.738V167.076C122.738 170.342 122.37 174.988 120.277 178.001C119.978 177.656 119.242 177.058 118.828 176.851C120.737 174.022 120.944 170.066 120.944 167.053V160.59ZM130.489 156.726H132.283C132.237 167.306 134.491 175.931 137.481 175.931C138.125 175.931 138.424 174.735 138.562 171.676C138.953 172.067 139.597 172.458 140.057 172.619C139.735 176.552 139.091 177.679 137.343 177.679C132.651 177.679 130.581 167.743 130.489 156.726ZM148.82 158.083C148.705 158.842 148.636 159.647 148.59 160.406C148.498 163.005 148.314 168.456 148.314 171.883C148.314 174.413 149.901 175.287 152.086 175.287C156.295 175.287 158.687 172.941 160.343 170.549L161.631 172.113C160.067 174.298 157.077 177.173 152.04 177.173C148.728 177.173 146.451 175.816 146.451 172.044C146.451 168.64 146.681 162.821 146.681 160.406C146.681 159.555 146.612 158.75 146.474 158.083H148.82ZM174.166 157.922C174.028 158.428 173.867 159.302 173.775 159.739C173.43 161.395 172.947 163.994 172.303 166.294C171.475 169.56 169.934 174.321 168.715 176.828L166.714 176.161C168.094 173.769 169.704 169.1 170.578 165.857C171.13 163.741 171.728 160.843 171.889 159.647C171.981 159.003 172.027 158.221 171.981 157.738L174.166 157.922ZM169.083 161.763C171.613 161.763 174.994 161.349 177.846 160.636V162.43C174.994 163.074 171.521 163.465 169.037 163.465C168.025 163.465 167.22 163.442 166.369 163.373L166.323 161.579C167.404 161.717 168.232 161.763 169.083 161.763ZM176.351 164.914C177.547 164.799 179.088 164.73 180.56 164.73C181.894 164.73 183.297 164.776 184.539 164.914L184.493 166.662C183.297 166.524 181.963 166.386 180.606 166.386C179.18 166.386 177.754 166.478 176.351 166.639V164.914ZM176.811 170.503C176.627 171.262 176.489 171.975 176.489 172.573C176.489 173.654 177.11 174.712 180.376 174.712C181.894 174.712 183.458 174.551 184.884 174.275L184.815 176.115C183.573 176.299 182.032 176.437 180.353 176.437C176.742 176.437 174.764 175.333 174.764 173.056C174.764 172.182 174.902 171.308 175.109 170.342L176.811 170.503ZM194.988 170.577H197.471L199.219 172.855L200.044 173.868L202.829 177.503H200.248L198.386 175.077L197.749 174.195L194.988 170.577ZM203.368 167.636C203.368 169.422 203.041 170.958 202.388 172.243C201.734 173.522 200.839 174.508 199.701 175.2C198.568 175.886 197.28 176.229 195.837 176.229C194.389 176.229 193.096 175.886 191.958 175.2C190.825 174.508 189.932 173.52 189.279 172.235C188.625 170.95 188.299 169.417 188.299 167.636C188.299 165.85 188.625 164.318 189.279 163.038C189.932 161.753 190.825 160.767 191.958 160.081C193.096 159.39 194.389 159.044 195.837 159.044C197.28 159.044 198.568 159.39 199.701 160.081C200.839 160.767 201.734 161.753 202.388 163.038C203.041 164.318 203.368 165.85 203.368 167.636ZM200.869 167.636C200.869 166.275 200.648 165.129 200.207 164.198C199.771 163.261 199.172 162.553 198.41 162.074C197.653 161.59 196.796 161.347 195.837 161.347C194.874 161.347 194.013 161.59 193.256 162.074C192.5 162.553 191.901 163.261 191.46 164.198C191.024 165.129 190.806 166.275 190.806 167.636C190.806 168.998 191.024 170.147 191.46 171.083C191.901 172.014 192.5 172.722 193.256 173.207C194.013 173.686 194.874 173.925 195.837 173.925C196.796 173.925 197.653 173.686 198.41 173.207C199.172 172.722 199.771 172.014 200.207 171.083C200.648 170.147 200.869 168.998 200.869 167.636ZM206.514 176V159.273H212.477C213.773 159.273 214.848 159.496 215.703 159.942C216.563 160.389 217.206 161.007 217.631 161.797C218.055 162.581 218.268 163.487 218.268 164.516C218.268 165.54 218.053 166.441 217.622 167.22C217.198 167.993 216.555 168.595 215.695 169.025C214.84 169.455 213.765 169.67 212.469 169.67H207.952V167.498H212.24C213.057 167.498 213.721 167.38 214.233 167.146C214.75 166.912 215.129 166.572 215.368 166.125C215.608 165.679 215.728 165.143 215.728 164.516C215.728 163.885 215.605 163.337 215.36 162.875C215.12 162.412 214.742 162.058 214.225 161.813C213.713 161.562 213.04 161.437 212.207 161.437H209.038V176H206.514ZM214.772 168.453L218.905 176H216.03L211.979 168.453H214.772ZM223.434 160.245C224.216 160.314 225.205 160.383 225.964 160.383H237.28C237.855 160.383 238.522 160.36 238.982 160.337C238.959 160.843 238.936 161.579 238.936 162.108V173.999C238.936 174.827 239.005 175.862 239.028 176.207H236.958C236.958 175.862 237.004 175.011 237.004 174.183V162.2H225.964C225.113 162.2 223.986 162.246 223.434 162.292V160.245ZM223.158 172.941C223.733 172.987 224.745 173.056 225.688 173.056H238.039V174.942H225.757C224.814 174.942 223.779 174.965 223.158 175.034V172.941ZM244.824 166.041C245.537 166.11 246.733 166.179 248.044 166.179C249.723 166.179 258.946 166.179 260.648 166.179C261.798 166.179 262.603 166.087 263.132 166.041V168.295C262.649 168.272 261.683 168.203 260.671 168.203C258.923 168.203 249.746 168.203 248.044 168.203C246.779 168.203 245.56 168.249 244.824 168.295V166.041ZM280.589 159.463C281.164 160.291 282.153 161.832 282.682 162.936L281.371 163.534C280.796 162.315 280.06 161.05 279.301 160.015L280.589 159.463ZM283.349 158.313C283.97 159.118 284.982 160.636 285.511 161.717L284.223 162.361C283.625 161.142 282.866 159.923 282.107 158.911L283.349 158.313ZM272.516 174.275C272.516 173.01 272.516 162.844 272.516 160.912C272.516 160.245 272.447 159.233 272.332 158.52H274.586C274.517 159.21 274.425 160.222 274.425 160.912C274.425 164.5 274.448 173.194 274.448 174.275C274.448 175.011 274.494 176.253 274.586 177.012H272.355C272.47 176.276 272.516 175.149 272.516 174.275ZM274.011 164.546C277.07 165.42 281.693 167.191 284.246 168.456L283.441 170.388C280.819 168.985 276.518 167.352 274.011 166.57V164.546ZM59.58 185.83C59.373 186.727 59.12 187.992 58.522 189.533C57.947 190.936 57.096 192.477 56.176 193.673C57.073 193.144 58.384 192.822 59.396 192.822C61.167 192.822 62.547 193.88 62.547 195.743C62.547 196.939 62.593 199.584 62.616 201.01H60.845C60.937 199.791 60.96 197.422 60.937 196.226C60.914 194.892 59.994 194.271 58.798 194.271C57.326 194.271 55.877 195.007 54.819 195.95C54.152 196.594 53.508 197.422 52.749 198.365L51.162 197.192C54.474 194.018 56.015 191.35 56.797 189.395C57.303 188.13 57.625 186.75 57.694 185.669L59.58 185.83ZM51.691 188.314C52.933 188.475 54.52 188.544 55.578 188.544C58.683 188.544 62.662 188.36 65.905 187.785V189.487C62.685 189.97 58.407 190.177 55.486 190.177C54.497 190.177 52.979 190.131 51.691 190.039V188.314ZM69.263 193.857C68.688 194.041 67.86 194.363 67.239 194.593C65.606 195.237 63.421 196.111 61.19 197.261C58.913 198.457 57.303 199.699 57.303 201.286C57.303 203.08 59.074 203.356 61.443 203.356C63.237 203.356 65.721 203.149 67.745 202.781L67.676 204.644C65.928 204.851 63.375 205.035 61.374 205.035C58.108 205.035 55.463 204.322 55.463 201.539C55.463 198.733 58.315 197.008 61.052 195.605C63.237 194.478 65.1 193.765 66.618 193.052C67.308 192.73 67.883 192.477 68.527 192.155L69.263 193.857ZM77.497 193.765V201.907H75.864V195.375H73.035V193.765H77.497ZM77.497 201.217C78.578 202.942 80.625 203.724 83.362 203.839C85.961 203.954 91.366 203.885 94.195 203.701C93.988 204.069 93.712 204.851 93.643 205.334C91.021 205.449 86.007 205.495 83.385 205.403C80.326 205.288 78.233 204.46 76.784 202.643C75.795 203.632 74.76 204.621 73.656 205.656L72.759 204.023C73.748 203.264 74.967 202.229 76.025 201.217H77.497ZM73.15 186.106L74.484 185.232C75.841 186.336 77.382 187.923 78.026 189.073L76.577 190.062C75.979 188.912 74.484 187.256 73.15 186.106ZM79.199 194.409H93.16V195.743H79.199V194.409ZM78.463 197.951H93.873V199.308H78.463V197.951ZM82.603 192.753H84.259V198.618H82.603V192.753ZM88.031 192.753H89.664V198.618H88.031V192.753ZM79.774 188.291H83.822V186.796H78.9V185.6H85.34V189.51H79.774V188.291ZM79.291 188.291H80.763V190.683C80.763 191.12 80.878 191.212 81.614 191.212C81.936 191.212 83.684 191.212 84.121 191.212C84.673 191.212 84.788 191.074 84.857 190.062C85.133 190.292 85.708 190.476 86.122 190.545C85.961 192.04 85.524 192.431 84.351 192.431C83.983 192.431 81.798 192.431 81.453 192.431C79.751 192.431 79.291 192.086 79.291 190.706V188.291ZM87.364 188.291H91.343V186.796H86.444V185.6H92.838V189.51H87.364V188.291ZM86.858 188.291H88.33V190.683C88.33 191.12 88.468 191.212 89.25 191.212C89.618 191.212 91.504 191.212 91.964 191.212C92.539 191.212 92.654 191.074 92.723 189.993C93.022 190.2 93.597 190.384 94.011 190.476C93.85 192.04 93.413 192.431 92.171 192.431C91.803 192.431 89.457 192.431 89.089 192.431C87.341 192.431 86.858 192.086 86.858 190.683V188.291ZM87.617 200.343L88.859 199.584C90.538 200.389 92.424 201.516 93.528 202.367L91.826 203.126C90.906 202.275 89.204 201.171 87.617 200.343ZM83.408 199.538L84.926 200.067C83.753 201.194 81.89 202.321 80.349 203.057C80.096 202.758 79.452 202.206 79.084 201.976C80.648 201.355 82.373 200.481 83.408 199.538ZM105.465 186.014H107.19V193.857C107.19 197.537 106.73 202.62 103.602 205.863C103.326 205.518 102.636 204.92 102.268 204.69C105.189 201.677 105.465 197.284 105.465 193.857V186.014ZM111.583 194.616C112.457 199.009 114.32 202.781 117.494 204.391C117.08 204.736 116.551 205.426 116.275 205.886C112.848 203.931 110.939 199.906 109.95 194.915L111.583 194.616ZM106.155 186.014H116.229V195.283H106.155V193.65H114.504V187.647H106.155V186.014ZM96.058 189.372H104.315V191.005H96.058V189.372ZM99.508 184.703H101.164V203.747C101.164 204.782 100.888 205.265 100.267 205.518C99.623 205.817 98.611 205.84 96.84 205.84C96.771 205.403 96.541 204.69 96.311 204.253C97.553 204.299 98.657 204.276 99.002 204.253C99.347 204.23 99.508 204.138 99.508 203.77V184.703ZM95.759 196.824C97.921 196.387 101.21 195.605 104.315 194.846L104.476 196.433C101.578 197.169 98.496 197.951 96.196 198.503L95.759 196.824ZM132.421 185.784C132.375 186.06 132.306 186.957 132.306 187.233C132.237 188.728 132.283 193.167 132.306 195.007L130.558 194.11C130.558 193.098 130.535 188.521 130.466 187.256C130.42 186.635 130.351 185.991 130.305 185.784H132.421ZM120.185 189.004C123.313 188.958 129.063 188.751 132.605 188.751C135.411 188.751 138.263 188.751 139.344 188.774L139.321 190.476C138.033 190.407 135.963 190.361 132.582 190.361C128.626 190.361 123.704 190.522 120.231 190.775L120.185 189.004ZM132.26 195.674C132.26 198.756 130.834 200.297 128.741 200.297C126.809 200.297 124.946 198.94 124.946 196.433C124.946 194.156 126.832 192.454 129.017 192.454C131.685 192.454 133.042 194.432 133.042 197.077C133.042 200.205 131.524 203.655 126.188 205.242L124.647 203.747C128.833 202.758 131.271 200.711 131.271 196.916C131.271 194.846 130.259 193.972 129.017 193.972C127.798 193.972 126.671 194.915 126.671 196.41C126.671 197.859 127.752 198.687 129.017 198.687C130.443 198.687 131.363 197.491 130.995 195.03L132.26 195.674ZM146.474 187.072C146.98 187.118 147.624 187.141 148.084 187.141C149.303 187.141 154.754 186.98 155.973 186.865C156.663 186.796 156.985 186.75 157.238 186.658L158.296 188.015C157.882 188.291 157.422 188.59 156.985 188.935C155.858 189.809 152.73 192.5 150.936 193.972C151.994 193.627 153.098 193.512 154.133 193.512C157.951 193.512 160.688 195.789 160.688 198.894C160.688 202.597 157.629 205.012 152.753 205.012C149.625 205.012 147.716 203.655 147.716 201.723C147.716 200.159 149.142 198.733 151.258 198.733C154.317 198.733 155.858 200.895 156.019 203.218L154.363 203.494C154.225 201.539 153.098 200.136 151.258 200.136C150.2 200.136 149.395 200.78 149.395 201.585C149.395 202.712 150.66 203.379 152.477 203.379C156.387 203.379 158.848 201.769 158.848 198.894C158.848 196.617 156.686 194.938 153.673 194.938C149.855 194.938 147.785 196.548 144.887 199.515L143.553 198.181C145.462 196.617 148.429 194.133 149.74 193.006C151.028 191.948 153.926 189.533 155.076 188.498C153.857 188.567 149.257 188.751 148.061 188.82C147.532 188.866 147.026 188.889 146.52 188.958L146.474 187.072ZM182.699 190.292C182.193 190.591 181.618 190.913 180.928 191.258C179.387 192.063 176.19 193.581 173.936 195.053C171.797 196.456 170.509 197.974 170.509 199.699C170.509 201.608 172.349 202.804 175.983 202.804C178.467 202.804 181.549 202.482 183.343 202.022L183.32 204.092C181.595 204.391 178.927 204.644 176.052 204.644C171.728 204.644 168.6 203.356 168.6 199.906C168.6 197.422 170.279 195.467 172.993 193.673C175.339 192.109 178.559 190.568 180.054 189.717C180.721 189.326 181.227 189.027 181.71 188.636L182.699 190.292ZM171.061 186.106C172.119 189.05 173.545 191.925 174.603 193.788L173.039 194.731C171.866 192.845 170.486 189.74 169.244 186.888L171.061 186.106ZM190.251 204H187.572L193.591 187.273H196.507L202.527 204H199.848L195.119 190.311H194.988L190.251 204ZM190.7 197.45H199.39V199.573H190.7V197.45ZM207.466 187.273V204H204.942V187.273H207.466ZM211.141 204V187.273H217.104C218.4 187.273 219.475 187.496 220.33 187.942C221.19 188.389 221.833 189.007 222.258 189.797C222.682 190.581 222.895 191.487 222.895 192.516C222.895 193.54 222.68 194.441 222.249 195.22C221.825 195.993 221.182 196.595 220.322 197.025C219.467 197.455 218.392 197.67 217.096 197.67H212.579V195.498H216.867C217.684 195.498 218.348 195.38 218.86 195.146C219.377 194.912 219.756 194.572 219.995 194.125C220.235 193.679 220.354 193.143 220.354 192.516C220.354 191.885 220.232 191.337 219.987 190.875C219.747 190.412 219.369 190.058 218.852 189.813C218.34 189.562 217.667 189.437 216.834 189.437H213.665V204H211.141ZM219.399 196.453L223.532 204H220.657L216.606 196.453H219.399ZM235.171 194.517L232.957 194.909C232.865 194.626 232.718 194.357 232.516 194.101C232.32 193.845 232.053 193.635 231.716 193.472C231.378 193.309 230.956 193.227 230.45 193.227C229.758 193.227 229.181 193.382 228.718 193.692C228.255 193.997 228.024 194.392 228.024 194.877C228.024 195.296 228.179 195.634 228.489 195.89C228.8 196.145 229.301 196.355 229.992 196.518L231.985 196.976C233.14 197.243 234 197.654 234.566 198.209C235.132 198.765 235.416 199.486 235.416 200.374C235.416 201.125 235.198 201.795 234.762 202.383C234.332 202.965 233.73 203.423 232.957 203.755C232.189 204.087 231.299 204.253 230.286 204.253C228.881 204.253 227.735 203.954 226.848 203.355C225.96 202.75 225.416 201.893 225.214 200.782L227.575 200.423C227.722 201.038 228.024 201.503 228.481 201.819C228.939 202.13 229.535 202.285 230.27 202.285C231.07 202.285 231.71 202.119 232.189 201.787C232.669 201.449 232.908 201.038 232.908 200.553C232.908 200.161 232.761 199.832 232.467 199.565C232.178 199.298 231.735 199.097 231.136 198.961L229.012 198.495C227.841 198.228 226.976 197.804 226.415 197.221C225.859 196.638 225.582 195.9 225.582 195.007C225.582 194.267 225.789 193.619 226.203 193.064C226.616 192.508 227.188 192.075 227.918 191.765C228.647 191.449 229.483 191.291 230.425 191.291C231.781 191.291 232.848 191.585 233.627 192.173C234.406 192.756 234.92 193.537 235.171 194.517ZM240.543 196.551V204H238.101V187.273H240.51V193.496H240.665C240.959 192.821 241.409 192.285 242.013 191.887C242.617 191.49 243.407 191.291 244.382 191.291C245.242 191.291 245.993 191.468 246.636 191.822C247.284 192.176 247.785 192.704 248.139 193.407C248.498 194.104 248.678 194.975 248.678 196.02V204H246.236V196.314C246.236 195.394 245.999 194.681 245.525 194.174C245.051 193.663 244.392 193.407 243.548 193.407C242.971 193.407 242.454 193.529 241.997 193.774C241.545 194.019 241.188 194.379 240.927 194.852C240.671 195.321 240.543 195.887 240.543 196.551ZM251.937 204V191.455H254.379V204H251.937ZM253.17 189.519C252.745 189.519 252.38 189.377 252.075 189.094C251.776 188.806 251.626 188.462 251.626 188.065C251.626 187.662 251.776 187.319 252.075 187.036C252.38 186.747 252.745 186.603 253.17 186.603C253.595 186.603 253.957 186.747 254.256 187.036C254.561 187.319 254.714 187.662 254.714 188.065C254.714 188.462 254.561 188.806 254.256 189.094C253.957 189.377 253.595 189.519 253.17 189.519ZM257.664 208.705V191.455H260.049V193.488H260.253C260.395 193.227 260.599 192.925 260.866 192.582C261.133 192.239 261.503 191.939 261.977 191.683C262.45 191.422 263.077 191.291 263.855 191.291C264.868 191.291 265.772 191.547 266.567 192.059C267.362 192.571 267.985 193.309 268.437 194.272C268.895 195.236 269.123 196.396 269.123 197.752C269.123 199.108 268.897 200.27 268.445 201.239C267.993 202.203 267.373 202.946 266.583 203.469C265.794 203.986 264.892 204.245 263.88 204.245C263.117 204.245 262.494 204.117 262.009 203.861C261.53 203.605 261.154 203.306 260.882 202.963C260.61 202.62 260.4 202.315 260.253 202.048H260.106V208.705H257.664ZM260.057 197.727C260.057 198.609 260.185 199.383 260.441 200.047C260.697 200.711 261.067 201.231 261.552 201.607C262.037 201.977 262.63 202.162 263.332 202.162C264.062 202.162 264.672 201.969 265.162 201.582C265.652 201.19 266.022 200.659 266.273 199.99C266.529 199.32 266.657 198.566 266.657 197.727C266.657 196.9 266.531 196.156 266.281 195.498C266.036 194.839 265.666 194.319 265.17 193.938C264.68 193.556 264.068 193.366 263.332 193.366C262.625 193.366 262.026 193.548 261.536 193.913C261.051 194.278 260.683 194.787 260.433 195.44C260.182 196.094 260.057 196.856 260.057 197.727ZM283.167 188.314C282.868 190.706 282.408 193.397 281.695 195.858C280.292 200.573 278.452 203.011 276.336 203.011C274.266 203.011 272.219 200.665 272.219 196.847C272.219 191.856 276.658 187.509 282.293 187.509C287.675 187.509 291.102 191.304 291.102 195.973C291.102 200.78 287.928 204 282.454 204.713L281.396 203.011C282.132 202.942 282.822 202.85 283.374 202.735C286.318 202.068 289.216 199.86 289.216 195.881C289.216 192.201 286.663 189.165 282.247 189.165C277.187 189.165 274.036 193.328 274.036 196.709C274.036 199.607 275.347 200.895 276.382 200.895C277.463 200.895 278.705 199.331 279.878 195.444C280.545 193.259 281.028 190.66 281.258 188.268L283.167 188.314ZM57.372 231.333H68.481V232.92H57.372V231.333ZM56.59 215.003H65.031V216.544H56.59V215.003ZM57.625 212.611L59.557 213.002C57.832 215.992 55.072 219.12 51.07 221.489C50.817 221.052 50.242 220.454 49.851 220.155C53.646 218.085 56.291 215.118 57.625 212.611ZM64.456 215.003H64.778L65.1 214.911L66.25 215.532C63.49 222.478 57.004 227.101 50.748 229.125C50.541 228.665 50.104 227.952 49.736 227.584C55.693 225.859 62.064 221.351 64.456 215.302V215.003ZM53.715 219.097L55.003 217.993C56.82 219.235 59.028 221.075 60.086 222.386L58.683 223.628C57.717 222.317 55.532 220.385 53.715 219.097ZM67.63 224.065H69.401V233.886H67.63V224.065ZM58.154 224.065H68.504V225.652H58.154V233.84H56.429V225.422L57.809 224.065H58.154ZM73.173 215.486H85.133V217.05H73.173V215.486ZM78.394 212.818H79.981V233.817H78.394V212.818ZM83.063 219.189H84.604V223.881C84.604 224.594 84.466 224.985 83.96 225.215C83.431 225.468 82.626 225.468 81.292 225.468C81.223 225.077 81.016 224.502 80.832 224.111C81.752 224.134 82.511 224.134 82.764 224.111C83.017 224.111 83.063 224.065 83.063 223.835V219.189ZM78.509 223.812L79.682 224.387C78.325 227.446 75.91 230.735 73.495 232.414C73.334 231.954 72.943 231.264 72.644 230.873C74.921 229.424 77.336 226.549 78.509 223.812ZM79.728 225.652C80.694 226.204 84.029 228.504 84.857 229.102L83.937 230.597C82.856 229.631 79.981 227.4 78.808 226.595L79.728 225.652ZM73.909 219.189H83.684V220.707H75.45V225.468H73.909V219.189ZM86.444 215.279H88.1V228.044H86.444V215.279ZM91.412 213.117H93.091V231.609C93.091 232.736 92.792 233.242 92.125 233.518C91.389 233.817 90.216 233.863 88.284 233.84C88.192 233.38 87.939 232.621 87.686 232.115C89.135 232.184 90.446 232.161 90.86 232.138C91.251 232.138 91.412 232 91.412 231.609V213.117ZM104.752 214.152C104.66 214.566 104.568 215.072 104.476 215.509C104.315 216.337 104.016 218.223 103.694 219.649C102.912 222.892 101.279 228.619 98.68 232.805L96.794 232.069C99.416 228.55 101.256 222.409 101.877 219.603C102.314 217.763 102.613 215.693 102.613 213.922L104.752 214.152ZM112.664 216.797C114.09 218.66 116.091 222.846 116.873 224.962L115.079 225.813C114.412 223.467 112.595 219.465 110.985 217.556L112.664 216.797ZM96.472 219.189C97.185 219.235 97.783 219.212 98.519 219.189C100.244 219.143 104.913 218.637 106.477 218.637C108.524 218.637 110.203 219.419 110.203 222.524C110.203 225.261 109.835 228.918 108.869 230.827C108.156 232.368 107.006 232.759 105.511 232.759C104.637 232.759 103.533 232.598 102.82 232.414L102.498 230.505C103.464 230.804 104.683 230.965 105.327 230.965C106.178 230.965 106.868 230.781 107.328 229.792C108.064 228.228 108.432 225.238 108.432 222.754C108.432 220.638 107.466 220.247 105.994 220.247C104.453 220.247 100.129 220.776 98.726 220.914C98.197 220.983 97.254 221.098 96.656 221.19L96.472 219.189ZM112.917 213.462C113.492 214.29 114.32 215.693 114.803 216.636L113.561 217.188C113.101 216.245 112.319 214.865 111.675 213.991L112.917 213.462ZM115.447 212.542C116.068 213.393 116.942 214.842 117.402 215.693L116.137 216.245C115.654 215.233 114.895 213.922 114.228 213.071L115.447 212.542ZM123.221 219.373H135.733V220.937H123.221V219.373ZM119.288 223.605H139.689V225.238H119.288V223.605ZM125.337 224.732H127.177C126.694 229.217 125.406 232.322 119.794 233.886C119.61 233.449 119.15 232.759 118.782 232.414C123.957 231.126 124.946 228.481 125.337 224.732ZM131.156 224.594H132.881V231.057C132.881 231.747 133.042 231.862 134.008 231.862C134.468 231.862 136.653 231.862 137.251 231.862C138.125 231.862 138.286 231.448 138.355 228.803C138.723 229.079 139.459 229.355 139.919 229.493C139.735 232.644 139.229 233.449 137.389 233.449C136.929 233.449 134.284 233.449 133.824 233.449C131.708 233.449 131.156 232.92 131.156 231.08V224.594ZM128.534 212.703H130.351V216.36H128.534V212.703ZM119.817 215.164H139.16V220.04H137.343V216.797H121.565V220.04H119.817V215.164ZM144.91 221.305H150.637V222.915H144.91V221.305ZM149.947 221.305H151.626C151.626 221.305 151.626 221.811 151.626 222.041C151.511 227.239 151.373 229.171 150.89 229.815C150.522 230.229 150.154 230.39 149.51 230.459C148.912 230.528 147.877 230.505 146.75 230.459C146.704 229.953 146.52 229.286 146.267 228.849C147.302 228.941 148.314 228.941 148.705 228.941C149.027 228.941 149.257 228.918 149.418 228.711C149.763 228.297 149.878 226.572 149.947 221.604V221.305ZM156.433 213.853L157.468 212.772C158.894 213.508 160.711 214.612 161.608 215.417L160.527 216.59C159.653 215.785 157.882 214.612 156.433 213.853ZM159.722 220.086L161.447 220.5C159.492 226.503 156.065 230.942 151.35 233.725C151.097 233.38 150.453 232.667 150.085 232.322C154.754 229.838 157.997 225.629 159.722 220.086ZM145.048 216.59H162.85V218.292H145.048V216.59ZM143.944 216.59H145.738V223.076C145.738 226.342 145.37 230.988 143.277 234.001C142.978 233.656 142.242 233.058 141.828 232.851C143.737 230.022 143.944 226.066 143.944 223.053V216.59ZM153.489 212.726H155.283C155.237 223.306 157.491 231.931 160.481 231.931C161.125 231.931 161.424 230.735 161.562 227.676C161.953 228.067 162.597 228.458 163.057 228.619C162.735 232.552 162.091 233.679 160.343 233.679C155.651 233.679 153.581 223.743 153.489 212.726ZM171.82 214.083C171.705 214.842 171.636 215.647 171.59 216.406C171.498 219.005 171.314 224.456 171.314 227.883C171.314 230.413 172.901 231.287 175.086 231.287C179.295 231.287 181.687 228.941 183.343 226.549L184.631 228.113C183.067 230.298 180.077 233.173 175.04 233.173C171.728 233.173 169.451 231.816 169.451 228.044C169.451 224.64 169.681 218.821 169.681 216.406C169.681 215.555 169.612 214.75 169.474 214.083H171.82ZM200.156 213.761C200.11 214.152 200.064 214.612 200.041 215.302C199.995 216.222 199.995 219.304 199.995 221.236C199.995 224.272 200.34 228.297 200.34 229.838C200.34 231.448 199.282 233.081 196.292 233.081C192.98 233.081 191.163 231.908 191.163 229.677C191.163 227.584 193.164 226.181 196.476 226.181C201.329 226.181 205.124 228.803 206.895 230.252L205.837 231.885C203.767 229.976 200.363 227.676 196.269 227.676C194.061 227.676 192.888 228.527 192.888 229.585C192.888 230.666 193.785 231.448 196.062 231.448C197.396 231.448 198.523 231.057 198.523 229.447C198.523 227.676 198.293 223.26 198.293 221.236C198.293 219.166 198.293 216.751 198.293 215.141C198.293 214.75 198.27 214.06 198.201 213.761H200.156ZM191.37 216.245C192.842 216.521 195.717 216.751 197.235 216.751C200.156 216.751 203.238 216.544 206.228 216.061V217.74C203.629 218.039 200.34 218.338 197.258 218.338C195.671 218.338 192.842 218.131 191.393 217.947L191.37 216.245ZM191.255 221.144C192.888 221.397 195.51 221.558 197.028 221.558C200.363 221.558 203.422 221.328 206.412 220.891V222.616C203.284 223.007 200.478 223.168 197.028 223.168C195.441 223.168 192.911 223.053 191.278 222.869L191.255 221.144ZM224.421 213.784C224.375 214.06 224.306 214.957 224.306 215.233C224.237 216.728 224.283 221.167 224.306 223.007L222.558 222.11C222.558 221.098 222.535 216.521 222.466 215.256C222.42 214.635 222.351 213.991 222.305 213.784H224.421ZM212.185 217.004C215.313 216.958 221.063 216.751 224.605 216.751C227.411 216.751 230.263 216.751 231.344 216.774L231.321 218.476C230.033 218.407 227.963 218.361 224.582 218.361C220.626 218.361 215.704 218.522 212.231 218.775L212.185 217.004ZM224.26 223.674C224.26 226.756 222.834 228.297 220.741 228.297C218.809 228.297 216.946 226.94 216.946 224.433C216.946 222.156 218.832 220.454 221.017 220.454C223.685 220.454 225.042 222.432 225.042 225.077C225.042 228.205 223.524 231.655 218.188 233.242L216.647 231.747C220.833 230.758 223.271 228.711 223.271 224.916C223.271 222.846 222.259 221.972 221.017 221.972C219.798 221.972 218.671 222.915 218.671 224.41C218.671 225.859 219.752 226.687 221.017 226.687C222.443 226.687 223.363 225.491 222.995 223.03L224.26 223.674ZM235.171 226.411C237.103 226.411 238.667 227.975 238.667 229.907C238.667 231.839 237.103 233.403 235.171 233.403C233.239 233.403 231.652 231.839 231.652 229.907C231.652 227.975 233.239 226.411 235.171 226.411ZM235.171 232.23C236.459 232.23 237.494 231.195 237.494 229.907C237.494 228.619 236.459 227.584 235.171 227.584C233.883 227.584 232.825 228.619 232.825 229.907C232.825 231.195 233.883 232.23 235.171 232.23Z" fill="#717171"/>
<path d="M58.9119 39.6925L54.8956 39.9396C54.8269 39.5964 54.6793 39.2874 54.4528 39.0128C54.2262 38.7313 53.9276 38.5082 53.5568 38.3434C53.1929 38.1718 52.757 38.0859 52.2489 38.0859C51.5692 38.0859 50.996 38.2301 50.5291 38.5185C50.0623 38.8 49.8288 39.1776 49.8288 39.6513C49.8288 40.0289 49.9799 40.3481 50.282 40.609C50.584 40.8699 51.1024 41.0793 51.837 41.2372L54.6999 41.8139C56.2378 42.1297 57.3844 42.6378 58.1396 43.3381C58.8948 44.0384 59.2724 44.9583 59.2724 46.098C59.2724 47.1347 58.9669 48.0444 58.3558 48.8271C57.7517 49.6097 56.9209 50.2208 55.8636 50.6602C54.8132 51.0927 53.6014 51.3089 52.2283 51.3089C50.1344 51.3089 48.466 50.873 47.2234 50.0011C45.9876 49.1223 45.2633 47.9277 45.0504 46.4173L49.3654 46.1907C49.4959 46.8292 49.8117 47.3166 50.3129 47.6531C50.814 47.9826 51.456 48.1474 52.2386 48.1474C53.0076 48.1474 53.6255 47.9998 54.0923 47.7045C54.5661 47.4025 54.8063 47.0146 54.8132 46.5408C54.8063 46.1426 54.6381 45.8165 54.3086 45.5625C53.979 45.3016 53.471 45.1025 52.7844 44.9652L50.0451 44.4194C48.5004 44.1104 47.3504 43.5749 46.5952 42.8129C45.8468 42.0508 45.4727 41.0793 45.4727 39.8984C45.4727 38.8823 45.7473 38.007 46.2965 37.2724C46.8526 36.5378 47.6319 35.9714 48.6342 35.5732C49.6435 35.175 50.8243 34.9759 52.1768 34.9759C54.1747 34.9759 55.7469 35.3981 56.8935 36.2425C58.0469 37.087 58.7197 38.237 58.9119 39.6925ZM70.4486 35.1818V38.4773H60.9227V35.1818H70.4486ZM63.0853 31.392H67.4724V46.1392C67.4724 46.5443 67.5342 46.8601 67.6578 47.0866C67.7813 47.3063 67.953 47.4608 68.1727 47.5501C68.3992 47.6393 68.6601 47.6839 68.9553 47.6839C69.1613 47.6839 69.3673 47.6668 69.5732 47.6325C69.7792 47.5913 69.9371 47.5604 70.047 47.5398L70.7369 50.8043C70.5173 50.873 70.2083 50.9519 69.8101 51.0412C69.4119 51.1373 68.9279 51.1957 68.358 51.2163C67.3008 51.2575 66.3739 51.1167 65.5775 50.794C64.788 50.4714 64.1735 49.9702 63.7341 49.2905C63.2947 48.6108 63.0785 47.7526 63.0853 46.7159V31.392ZM80.3453 51.3089C78.7181 51.3089 77.3176 50.9794 76.1436 50.3203C74.9764 49.6544 74.077 48.7138 73.4454 47.4986C72.8138 46.2765 72.498 44.8313 72.498 43.163C72.498 41.5359 72.8138 40.1078 73.4454 38.8789C74.077 37.65 74.9661 36.6922 76.1127 36.0057C77.2661 35.3191 78.6186 34.9759 80.1702 34.9759C81.2137 34.9759 82.1852 35.1441 83.0846 35.4805C83.9909 35.81 84.7804 36.3078 85.4532 36.9737C86.1329 37.6397 86.6615 38.4773 87.0392 39.4865C87.4168 40.4889 87.6056 41.6629 87.6056 43.0085V44.2134H74.2487V41.4947H83.4759C83.4759 40.863 83.3386 40.3035 83.064 39.8161C82.7894 39.3286 82.4084 38.9476 81.9209 38.6729C81.4403 38.3915 80.8808 38.2507 80.2423 38.2507C79.5763 38.2507 78.9859 38.4052 78.471 38.7141C77.9629 39.0162 77.5647 39.4247 77.2764 39.9396C76.988 40.4477 76.8404 41.0141 76.8335 41.6388V44.2237C76.8335 45.0064 76.9777 45.6826 77.2661 46.2525C77.5613 46.8223 77.9767 47.2617 78.5122 47.5707C79.0477 47.8796 79.6827 48.0341 80.4173 48.0341C80.9048 48.0341 81.3511 47.9654 81.7561 47.8281C82.1612 47.6908 82.5079 47.4848 82.7963 47.2102C83.0846 46.9356 83.3043 46.5992 83.4553 46.201L87.5129 46.4688C87.3069 47.4437 86.8847 48.295 86.2462 49.0227C85.6146 49.7436 84.7976 50.3066 83.7952 50.7116C82.7997 51.1098 81.6497 51.3089 80.3453 51.3089ZM90.4685 56.9318V35.1818H94.7938V37.8388H94.9894C95.1817 37.4131 95.4597 36.9806 95.8236 36.5412C96.1943 36.0949 96.6749 35.7242 97.2654 35.429C97.8627 35.1269 98.6041 34.9759 99.4898 34.9759C100.643 34.9759 101.707 35.2779 102.682 35.8821C103.657 36.4794 104.436 37.3822 105.02 38.5906C105.604 39.792 105.895 41.299 105.895 43.1115C105.895 44.8759 105.61 46.3658 105.041 47.581C104.478 48.7893 103.709 49.7058 102.734 50.3306C101.766 50.9485 100.681 51.2575 99.4795 51.2575C98.6282 51.2575 97.9039 51.1167 97.3066 50.8352C96.7161 50.5537 96.2321 50.2002 95.8545 49.7745C95.4769 49.342 95.1885 48.906 94.9894 48.4666H94.8556V56.9318H90.4685ZM94.7629 43.0909C94.7629 44.0315 94.8933 44.8519 95.1542 45.5522C95.4151 46.2525 95.7927 46.7983 96.287 47.1896C96.7813 47.5741 97.3821 47.7663 98.0892 47.7663C98.8032 47.7663 99.4074 47.5707 99.9017 47.1793C100.396 46.7811 100.77 46.2319 101.024 45.5316C101.285 44.8245 101.416 44.0109 101.416 43.0909C101.416 42.1778 101.289 41.3745 101.035 40.6811C100.781 39.9877 100.406 39.4453 99.912 39.054C99.4177 38.6626 98.8101 38.467 98.0892 38.467C97.3752 38.467 96.771 38.6558 96.2767 39.0334C95.7893 39.411 95.4151 39.9465 95.1542 40.6399C94.8933 41.3333 94.7629 42.1503 94.7629 43.0909ZM116.575 51.2884C115.037 51.2884 113.667 51.024 112.466 50.4954C111.271 49.9599 110.327 49.2253 109.634 48.2915C108.947 47.351 108.593 46.2662 108.573 45.0373H113.063C113.09 45.5522 113.259 46.0053 113.568 46.3967C113.883 46.7811 114.302 47.0798 114.824 47.2926C115.346 47.5054 115.933 47.6119 116.585 47.6119C117.265 47.6119 117.865 47.4917 118.387 47.2514C118.909 47.0111 119.317 46.6781 119.613 46.2525C119.908 45.8268 120.055 45.3359 120.055 44.7798C120.055 44.2169 119.898 43.7191 119.582 43.2866C119.273 42.8472 118.827 42.5039 118.243 42.2567C117.666 42.0096 116.98 41.886 116.183 41.886H114.216V38.6112H116.183C116.856 38.6112 117.45 38.4944 117.965 38.261C118.487 38.0276 118.892 37.7049 119.18 37.293C119.468 36.8742 119.613 36.3867 119.613 35.8306C119.613 35.302 119.486 34.8385 119.232 34.4403C118.984 34.0353 118.634 33.7195 118.181 33.4929C117.735 33.2663 117.213 33.1531 116.616 33.1531C116.012 33.1531 115.459 33.2629 114.958 33.4826C114.457 33.6954 114.055 34.0009 113.753 34.3991C113.451 34.7973 113.29 35.2642 113.269 35.7997H108.995C109.016 34.5845 109.362 33.5135 110.035 32.5866C110.708 31.6598 111.614 30.9355 112.754 30.4137C113.901 29.8851 115.195 29.6207 116.636 29.6207C118.092 29.6207 119.366 29.8851 120.457 30.4137C121.549 30.9424 122.397 31.6564 123.001 32.5558C123.612 33.4483 123.914 34.4506 123.907 35.5629C123.914 36.7437 123.547 37.7289 122.805 38.5185C122.071 39.308 121.113 39.8092 119.932 40.022V40.1868C121.484 40.3859 122.664 40.9248 123.475 41.8036C124.292 42.6755 124.697 43.7672 124.69 45.0785C124.697 46.2799 124.35 47.3475 123.65 48.2812C122.956 49.215 121.998 49.9496 120.776 50.4851C119.554 51.0206 118.154 51.2884 116.575 51.2884Z" fill="#3270E3"/>
</svg>
