<svg width="568" height="291" viewBox="0 0 568 291" fill="none" xmlns="http://www.w3.org/2000/svg">
<rect x="0.25" y="0.25" width="567.5" height="290.5" rx="38.75" stroke="black" stroke-width="0.5"/>
<path d="M547.474 92.8233H364.635C363.407 92.8252 362.229 93.318 361.36 94.1937C360.491 95.0695 360.002 96.2567 360 97.4952V215.85C360.002 217.089 360.491 218.276 361.36 219.152C362.229 220.027 363.407 220.52 364.635 220.522H547.474C548.703 220.52 549.881 220.027 550.75 219.152C551.619 218.276 552.108 217.089 552.11 215.85V97.4952C552.108 96.2567 551.619 95.0695 550.75 94.1937C549.881 93.318 548.703 92.8252 547.474 92.8233ZM551.08 215.85C551.079 216.813 550.699 217.737 550.023 218.418C549.347 219.1 548.43 219.483 547.474 219.484H364.635C363.68 219.483 362.763 219.1 362.087 218.418C361.411 217.737 361.031 216.813 361.03 215.85V97.4952C361.031 96.5318 361.411 95.6082 362.087 94.927C362.763 94.2458 363.68 93.8626 364.635 93.8615H547.474C548.43 93.8626 549.347 94.2458 550.023 94.927C550.699 95.6082 551.079 96.5318 551.08 97.4952V215.85Z" fill="#535353"/>
<path d="M406.831 145.397H377.989C376.829 145.396 375.716 144.931 374.895 144.103C374.074 143.276 373.613 142.155 373.611 140.985V111.915C373.613 110.746 374.074 109.624 374.895 108.797C375.716 107.97 376.829 107.504 377.989 107.503H406.831C407.992 107.504 409.105 107.97 409.925 108.797C410.746 109.624 411.208 110.746 411.209 111.915V140.985C411.208 142.155 410.746 143.276 409.925 144.103C409.105 144.931 407.992 145.396 406.831 145.397Z" fill="#4586B2"/>
<path d="M452.975 143.952H428.768C427.88 143.952 427.028 143.597 426.4 142.964C425.773 142.331 425.42 141.473 425.42 140.578C425.42 139.683 425.773 138.825 426.4 138.192C427.028 137.559 427.88 137.204 428.768 137.204H452.975C453.862 137.204 454.714 137.559 455.342 138.192C455.97 138.825 456.322 139.683 456.322 140.578C456.322 141.473 455.97 142.331 455.342 142.964C454.714 143.597 453.862 143.952 452.975 143.952Z" fill="#4586B2"/>
<path d="M533.836 127.346H428.768C427.88 127.346 427.028 126.991 426.4 126.358C425.773 125.725 425.42 124.867 425.42 123.972C425.42 123.077 425.773 122.219 426.4 121.586C427.028 120.953 427.88 120.598 428.768 120.598H533.836C534.724 120.598 535.575 120.953 536.203 121.586C536.831 122.219 537.184 123.077 537.184 123.972C537.184 124.867 536.831 125.725 536.203 126.358C535.575 126.991 534.724 127.346 533.836 127.346Z" fill="#4586B2"/>
<path d="M410.127 201.972L409.961 161.47C409.96 161.127 410.163 160.798 410.527 160.555C410.89 160.311 411.384 160.173 411.899 160.171C412.414 160.169 412.909 160.303 413.274 160.543C413.64 160.784 413.846 161.111 413.847 161.454L414.013 201.956C414.014 202.298 413.811 202.627 413.448 202.871C413.084 203.114 412.591 203.252 412.075 203.255C411.56 203.257 411.065 203.123 410.7 202.882C410.335 202.642 410.129 202.314 410.127 201.972Z" fill="#4586B2"/>
<path d="M403.294 199.739L403.15 164.691C403.149 164.395 403.352 164.11 403.716 163.899C404.079 163.688 404.573 163.568 405.088 163.566C405.604 163.564 406.098 163.68 406.464 163.888C406.829 164.096 407.035 164.379 407.036 164.675L407.179 199.723C407.181 200.019 406.977 200.304 406.614 200.515C406.25 200.726 405.756 200.846 405.241 200.848C404.726 200.85 404.231 200.734 403.866 200.526C403.501 200.318 403.295 200.035 403.294 199.739Z" fill="#4586B2"/>
<path d="M396.466 197.266L396.339 166.265C396.338 166.003 396.542 165.751 396.905 165.564C397.269 165.378 397.763 165.272 398.278 165.27C398.793 165.267 399.288 165.369 399.653 165.553C400.018 165.737 400.224 165.987 400.225 166.249L400.352 197.25C400.353 197.512 400.149 197.764 399.785 197.951C399.422 198.137 398.928 198.243 398.413 198.246C397.898 198.248 397.403 198.146 397.038 197.962C396.673 197.778 396.467 197.528 396.466 197.266Z" fill="#4586B2"/>
<path d="M389.619 192.326L389.525 169.415C389.525 169.221 389.729 169.035 390.092 168.896C390.456 168.758 390.95 168.679 391.465 168.677C391.981 168.675 392.475 168.749 392.84 168.885C393.205 169.02 393.41 169.205 393.411 169.399L393.505 192.31C393.506 192.503 393.302 192.69 392.938 192.828C392.574 192.967 392.08 193.046 391.565 193.048C391.05 193.05 390.555 192.975 390.19 192.839C389.825 192.704 389.62 192.519 389.619 192.326Z" fill="#4586B2"/>
<path d="M382.793 190.728L382.712 171.016C382.712 170.849 382.916 170.689 383.28 170.569C383.644 170.45 384.138 170.382 384.653 170.38C385.168 170.378 385.663 170.442 386.027 170.558C386.392 170.674 386.598 170.833 386.598 171L386.679 190.712C386.68 190.879 386.476 191.04 386.112 191.159C385.748 191.278 385.254 191.346 384.739 191.348C384.223 191.351 383.729 191.286 383.364 191.17C382.999 191.054 382.794 190.895 382.793 190.728Z" fill="#4586B2"/>
<path d="M376.02 194.31L375.905 166.174C375.904 165.936 376.108 165.707 376.471 165.538C376.835 165.368 377.329 165.272 377.844 165.27C378.359 165.267 378.854 165.36 379.219 165.527C379.584 165.693 379.79 165.92 379.791 166.158L379.906 194.294C379.907 194.532 379.703 194.761 379.34 194.931C378.976 195.1 378.482 195.197 377.967 195.199C377.451 195.201 376.957 195.109 376.592 194.942C376.227 194.775 376.021 194.548 376.02 194.31Z" fill="#4586B2"/>
<path d="M369.26 201.96L369.094 161.458C369.093 161.115 369.296 160.786 369.659 160.543C370.023 160.299 370.516 160.161 371.032 160.159C371.547 160.157 372.042 160.291 372.407 160.532C372.772 160.772 372.978 161.099 372.98 161.442L373.146 201.944C373.147 202.287 372.944 202.616 372.58 202.859C372.217 203.103 371.723 203.241 371.208 203.243C370.693 203.245 370.198 203.111 369.833 202.87C369.467 202.63 369.261 202.302 369.26 201.96Z" fill="#4586B2"/>
<path d="M362.397 194.31L362.282 166.174C362.281 165.936 362.485 165.707 362.848 165.538C363.212 165.368 363.706 165.272 364.221 165.27C364.736 165.267 365.231 165.36 365.596 165.527C365.961 165.693 366.167 165.92 366.168 166.158L366.283 194.294C366.284 194.532 366.08 194.761 365.716 194.931C365.353 195.1 364.859 195.197 364.344 195.199C363.828 195.201 363.334 195.109 362.969 194.942C362.604 194.775 362.398 194.548 362.397 194.31Z" fill="#4586B2"/>
<path d="M505.485 201.972L505.319 161.47C505.317 161.127 505.521 160.798 505.884 160.555C506.247 160.311 506.741 160.173 507.256 160.171C507.772 160.169 508.266 160.303 508.632 160.543C508.997 160.784 509.203 161.111 509.205 161.454L509.37 201.956C509.372 202.298 509.168 202.627 508.805 202.871C508.442 203.114 507.948 203.252 507.433 203.255C506.917 203.257 506.423 203.123 506.057 202.882C505.692 202.642 505.486 202.314 505.485 201.972Z" fill="#4586B2"/>
<path d="M498.651 199.739L498.507 164.691C498.506 164.395 498.71 164.11 499.073 163.899C499.437 163.688 499.93 163.568 500.446 163.566C500.961 163.564 501.456 163.68 501.821 163.888C502.186 164.096 502.392 164.379 502.393 164.675L502.537 199.723C502.538 200.019 502.334 200.304 501.971 200.515C501.607 200.726 501.114 200.846 500.598 200.848C500.083 200.85 499.588 200.734 499.223 200.526C498.858 200.318 498.652 200.035 498.651 199.739Z" fill="#4586B2"/>
<path d="M491.821 197.266L491.694 166.265C491.693 166.003 491.897 165.751 492.261 165.564C492.624 165.378 493.118 165.272 493.633 165.27C494.149 165.267 494.643 165.369 495.008 165.553C495.373 165.737 495.579 165.987 495.58 166.249L495.707 197.25C495.708 197.512 495.505 197.764 495.141 197.951C494.777 198.137 494.284 198.243 493.768 198.246C493.253 198.248 492.758 198.146 492.393 197.962C492.028 197.778 491.822 197.528 491.821 197.266Z" fill="#4586B2"/>
<path d="M484.977 192.326L484.883 169.415C484.882 169.221 485.086 169.035 485.45 168.896C485.814 168.758 486.307 168.679 486.823 168.677C487.338 168.675 487.833 168.749 488.197 168.885C488.562 169.02 488.768 169.205 488.769 169.399L488.862 192.31C488.863 192.503 488.659 192.69 488.295 192.828C487.932 192.967 487.438 193.046 486.923 193.048C486.407 193.05 485.913 192.975 485.548 192.839C485.183 192.704 484.977 192.519 484.977 192.326Z" fill="#4586B2"/>
<path d="M478.153 190.728L478.072 171.016C478.071 170.849 478.275 170.689 478.639 170.569C479.003 170.45 479.497 170.382 480.012 170.38C480.527 170.378 481.022 170.442 481.387 170.558C481.752 170.674 481.957 170.833 481.958 171L482.038 190.712C482.039 190.879 481.835 191.04 481.471 191.159C481.107 191.278 480.613 191.346 480.098 191.348C479.583 191.351 479.088 191.286 478.723 191.17C478.359 191.054 478.153 190.895 478.153 190.728Z" fill="#4586B2"/>
<path d="M471.376 194.31L471.26 166.174C471.259 165.936 471.463 165.707 471.827 165.538C472.191 165.368 472.684 165.272 473.2 165.27C473.715 165.267 474.21 165.36 474.575 165.527C474.94 165.693 475.145 165.92 475.146 166.158L475.261 194.294C475.262 194.532 475.059 194.761 474.695 194.931C474.331 195.1 473.838 195.197 473.322 195.199C472.807 195.201 472.312 195.109 471.947 194.942C471.582 194.775 471.377 194.548 471.376 194.31Z" fill="#4586B2"/>
<path d="M464.617 201.96L464.452 161.458C464.45 161.115 464.653 160.786 465.017 160.543C465.38 160.299 465.874 160.161 466.389 160.159C466.904 160.157 467.399 160.291 467.765 160.532C468.13 160.772 468.336 161.099 468.337 161.442L468.503 201.944C468.505 202.287 468.301 202.616 467.938 202.859C467.574 203.103 467.081 203.241 466.566 203.243C466.05 203.245 465.556 203.111 465.19 202.87C464.825 202.63 464.619 202.302 464.617 201.96Z" fill="#4586B2"/>
<path d="M450.996 200.257L450.83 159.754C450.829 159.412 451.032 159.083 451.396 158.839C451.759 158.596 452.253 158.458 452.768 158.456C453.283 158.454 453.778 158.588 454.143 158.828C454.509 159.069 454.715 159.396 454.716 159.738L454.882 200.241C454.883 200.583 454.68 200.912 454.317 201.156C453.953 201.399 453.46 201.537 452.944 201.539C452.429 201.541 451.934 201.407 451.569 201.167C451.204 200.926 450.998 200.599 450.996 200.257Z" fill="#4586B2"/>
<path d="M416.893 196.05L416.77 166.228C416.769 165.976 416.973 165.733 417.337 165.554C417.7 165.374 418.194 165.272 418.709 165.27C419.225 165.267 419.719 165.366 420.084 165.542C420.45 165.719 420.655 165.96 420.656 166.212L420.778 196.034C420.779 196.286 420.576 196.529 420.212 196.709C419.848 196.888 419.355 196.991 418.839 196.993C418.324 196.995 417.829 196.897 417.464 196.72C417.099 196.543 416.894 196.302 416.893 196.05Z" fill="#4586B2"/>
<path d="M423.655 191.038L423.579 172.677C423.579 172.521 423.783 172.372 424.147 172.261C424.511 172.149 425.005 172.086 425.52 172.084C426.035 172.081 426.53 172.141 426.895 172.249C427.259 172.357 427.465 172.505 427.465 172.661L427.54 191.022C427.541 191.177 427.337 191.326 426.973 191.438C426.609 191.549 426.115 191.612 425.6 191.615C425.085 191.617 424.59 191.557 424.225 191.449C423.861 191.341 423.655 191.193 423.655 191.038Z" fill="#4586B2"/>
<path d="M430.54 200.295L430.394 164.708C430.393 164.407 430.597 164.118 430.96 163.904C431.324 163.69 431.817 163.568 432.332 163.566C432.848 163.564 433.342 163.682 433.708 163.893C434.073 164.104 434.279 164.392 434.28 164.692L434.426 200.279C434.427 200.579 434.223 200.869 433.86 201.083C433.496 201.297 433.003 201.418 432.488 201.421C431.972 201.423 431.478 201.305 431.112 201.094C430.747 200.883 430.541 200.595 430.54 200.295Z" fill="#4586B2"/>
<path d="M437.373 201.96L437.207 161.458C437.206 161.115 437.409 160.786 437.773 160.543C438.136 160.299 438.63 160.161 439.145 160.159C439.66 160.157 440.155 160.291 440.52 160.532C440.886 160.772 441.092 161.099 441.093 161.442L441.259 201.944C441.26 202.287 441.057 202.616 440.694 202.859C440.33 203.103 439.837 203.241 439.321 203.243C438.806 203.245 438.311 203.111 437.946 202.87C437.581 202.63 437.375 202.302 437.373 201.96Z" fill="#4586B2"/>
<path d="M444.123 195.73L444.016 169.52C444.015 169.298 444.219 169.085 444.583 168.927C444.946 168.769 445.44 168.679 445.956 168.677C446.471 168.675 446.965 168.761 447.33 168.916C447.695 169.071 447.901 169.282 447.902 169.504L448.009 195.714C448.01 195.936 447.806 196.149 447.443 196.307C447.079 196.465 446.585 196.555 446.07 196.558C445.554 196.56 445.06 196.474 444.695 196.319C444.33 196.163 444.124 195.952 444.123 195.73Z" fill="#4586B2"/>
<path d="M457.743 195.73L457.635 169.52C457.634 169.298 457.838 169.085 458.202 168.927C458.566 168.769 459.059 168.679 459.575 168.677C460.09 168.675 460.585 168.761 460.95 168.916C461.315 169.071 461.52 169.282 461.521 169.504L461.628 195.714C461.629 195.936 461.425 196.149 461.062 196.307C460.698 196.465 460.204 196.555 459.689 196.558C459.174 196.56 458.679 196.474 458.314 196.319C457.949 196.163 457.743 195.952 457.743 195.73Z" fill="#4586B2"/>
<path d="M546.352 201.972L546.186 161.47C546.184 161.127 546.388 160.798 546.751 160.555C547.115 160.311 547.608 160.173 548.124 160.171C548.639 160.169 549.134 160.303 549.499 160.543C549.864 160.784 550.07 161.111 550.072 161.454L550.238 201.956C550.239 202.298 550.036 202.627 549.672 202.871C549.309 203.114 548.815 203.252 548.3 203.255C547.785 203.257 547.29 203.123 546.925 202.882C546.559 202.642 546.353 202.314 546.352 201.972Z" fill="#4586B2"/>
<path d="M539.516 199.739L539.373 164.691C539.371 164.395 539.575 164.11 539.939 163.899C540.302 163.688 540.796 163.568 541.311 163.566C541.826 163.564 542.321 163.68 542.686 163.888C543.051 164.096 543.257 164.379 543.258 164.675L543.402 199.723C543.403 200.019 543.2 200.304 542.836 200.515C542.473 200.726 541.979 200.846 541.464 200.848C540.948 200.85 540.454 200.734 540.088 200.526C539.723 200.318 539.517 200.035 539.516 199.739Z" fill="#4586B2"/>
<path d="M532.687 197.266L532.56 166.265C532.559 166.003 532.762 165.751 533.126 165.564C533.489 165.378 533.983 165.272 534.499 165.27C535.014 165.267 535.508 165.369 535.874 165.553C536.239 165.737 536.444 165.987 536.445 166.249L536.572 197.25C536.573 197.512 536.37 197.764 536.006 197.951C535.643 198.137 535.149 198.243 534.634 198.246C534.118 198.248 533.624 198.146 533.259 197.962C532.893 197.778 532.688 197.528 532.687 197.266Z" fill="#4586B2"/>
<path d="M525.842 192.326L525.748 169.415C525.747 169.221 525.951 169.035 526.315 168.896C526.679 168.758 527.173 168.679 527.688 168.677C528.203 168.675 528.698 168.749 529.063 168.885C529.428 169.02 529.633 169.205 529.634 169.399L529.728 192.31C529.728 192.503 529.525 192.69 529.161 192.828C528.797 192.967 528.303 193.046 527.788 193.048C527.272 193.05 526.778 192.975 526.413 192.839C526.048 192.704 525.843 192.519 525.842 192.326Z" fill="#4586B2"/>
<path d="M519.02 190.728L518.939 171.016C518.938 170.849 519.142 170.689 519.506 170.569C519.87 170.45 520.364 170.382 520.879 170.38C521.395 170.378 521.889 170.442 522.254 170.558C522.619 170.674 522.824 170.833 522.825 171L522.906 190.712C522.906 190.879 522.702 191.04 522.338 191.159C521.974 191.278 521.481 191.346 520.965 191.348C520.45 191.351 519.955 191.286 519.591 191.17C519.226 191.054 519.02 190.895 519.02 190.728Z" fill="#4586B2"/>
<path d="M512.245 194.31L512.13 166.174C512.129 165.936 512.332 165.707 512.696 165.538C513.06 165.368 513.554 165.272 514.069 165.27C514.584 165.267 515.079 165.36 515.444 165.527C515.809 165.693 516.014 165.92 516.015 166.158L516.131 194.294C516.132 194.532 515.928 194.761 515.564 194.931C515.2 195.1 514.707 195.197 514.191 195.199C513.676 195.201 513.182 195.109 512.816 194.942C512.451 194.775 512.246 194.548 512.245 194.31Z" fill="#4586B2"/>
<path d="M495.088 95.0087C492.015 93.5949 489.995 89.5528 490.11 85.5665C490.225 81.5801 492.32 77.8519 495.209 75.9509C496.618 75.0471 498.228 74.5079 499.896 74.3817C501.565 74.2554 503.238 74.5462 504.766 75.2277C507.867 76.5495 512.03 76.9096 513.894 80.1949C515.326 82.7195 514.81 88.3519 513.796 91.1592C512.919 93.5857 510.776 94.9528 508.686 95.7179C506.373 96.5571 503.907 96.889 501.455 96.6912C499.002 96.4934 496.621 95.7704 494.472 94.5712" fill="#2F2E41"/>
<path d="M529.083 204.593L524.729 206.216L516.406 190.17L522.832 187.775L529.083 204.593Z" fill="#FFB8B8"/>
<path d="M521.154 207.076L529.551 203.946L531.519 209.241L517.835 214.341C517.577 213.646 517.457 212.906 517.484 212.165C517.511 211.423 517.684 210.695 517.992 210.02C518.3 209.345 518.738 208.738 519.281 208.233C519.823 207.728 520.46 207.335 521.154 207.076Z" fill="#2F2E41"/>
<path d="M487.315 210.967H482.669L480.459 193.021H487.316L487.315 210.967Z" fill="#FFB8B8"/>
<path d="M479.35 209.637H488.31V215.287H473.709C473.709 214.545 473.855 213.81 474.138 213.125C474.422 212.44 474.837 211.817 475.361 211.292C475.885 210.768 476.507 210.351 477.191 210.068C477.876 209.784 478.609 209.637 479.35 209.637Z" fill="#2F2E41"/>
<path d="M473.189 146.281C473.781 146.218 474.352 146.025 474.861 145.716C475.37 145.408 475.806 144.992 476.137 144.496C476.468 144.001 476.687 143.439 476.778 142.85C476.869 142.261 476.829 141.659 476.663 141.087L491.945 114.685L486.6 112.545L471.323 138.358C470.382 138.702 469.599 139.38 469.123 140.263C468.648 141.146 468.512 142.173 468.742 143.15C468.972 144.126 469.552 144.985 470.372 145.562C471.191 146.139 472.194 146.395 473.189 146.281Z" fill="#FFB8B8"/>
<path d="M488.511 124.071L480.389 119.017L488.048 105.041C488.385 104.426 488.841 103.885 489.391 103.45C489.94 103.015 490.571 102.695 491.247 102.508C491.922 102.322 492.628 102.273 493.322 102.364C494.017 102.455 494.686 102.685 495.29 103.04C495.894 103.395 496.421 103.867 496.84 104.43C497.258 104.992 497.56 105.633 497.727 106.314C497.894 106.996 497.923 107.703 497.812 108.396C497.701 109.089 497.453 109.752 497.082 110.347L488.511 124.071Z" fill="#2F2E41"/>
<path d="M519.524 198.79C519.209 198.79 518.9 198.702 518.632 198.536C518.364 198.37 518.147 198.133 518.006 197.85L497.8 156.2C497.676 155.954 497.479 155.753 497.236 155.625C496.992 155.497 496.716 155.447 496.443 155.483C496.171 155.52 495.916 155.64 495.715 155.827C495.513 156.014 495.375 156.26 495.319 156.529L488.12 196.226C488.04 196.61 487.83 196.955 487.526 197.203C487.222 197.452 486.842 197.588 486.45 197.589H481.864C481.438 197.591 481.027 197.433 480.712 197.145C480.398 196.858 480.203 196.462 480.166 196.037C477.348 165.077 478.873 142.547 484.697 129.073C484.862 128.699 485.155 128.395 485.523 128.218C485.891 128.041 486.31 128.001 486.705 128.106L509.988 134.369C510.281 134.448 510.547 134.604 510.76 134.821C510.973 135.038 511.125 135.307 511.199 135.602L525.791 195.209C525.897 195.631 525.837 196.077 525.625 196.457C525.414 196.836 525.065 197.121 524.651 197.252L520.042 198.71C519.875 198.763 519.7 198.79 519.524 198.79Z" fill="#2F2E41"/>
<path d="M501.438 98.7884C506.579 98.7884 510.746 94.6154 510.746 89.4678C510.746 84.3201 506.579 80.1471 501.438 80.1471C496.298 80.1471 492.131 84.3201 492.131 89.4678C492.131 94.6154 496.298 98.7884 501.438 98.7884Z" fill="#FFB8B8"/>
<path d="M510.229 103.096C510.229 103.096 501.893 98.5424 495.451 103.476C495.451 103.476 487.303 111.635 489.956 119.604L483.324 138.389C488.572 148.353 503.933 146.74 511.366 138.389L510.798 120.363L510.229 103.096Z" fill="#4586B2"/>
<path d="M515.507 153.275C514.057 153.314 512.619 152.994 511.323 152.343C509.276 151.243 508.016 149.175 507.579 146.196C506.848 141.22 507.45 134.38 508.087 127.138C508.916 117.72 509.773 107.982 507.479 102.622C507.359 102.34 507.317 102.031 507.358 101.727C507.399 101.423 507.522 101.136 507.712 100.896C507.902 100.656 508.154 100.472 508.44 100.363C508.726 100.254 509.036 100.224 509.337 100.277L515.865 101.404C516.205 101.464 516.519 101.625 516.765 101.866C517.012 102.108 517.18 102.418 517.248 102.757L526.297 148.791C526.372 149.164 526.319 149.551 526.148 149.891C525.977 150.23 525.698 150.503 525.354 150.665C523.383 151.594 519.292 153.275 515.507 153.275Z" fill="#2F2E41"/>
<path d="M481.325 152.663C481.091 152.663 480.859 152.615 480.645 152.521C479.571 152.057 478.086 151.382 476.232 150.515C471.111 148.122 484.617 115.06 487.376 108.457C487.471 108.227 487.617 108.021 487.801 107.854L495.194 101.116C495.479 100.893 495.827 100.767 496.188 100.756C496.549 100.745 496.905 100.849 497.203 101.053C497.501 101.257 497.727 101.551 497.848 101.892C497.969 102.232 497.978 102.603 497.875 102.95C496.578 107.304 494.28 114.603 491.847 122.33C488.008 134.525 484.038 147.135 482.977 151.373C482.884 151.742 482.671 152.069 482.372 152.302C482.073 152.536 481.705 152.663 481.325 152.663Z" fill="#2F2E41"/>
<path d="M533.288 144.666C533.594 144.155 533.784 143.583 533.845 142.99C533.906 142.397 533.837 141.798 533.642 141.235C533.447 140.672 533.13 140.158 532.716 139.731C532.301 139.303 531.798 138.972 531.241 138.761L519.407 110.639L514.48 113.621L525.849 141.384C525.556 142.344 525.625 143.378 526.042 144.29C526.459 145.202 527.196 145.929 528.113 146.334C529.03 146.739 530.063 146.792 531.017 146.485C531.971 146.177 532.779 145.53 533.288 144.666Z" fill="#FFB8B8"/>
<path d="M515.898 122.485L509.374 107.943C509.087 107.303 508.931 106.612 508.915 105.91C508.9 105.209 509.025 104.512 509.283 103.86C509.541 103.207 509.927 102.614 510.418 102.114C510.909 101.614 511.496 101.217 512.143 100.948C512.79 100.679 513.484 100.542 514.184 100.547C514.885 100.551 515.577 100.696 516.221 100.973C516.865 101.25 517.446 101.653 517.931 102.159C518.416 102.665 518.795 103.263 519.046 103.919L524.82 119.038L515.898 122.485Z" fill="#2F2E41"/>
<path d="M508.057 77.8664C508.392 77.9154 508.734 77.8523 509.029 77.687C509.325 77.5217 509.558 77.2634 509.692 76.952C509.817 76.6366 509.867 76.2969 509.84 75.9589C509.812 75.6209 509.708 75.2937 509.535 75.0023C509.182 74.4217 508.691 73.9386 508.104 73.597C507.429 73.1449 506.648 72.8758 505.837 72.816C505.433 72.7895 505.028 72.8502 504.649 72.9942C504.27 73.1382 503.927 73.3621 503.642 73.6506C503.364 73.9463 503.18 74.3183 503.115 74.719C503.049 75.1198 503.104 75.531 503.274 75.9001C503.614 76.5573 504.328 76.9259 505.024 77.1761C506.404 77.6712 507.874 77.8646 509.335 77.7432" fill="#2F2E41"/>
<path d="M511.366 87.9171C509.916 88.34 509.995 87.5574 509.199 86.2713C508.404 84.9852 507.371 83.4717 505.862 83.5523C504.626 83.6183 503.765 84.7428 502.884 85.6135C501.314 87.1654 499.034 88.1482 496.879 87.6744C494.724 87.2007 492.947 84.9743 493.421 82.8163C493.579 82.2164 493.858 81.6553 494.241 81.1679C494.625 80.6805 495.104 80.2771 495.649 79.9827C496.744 79.4005 497.947 79.0485 499.183 78.9482C501.918 78.6334 504.689 78.9237 507.3 79.7984C509.102 80.404 510.914 81.3835 511.811 83.0619C512.708 84.7403 513.493 87.1691 511.745 87.9171L511.366 87.9171Z" fill="#2F2E41"/>
<path d="M506.776 73.0588C505.547 71.4987 506.01 69.0409 507.442 67.6658C508.875 66.2907 511.004 65.8621 512.981 66.037C514.939 66.2346 516.811 66.9442 518.409 68.0948C520.007 69.2454 521.274 70.7966 522.085 72.5927C523.334 75.4537 523.323 78.7263 524.453 81.6368C525.055 83.1883 525.968 84.5999 527.135 85.7847C528.303 86.9695 529.7 87.9025 531.241 88.5262C532.782 89.1498 534.434 89.451 536.096 89.411C537.758 89.3711 539.394 88.991 540.903 88.294C542.869 87.3862 544.741 85.6086 544.629 83.4435C545.872 88.2426 543.633 93.7324 539.391 96.2882C536.906 97.7852 533.963 98.2934 531.084 98.6431C529.208 98.871 527.28 99.0406 525.449 98.571C522.888 97.9141 520.743 96.021 519.445 93.7145C518.146 91.408 517.636 88.7202 517.616 86.0724C517.6 84.0098 517.87 81.9461 517.727 79.8883C517.585 77.8305 516.967 75.7021 515.478 74.2774C513.988 72.8527 511.475 72.3838 509.84 73.6387C509.183 74.143 508.702 74.8795 507.962 75.2516C507.222 75.6236 506.053 75.3343 506.004 74.5068L506.776 73.0588Z" fill="#2F2E41"/>
<path d="M55.193 173.926H78.937V179.703H55.193V173.926ZM52.543 137.197H71.305V142.815H52.543V137.197ZM53.921 131.685L61.076 133.116C56.571 140.854 50.211 147.956 40.671 153.68C39.77 152.09 37.65 149.758 36.219 148.645C44.964 144.034 50.847 137.568 53.921 131.685ZM69.291 137.197H70.51L71.57 136.879L75.969 139.211C69.768 155.694 55.617 166.506 39.823 171.806C39.028 170.057 37.438 167.46 36.113 166.135C50.741 161.895 64.415 151.613 69.291 138.257V137.197ZM45.6 148.857L50.317 144.723C53.974 147.32 58.797 151.083 61.129 153.839L55.988 158.45C53.974 155.694 49.257 151.613 45.6 148.857ZM75.969 157.761H82.594V181.823H75.969V157.761ZM57.896 157.761H79.149V163.538H57.896V181.717H51.536V162.478L56.359 157.761H57.896ZM90.279 137.78H117.786V143.451H90.279V137.78ZM101.303 132.427H107.133V181.611H101.303V132.427ZM111.744 147.214H117.256V157.443C117.256 159.722 116.938 161.047 115.454 161.842C114.076 162.69 112.221 162.743 109.677 162.743C109.465 161.259 108.829 159.245 108.193 157.867C109.518 157.92 110.737 157.92 111.161 157.867C111.638 157.867 111.744 157.761 111.744 157.284V147.214ZM101.727 158.45L105.914 160.517C102.734 167.46 97.593 175.145 92.028 179.279C91.445 177.53 90.067 174.986 89.06 173.449C94.148 170.11 99.236 163.962 101.727 158.45ZM106.179 162.531C108.511 163.697 115.931 168.308 117.786 169.58L114.447 175.092C111.691 172.548 105.861 167.99 102.946 165.976L106.179 162.531ZM91.657 147.214H113.811V152.673H97.169V162.266H91.657V147.214ZM120.065 137.674H126.107V167.672H120.065V137.674ZM131.301 133.063H137.449V174.191C137.449 177.742 136.76 179.491 134.746 180.498C132.626 181.558 129.446 181.77 124.941 181.717C124.676 179.968 123.775 177.053 122.874 175.251C125.948 175.41 129.022 175.41 130.029 175.357C130.93 175.357 131.301 175.039 131.301 174.138V133.063ZM172.323 140.695C171.581 146.101 170.521 152.302 168.666 158.556C165.486 169.262 160.928 175.834 155.151 175.834C149.215 175.834 144.339 169.315 144.339 160.358C144.339 148.168 154.992 137.674 168.719 137.674C181.81 137.674 190.131 146.79 190.131 158.397C190.131 169.527 183.294 177.424 169.938 179.491L165.91 173.237C167.977 172.972 169.461 172.707 170.892 172.389C177.623 170.746 182.923 165.923 182.923 158.132C182.923 149.811 177.729 143.875 168.56 143.875C157.324 143.875 151.176 153.044 151.176 159.722C151.176 165.075 153.296 167.672 155.31 167.672C157.589 167.672 159.603 164.28 161.829 157.125C163.366 152.143 164.532 146.048 165.062 140.483L172.323 140.695ZM220.076 140.642H245.516V146.684H217.108L220.076 140.642ZM227.072 152.302H244.138V158.079H227.072V152.302ZM227.019 164.015H244.827V169.951H227.019V164.015ZM223.839 142.656H230.358V181.77H223.839V142.656ZM221.295 132.48L227.443 134.123C224.475 142.709 219.705 151.507 214.829 157.019C213.822 155.853 211.384 153.574 210.006 152.567C214.67 147.797 218.857 140.165 221.295 132.48ZM207.303 132.215L213.451 134.176C210.006 143.186 204.441 152.885 198.611 158.927C198.028 157.337 196.226 153.733 195.113 152.143C199.989 147.32 204.6 139.794 207.303 132.215ZM201.95 146.843L208.31 140.43L208.363 140.483V181.717H201.95V146.843ZM256.593 151.931H268.836V157.761H256.593V151.931ZM266.398 151.931H272.599C272.599 151.931 272.546 153.521 272.546 154.263C272.334 165.499 272.069 170.216 270.85 171.859C269.79 173.184 268.73 173.661 267.193 173.926C265.762 174.138 263.483 174.138 260.992 174.085C260.886 172.23 260.197 169.739 259.243 168.149C261.151 168.361 262.953 168.361 263.801 168.361C264.543 168.361 265.02 168.255 265.444 167.725C266.08 166.877 266.292 163.167 266.398 152.885V151.931ZM282.351 135.342L286.167 131.473C289.082 133.01 293.004 135.448 294.912 137.197L290.831 141.49C289.082 139.635 285.319 137.038 282.351 135.342ZM288.605 148.963L295.018 150.5C290.566 164.333 282.775 175.092 272.281 181.558C271.327 180.233 268.995 177.583 267.67 176.311C277.846 170.852 284.948 161.259 288.605 148.963ZM256.964 139.953H297.827V146.207H256.964V139.953ZM252.724 139.953H259.402V155.535C259.402 163.485 258.501 175.251 253.678 182.406C252.618 181.134 249.756 178.802 248.272 178.06C252.353 171.7 252.724 162.425 252.724 155.482V139.953ZM274.242 132.056H280.92C280.549 153.68 285.425 174.933 290.778 174.933C291.997 174.933 292.633 172.23 292.951 165.552C294.382 167.036 296.661 168.52 298.357 169.156C297.35 179.014 295.23 181.399 290.248 181.399C278.694 181.399 274.401 156.224 274.242 132.056Z" fill="#3270E3"/>
<path d="M69.7102 72.5043L62.7855 72.9304C62.6671 72.3385 62.4126 71.8059 62.022 71.3324C61.6314 70.8471 61.1165 70.4624 60.4773 70.1783C59.8499 69.8823 59.0982 69.7344 58.2223 69.7344C57.0504 69.7344 56.062 69.983 55.2571 70.4801C54.4522 70.9654 54.0497 71.6165 54.0497 72.4332C54.0497 73.0843 54.3101 73.6347 54.831 74.0845C55.3518 74.5343 56.2455 74.8954 57.5121 75.1676L62.4482 76.1619C65.0997 76.7064 67.0765 77.5824 68.3786 78.7898C69.6806 79.9972 70.3317 81.5833 70.3317 83.5483C70.3317 85.3357 69.8049 86.9041 68.7514 88.2536C67.7098 89.603 66.2775 90.6565 64.4545 91.4141C62.6435 92.1598 60.5542 92.5327 58.1868 92.5327C54.5765 92.5327 51.7 91.781 49.5575 90.2777C47.4268 88.7625 46.178 86.7029 45.8111 84.0987L53.2507 83.7081C53.4756 84.8089 54.0201 85.6494 54.8842 86.2294C55.7483 86.7976 56.8551 87.0817 58.2045 87.0817C59.5303 87.0817 60.5956 86.8272 61.4006 86.3182C62.2173 85.7973 62.6316 85.1286 62.6435 84.3118C62.6316 83.6252 62.3416 83.063 61.7734 82.625C61.2053 82.1752 60.3293 81.8319 59.1456 81.5952L54.4226 80.6541C51.7592 80.1214 49.7765 79.1982 48.4744 77.8842C47.1842 76.5703 46.5391 74.8954 46.5391 72.8594C46.5391 71.1075 47.0125 69.5982 47.9595 68.3317C48.9183 67.0651 50.2618 66.0885 51.9901 65.402C53.7301 64.7154 55.7661 64.3722 58.098 64.3722C61.5426 64.3722 64.2533 65.1001 66.2301 66.5561C68.2188 68.0121 69.3788 69.9948 69.7102 72.5043ZM89.601 64.7273V70.4091H73.177V64.7273H89.601ZM76.9057 58.1932H84.4696V83.6193C84.4696 84.3177 84.5762 84.8622 84.7892 85.2528C85.0023 85.6316 85.2982 85.898 85.677 86.0518C86.0676 86.2057 86.5175 86.2827 87.0265 86.2827C87.3816 86.2827 87.7367 86.2531 88.0918 86.1939C88.4469 86.1229 88.7192 86.0696 88.9086 86.0341L90.0982 91.6626C89.7194 91.781 89.1867 91.9171 88.5002 92.071C87.8136 92.2367 86.9791 92.3374 85.9966 92.3729C84.1737 92.4439 82.5757 92.2012 81.2026 91.6449C79.8413 91.0885 78.7819 90.2244 78.0243 89.0526C77.2667 87.8807 76.8939 86.401 76.9057 84.6136V58.1932ZM106.664 92.5327C103.859 92.5327 101.444 91.9645 99.4199 90.8281C97.4076 89.6799 95.8569 88.0582 94.7679 85.9631C93.6789 83.8561 93.1344 81.3643 93.1344 78.4879C93.1344 75.6825 93.6789 73.2204 94.7679 71.1016C95.8569 68.9827 97.3899 67.3314 99.3667 66.1477C101.355 64.964 103.687 64.3722 106.362 64.3722C108.162 64.3722 109.837 64.6622 111.387 65.2422C112.95 65.8104 114.311 66.6686 115.471 67.8168C116.643 68.965 117.554 70.4091 118.205 72.1491C118.856 73.8774 119.182 75.9015 119.182 78.2216V80.299H96.1529V75.6115H112.062C112.062 74.5225 111.825 73.5578 111.352 72.7173C110.878 71.8769 110.221 71.2199 109.381 70.7464C108.552 70.2611 107.588 70.0185 106.487 70.0185C105.338 70.0185 104.32 70.2848 103.433 70.8175C102.557 71.3383 101.87 72.0426 101.373 72.9304C100.876 73.8063 100.621 74.7829 100.61 75.8601V80.3168C100.61 81.6662 100.858 82.8321 101.355 83.8146C101.864 84.7971 102.58 85.5547 103.504 86.0874C104.427 86.62 105.522 86.8864 106.789 86.8864C107.629 86.8864 108.398 86.768 109.097 86.5312C109.795 86.2945 110.393 85.9394 110.89 85.4659C111.387 84.9924 111.766 84.4124 112.026 83.7259L119.022 84.1875C118.667 85.8684 117.939 87.3362 116.838 88.5909C115.749 89.8338 114.341 90.8045 112.612 91.5028C110.896 92.1894 108.913 92.5327 106.664 92.5327ZM124.118 102.227V64.7273H131.575V69.3082H131.913C132.244 68.5743 132.724 67.8286 133.351 67.071C133.99 66.3016 134.819 65.6624 135.837 65.1534C136.867 64.6326 138.145 64.3722 139.672 64.3722C141.661 64.3722 143.495 64.893 145.176 65.9347C146.857 66.9645 148.201 68.5211 149.207 70.6044C150.213 72.6759 150.716 75.2741 150.716 78.3991C150.716 81.4413 150.225 84.0099 149.242 86.1051C148.272 88.1884 146.946 89.7687 145.265 90.8459C143.596 91.9112 141.726 92.4439 139.654 92.4439C138.186 92.4439 136.938 92.2012 135.908 91.7159C134.89 91.2306 134.055 90.621 133.404 89.8871C132.753 89.1413 132.256 88.3897 131.913 87.6321H131.682V102.227H124.118ZM131.522 78.3636C131.522 79.9853 131.747 81.3999 132.197 82.6072C132.647 83.8146 133.298 84.7557 134.15 85.4304C135.002 86.0933 136.038 86.4247 137.257 86.4247C138.488 86.4247 139.53 86.0874 140.382 85.4126C141.235 84.7261 141.88 83.7791 142.318 82.5717C142.767 81.3525 142.992 79.9498 142.992 78.3636C142.992 76.7893 142.773 75.4044 142.335 74.2088C141.897 73.0133 141.252 72.0781 140.4 71.4034C139.548 70.7287 138.5 70.3913 137.257 70.3913C136.026 70.3913 134.985 70.7169 134.132 71.3679C133.292 72.0189 132.647 72.9422 132.197 74.1378C131.747 75.3333 131.522 76.742 131.522 78.3636ZM169.129 92.4972C166.477 92.4972 164.116 92.0414 162.044 91.13C159.985 90.2067 158.357 88.9401 157.161 87.3303C155.978 85.7086 155.368 83.8383 155.333 81.7195H163.074C163.121 82.6072 163.411 83.3885 163.944 84.0632C164.489 84.7261 165.211 85.241 166.11 85.608C167.01 85.9749 168.022 86.1584 169.146 86.1584C170.318 86.1584 171.354 85.9512 172.254 85.5369C173.153 85.1226 173.858 84.5485 174.367 83.8146C174.876 83.0807 175.13 82.2344 175.13 81.2756C175.13 80.3049 174.858 79.4467 174.313 78.701C173.781 77.9434 173.011 77.3516 172.005 76.9254C171.011 76.4993 169.827 76.2862 168.454 76.2862H165.063V70.6399H168.454C169.614 70.6399 170.638 70.4387 171.526 70.0362C172.425 69.6338 173.124 69.0774 173.621 68.3672C174.118 67.6451 174.367 66.8047 174.367 65.8459C174.367 64.9344 174.148 64.1354 173.71 63.4489C173.284 62.7505 172.68 62.206 171.899 61.8153C171.129 61.4247 170.23 61.2294 169.2 61.2294C168.158 61.2294 167.205 61.4188 166.341 61.7976C165.477 62.1645 164.785 62.6913 164.264 63.3778C163.743 64.0644 163.465 64.8693 163.429 65.7926H156.061C156.096 63.6974 156.694 61.8509 157.854 60.2528C159.014 58.6548 160.576 57.406 162.541 56.5064C164.518 55.5949 166.749 55.1392 169.235 55.1392C171.745 55.1392 173.941 55.5949 175.823 56.5064C177.705 57.4178 179.167 58.6489 180.208 60.1996C181.262 61.7384 181.783 63.4666 181.771 65.3842C181.783 67.4202 181.149 69.1188 179.871 70.4801C178.604 71.8414 176.953 72.7055 174.917 73.0724V73.3565C177.592 73.6998 179.628 74.629 181.025 76.1442C182.434 77.6475 183.132 79.5296 183.12 81.7905C183.132 83.862 182.534 85.7027 181.327 87.3125C180.131 88.9223 178.48 90.1889 176.373 91.1122C174.266 92.0355 171.851 92.4972 169.129 92.4972Z" fill="#3270E3"/>
</svg>
