<svg width="568" height="291" viewBox="0 0 568 291" fill="none" xmlns="http://www.w3.org/2000/svg">
<rect x="0.25" y="0.25" width="567.5" height="290.5" rx="38.75" stroke="black" stroke-width="0.5"/>
<path d="M46.16 67.136H77.732V70.808H46.16V67.136ZM48.464 73.004H76.112V76.64H48.464V73.004ZM51.776 85.928H72.62V89.564H51.776V85.928ZM51.884 78.62H75.572V91.472H71.252V82.148H51.884V78.62ZM49.04 78.62H53.324V83.156C53.324 87.764 52.424 94.316 48.032 98.42C47.384 97.592 45.584 96.044 44.648 95.504C48.608 91.868 49.04 86.792 49.04 83.084V78.62ZM59.696 64.4H64.088V74.948H59.696V64.4ZM59.84 79.844H64.016V88.196H59.84V79.844ZM101.276 70.34C100.772 74.012 100.052 78.224 98.792 82.472C96.632 89.744 93.536 94.208 89.612 94.208C85.58 94.208 82.268 89.78 82.268 83.696C82.268 75.416 89.504 68.288 98.828 68.288C107.72 68.288 113.372 74.48 113.372 82.364C113.372 89.924 108.728 95.288 99.656 96.692L96.92 92.444C98.324 92.264 99.332 92.084 100.304 91.868C104.876 90.752 108.476 87.476 108.476 82.184C108.476 76.532 104.948 72.5 98.72 72.5C91.088 72.5 86.912 78.728 86.912 83.264C86.912 86.9 88.352 88.664 89.72 88.664C91.268 88.664 92.636 86.36 94.148 81.5C95.192 78.116 95.984 73.976 96.344 70.196L101.276 70.34ZM147.536 80.636L150.92 82.688C149.408 84.344 147.824 86.072 146.528 87.224L143.828 85.424C145.016 84.164 146.636 82.112 147.536 80.636ZM131.516 82.976L134.324 81.14C135.8 82.472 137.384 84.344 138.068 85.712L135.044 87.728C134.468 86.36 132.92 84.38 131.516 82.976ZM133.064 65.66H147.932V78.296H143.936V69.188H133.064V65.66ZM133.856 71.096H146.204V74.408H133.856V71.096ZM131.336 76.244H150.632V79.916H131.336V76.244ZM138.752 78.116H142.748V94.172C142.748 95.936 142.532 96.98 141.38 97.592C140.3 98.204 138.86 98.24 136.88 98.24C136.772 97.16 136.304 95.612 135.836 94.532C136.844 94.568 137.924 94.568 138.284 94.568C138.644 94.568 138.752 94.46 138.752 94.064V78.116ZM130.292 92.336C132.128 91.292 134.828 89.6 137.492 87.872L138.788 91.112C136.664 92.732 134.324 94.424 132.272 95.792L130.292 92.336ZM142.64 80.672C143.792 84.956 146.528 90.32 151.46 92.84C150.596 93.596 149.3 95.288 148.688 96.368C143.972 93.344 141.38 87.152 140.264 82.976L142.64 80.672ZM119.6 73.4H130.256V77H119.6V73.4ZM117.872 79.628H131.012V83.3H117.872V79.628ZM118.232 85.316L120.968 84.632C121.58 86.648 122.084 89.168 122.264 90.896L119.348 91.652C119.276 89.924 118.772 87.332 118.232 85.316ZM117.476 93.56C120.896 93.056 126.008 92.12 130.868 91.256L131.192 94.82C126.692 95.756 121.94 96.764 118.304 97.484L117.476 93.56ZM128.204 84.344L131.3 85.1C130.652 87.152 130.076 89.42 129.536 90.932L126.944 90.212C127.412 88.592 127.952 86.072 128.204 84.344ZM122.804 74.84H126.512V94.244L122.804 94.892V74.84ZM122.624 64.436H124.892V65.228H126.116V66.344C124.712 69.08 122.516 72.788 118.952 76.028C118.376 75.164 117.152 73.796 116.36 73.22C119.384 70.628 121.508 67.244 122.624 64.436ZM123.164 64.436H126.188C128.276 66.236 130.94 68.828 132.236 70.664L129.464 73.976C128.312 72.14 125.864 69.116 123.92 67.496H123.164V64.436ZM155.816 67.352H184.544V71.168H155.816V67.352ZM153.8 75.596H186.2V79.448H153.8V75.596ZM161.072 87.656H179.036V90.896H161.072V87.656ZM161.072 93.488H179.036V97.052H161.072V93.488ZM167.624 64.436H172.16V69.62H167.624V64.436ZM158.912 81.608H181.736V98.204H177.164V85.172H163.232V98.24H158.912V81.608ZM175.544 70.448L180.368 71.492C179.468 73.328 178.604 75.128 177.92 76.352L173.78 75.38C174.428 73.976 175.184 71.924 175.544 70.448ZM160.388 71.456L164.636 70.628C165.572 72.068 166.328 74.048 166.58 75.344L162.08 76.388C161.9 75.02 161.18 72.932 160.388 71.456Z" fill="#3270E3"/>
<path d="M62.156 129.761C62.11 130.152 62.064 130.612 62.041 131.302C61.995 132.222 61.995 135.304 61.995 137.236C61.995 140.272 62.34 144.297 62.34 145.838C62.34 147.448 61.282 149.081 58.292 149.081C54.98 149.081 53.163 147.908 53.163 145.677C53.163 143.584 55.164 142.181 58.476 142.181C63.329 142.181 67.124 144.803 68.895 146.252L67.837 147.885C65.767 145.976 62.363 143.676 58.269 143.676C56.061 143.676 54.888 144.527 54.888 145.585C54.888 146.666 55.785 147.448 58.062 147.448C59.396 147.448 60.523 147.057 60.523 145.447C60.523 143.676 60.293 139.26 60.293 137.236C60.293 135.166 60.293 132.751 60.293 131.141C60.293 130.75 60.27 130.06 60.201 129.761H62.156ZM53.37 132.245C54.842 132.521 57.717 132.751 59.235 132.751C62.156 132.751 65.238 132.544 68.228 132.061V133.74C65.629 134.039 62.34 134.338 59.258 134.338C57.671 134.338 54.842 134.131 53.393 133.947L53.37 132.245ZM53.255 137.144C54.888 137.397 57.51 137.558 59.028 137.558C62.363 137.558 65.422 137.328 68.412 136.891V138.616C65.284 139.007 62.478 139.168 59.028 139.168C57.441 139.168 54.911 139.053 53.278 138.869L53.255 137.144ZM85.754 130.06C85.708 130.313 85.639 131.21 85.639 131.509C85.593 132.981 85.639 137.42 85.662 139.26L83.914 138.363C83.914 137.351 83.891 132.797 83.822 131.509C83.776 130.888 83.707 130.244 83.661 130.06H85.754ZM73.541 133.257C76.669 133.211 82.419 133.004 85.961 133.004C88.767 133.004 91.596 133.004 92.7 133.027L92.677 134.729C91.366 134.66 89.296 134.614 85.938 134.614C81.982 134.614 77.037 134.775 73.587 135.028L73.541 133.257ZM85.616 139.927C85.616 143.009 84.19 144.55 82.074 144.55C80.142 144.55 78.302 143.193 78.302 140.686C78.302 138.409 80.165 136.707 82.35 136.707C85.041 136.707 86.398 138.685 86.398 141.353C86.398 144.458 84.88 147.908 79.521 149.495L77.98 148C82.189 147.034 84.627 144.964 84.627 141.169C84.627 139.099 83.615 138.225 82.35 138.225C81.154 138.225 80.027 139.168 80.027 140.663C80.027 142.112 81.108 142.963 82.35 142.963C83.799 142.963 84.719 141.744 84.351 139.306L85.616 139.927ZM88.928 129.577C89.457 130.359 90.193 131.509 90.653 132.36L89.342 132.935C88.859 132.015 88.215 130.911 87.64 130.129L88.928 129.577ZM91.711 128.979C92.24 129.761 92.953 130.865 93.436 131.739L92.148 132.337C91.642 131.371 91.021 130.313 90.423 129.531L91.711 128.979ZM99.6618 149.288C98.1668 147.471 96.1888 145.516 94.5558 144.182L96.0508 142.871C97.7068 144.205 99.7768 146.275 101.226 147.954L99.6618 149.288ZM121.282 136.937H134.645V138.547H121.282V136.937ZM121.282 141.928H134.645V143.538H121.282V141.928ZM121.282 146.965H134.645V148.575H121.282V146.965ZM120.109 131.831H135.979V149.748H134.185V133.487H121.857V149.863H120.109V131.831ZM126.848 128.657L128.849 128.91C128.343 130.29 127.745 131.785 127.239 132.774L125.698 132.475C126.112 131.394 126.618 129.784 126.848 128.657ZM143.684 137.397H156.84V139.076H143.684V137.397ZM156.265 137.397H158.059C158.059 137.397 158.036 137.995 158.013 138.225C157.691 145.355 157.369 148.023 156.541 148.897C156.081 149.472 155.575 149.633 154.77 149.702C154.011 149.771 152.562 149.748 151.113 149.679C151.09 149.15 150.86 148.437 150.538 147.931C152.056 148.069 153.482 148.092 154.034 148.092C154.494 148.092 154.77 148.046 155 147.793C155.621 147.172 155.966 144.55 156.265 137.719V137.397ZM146.835 129.163L148.652 129.692C146.996 133.579 144.282 137.006 141.384 139.214C141.062 138.846 140.326 138.179 139.889 137.857C142.833 135.879 145.386 132.705 146.835 129.163ZM154.862 129.117C156.357 132.199 159.324 135.695 161.831 137.466C161.371 137.834 160.727 138.524 160.382 139.007C157.829 136.937 154.931 133.211 153.206 129.784L154.862 129.117ZM148.537 137.857H150.377C149.848 142.894 148.652 147.655 142.235 149.955C142.028 149.518 141.522 148.828 141.131 148.46C147.157 146.459 148.077 142.204 148.537 137.857ZM175.332 132.314C175.033 134.706 174.573 137.397 173.86 139.858C172.457 144.573 170.617 147.011 168.501 147.011C166.431 147.011 164.384 144.665 164.384 140.847C164.384 135.856 168.823 131.509 174.458 131.509C179.84 131.509 183.267 135.304 183.267 139.973C183.267 144.78 180.093 148 174.619 148.713L173.561 147.011C174.297 146.942 174.987 146.85 175.539 146.735C178.483 146.068 181.381 143.86 181.381 139.881C181.381 136.201 178.828 133.165 174.412 133.165C169.352 133.165 166.201 137.328 166.201 140.709C166.201 143.607 167.512 144.895 168.547 144.895C169.628 144.895 170.87 143.331 172.043 139.444C172.71 137.259 173.193 134.66 173.423 132.268L175.332 132.314ZM186.993 130.612H206.75V132.107H186.993V130.612ZM188.373 134.384H205.738V135.879H188.373V134.384ZM189.891 142.664H204.197V144.182H189.891V142.664ZM189.914 137.673H205.301V145.332H203.576V139.145H189.914V137.673ZM188.879 137.673H190.581V140.732C190.581 143.515 190.052 147.379 187.361 149.955C187.108 149.61 186.418 149.012 186.027 148.782C188.534 146.39 188.879 143.124 188.879 140.709V137.673ZM195.94 128.634H197.688V135.212H195.94V128.634ZM195.986 138.179H197.665V143.584H195.986V138.179ZM218.963 129.83C218.756 130.727 218.503 131.992 217.905 133.533C217.33 134.936 216.479 136.477 215.559 137.673C216.456 137.144 217.767 136.822 218.779 136.822C220.55 136.822 221.93 137.88 221.93 139.743C221.93 140.939 221.976 143.584 221.999 145.01H220.228C220.32 143.791 220.343 141.422 220.32 140.226C220.297 138.892 219.377 138.271 218.181 138.271C216.709 138.271 215.26 139.007 214.202 139.95C213.535 140.594 212.891 141.422 212.132 142.365L210.545 141.192C213.857 138.018 215.398 135.35 216.18 133.395C216.686 132.13 217.008 130.75 217.077 129.669L218.963 129.83ZM211.074 132.314C212.316 132.475 213.903 132.544 214.961 132.544C218.066 132.544 222.045 132.36 225.288 131.785V133.487C222.068 133.97 217.79 134.177 214.869 134.177C213.88 134.177 212.362 134.131 211.074 134.039V132.314ZM228.646 137.857C228.071 138.041 227.243 138.363 226.622 138.593C224.989 139.237 222.804 140.111 220.573 141.261C218.296 142.457 216.686 143.699 216.686 145.286C216.686 147.08 218.457 147.356 220.826 147.356C222.62 147.356 225.104 147.149 227.128 146.781L227.059 148.644C225.311 148.851 222.758 149.035 220.757 149.035C217.491 149.035 214.846 148.322 214.846 145.539C214.846 142.733 217.698 141.008 220.435 139.605C222.62 138.478 224.483 137.765 226.001 137.052C226.691 136.73 227.266 136.477 227.91 136.155L228.646 137.857ZM251.922 138.777L253.279 139.651C252.359 140.778 251.232 141.997 250.335 142.825L249.231 142.066C250.082 141.192 251.278 139.789 251.922 138.777ZM241.641 139.927L242.814 139.168C243.803 140.088 244.884 141.353 245.367 142.25L244.102 143.078C243.665 142.204 242.607 140.87 241.641 139.927ZM242.354 129.623H251.577V137.328H249.967V131.072H242.354V129.623ZM242.814 133.05H250.887V134.453H242.814V133.05ZM241.158 136.454H253.463V137.972H241.158V136.454ZM246.333 137.167H247.943V148.046C247.943 148.874 247.805 149.334 247.23 149.587C246.678 149.84 245.827 149.863 244.562 149.863C244.493 149.426 244.286 148.782 244.079 148.322C244.953 148.368 245.735 148.345 246.011 148.345C246.264 148.345 246.333 148.276 246.333 148V137.167ZM240.675 146.827C241.871 146.114 243.642 144.918 245.367 143.722L245.896 145.056C244.424 146.183 242.837 147.333 241.48 148.253L240.675 146.827ZM247.874 138.202C248.564 141.261 250.335 145.171 253.877 147.034C253.532 147.356 253.003 148.023 252.75 148.46C249.277 146.344 247.598 142.181 246.885 139.352L247.874 138.202ZM233.867 134.384H240.422V135.879H233.867V134.384ZM232.625 138.317H241.043V139.835H232.625V138.317ZM233.154 141.353L234.35 141.054C234.81 142.457 235.178 144.228 235.27 145.424L233.982 145.746C233.959 144.55 233.591 142.756 233.154 141.353ZM232.418 147.54C234.58 147.172 237.823 146.528 240.951 145.884L241.089 147.356C238.122 147.977 235.063 148.667 232.763 149.15L232.418 147.54ZM239.548 140.847L240.882 141.192C240.491 142.595 240.1 144.251 239.709 145.332L238.582 145.01C238.927 143.883 239.341 142.066 239.548 140.847ZM236.236 134.936H237.754V147.471L236.236 147.724V134.936ZM236.167 128.703H237.064V129.071H237.57V129.508C236.673 131.279 235.178 133.717 232.901 135.718C232.648 135.373 232.142 134.867 231.82 134.637C233.913 132.889 235.385 130.543 236.167 128.703ZM236.443 128.703H237.731C239.088 129.922 240.79 131.693 241.595 132.843L240.445 134.154C239.663 132.981 238.099 131.072 236.765 129.922H236.443V128.703ZM256.936 130.796H274.991V132.337H256.936V130.796ZM255.625 136.178H276.141V137.742H255.625V136.178ZM259.857 143.63H272.047V145.01H259.857V143.63ZM259.88 147.54H272.07V149.012H259.88V147.54ZM264.94 128.68H266.734V131.647H264.94V128.68ZM259.006 139.743H273.059V149.817H271.265V141.215H260.731V149.863H259.006V139.743ZM270.115 132.268L271.978 132.728C271.38 133.993 270.69 135.396 270.115 136.316L268.505 135.879C269.08 134.89 269.77 133.349 270.115 132.268ZM260.11 132.728L261.766 132.36C262.479 133.441 263.077 134.89 263.261 135.856L261.49 136.316C261.329 135.304 260.754 133.809 260.11 132.728ZM285.203 130.083C285.088 130.842 285.019 131.647 284.973 132.406C284.881 135.005 284.697 140.456 284.697 143.883C284.697 146.413 286.284 147.287 288.469 147.287C292.678 147.287 295.07 144.941 296.726 142.549L298.014 144.113C296.45 146.298 293.46 149.173 288.423 149.173C285.111 149.173 282.834 147.816 282.834 144.044C282.834 140.64 283.064 134.821 283.064 132.406C283.064 131.555 282.995 130.75 282.857 130.083H285.203ZM301.619 132.728C302.493 132.705 303.229 132.659 303.689 132.613C305.184 132.452 309.508 132.038 313.763 131.67C316.27 131.463 318.409 131.325 319.95 131.279L319.973 133.119C318.639 133.096 316.638 133.142 315.465 133.464C312.176 134.522 310.175 138.041 310.175 140.755C310.175 145.24 314.384 146.666 318.11 146.827L317.466 148.713C313.188 148.552 308.358 146.298 308.358 141.146C308.358 137.558 310.543 134.637 312.659 133.395C310.175 133.648 304.333 134.223 301.826 134.752L301.619 132.728ZM324.297 130.612H344.054V132.107H324.297V130.612ZM325.677 134.384H343.042V135.879H325.677V134.384ZM327.195 142.664H341.501V144.182H327.195V142.664ZM327.218 137.673H342.605V145.332H340.88V139.145H327.218V137.673ZM326.183 137.673H327.885V140.732C327.885 143.515 327.356 147.379 324.665 149.955C324.412 149.61 323.722 149.012 323.331 148.782C325.838 146.39 326.183 143.124 326.183 140.709V137.673ZM333.244 128.634H334.992V135.212H333.244V128.634ZM333.29 138.179H334.969V143.584H333.29V138.179ZM358.636 132.314C358.337 134.706 357.877 137.397 357.164 139.858C355.761 144.573 353.921 147.011 351.805 147.011C349.735 147.011 347.688 144.665 347.688 140.847C347.688 135.856 352.127 131.509 357.762 131.509C363.144 131.509 366.571 135.304 366.571 139.973C366.571 144.78 363.397 148 357.923 148.713L356.865 147.011C357.601 146.942 358.291 146.85 358.843 146.735C361.787 146.068 364.685 143.86 364.685 139.881C364.685 136.201 362.132 133.165 357.716 133.165C352.656 133.165 349.505 137.328 349.505 140.709C349.505 143.607 350.816 144.895 351.851 144.895C352.932 144.895 354.174 143.331 355.347 139.444C356.014 137.259 356.497 134.66 356.727 132.268L358.636 132.314ZM56.222 163.097H64.755V164.592H56.222V163.097ZM50.495 175.862H70.528V177.311H50.495V175.862ZM51.875 157.577H58.683V159.026H51.875V157.577ZM58.131 157.577H58.43L58.752 157.485L59.856 158.06C58.131 162.476 54.29 165.765 50.633 167.467C50.403 167.099 49.943 166.501 49.598 166.202C52.979 164.776 56.705 161.556 58.131 157.899V157.577ZM62.018 156.749C63.789 160.659 67.308 164.224 71.287 165.765C70.873 166.11 70.39 166.731 70.114 167.191C66.043 165.351 62.524 161.602 60.569 157.232L62.018 156.749ZM51.254 160.82L52.174 159.877C53.393 160.567 54.819 161.625 55.486 162.453L54.52 163.511C53.83 162.706 52.45 161.556 51.254 160.82ZM66.641 156.887L67.952 157.807C66.756 158.934 65.169 160.176 63.973 160.981L62.915 160.153C64.088 159.302 65.721 157.899 66.641 156.887ZM69.217 159.601L70.505 160.521C69.286 161.671 67.63 162.913 66.365 163.695L65.307 162.867C66.549 162.039 68.251 160.636 69.217 159.601ZM55.808 167.904V170.94H65.123V167.904H55.808ZM54.106 166.478H66.894V172.366H54.106V166.478ZM55.44 172.734L57.027 172.297C57.671 173.286 58.269 174.643 58.499 175.54L56.866 176.046C56.636 175.149 56.061 173.746 55.44 172.734ZM63.996 172.228L65.675 172.688C65.054 173.907 64.364 175.172 63.789 176.069L62.317 175.632C62.892 174.735 63.628 173.24 63.996 172.228ZM92.539 166.777L93.896 167.651C92.976 168.778 91.849 169.997 90.952 170.825L89.848 170.066C90.699 169.192 91.895 167.789 92.539 166.777ZM82.258 167.927L83.431 167.168C84.42 168.088 85.501 169.353 85.984 170.25L84.719 171.078C84.282 170.204 83.224 168.87 82.258 167.927ZM82.971 157.623H92.194V165.328H90.584V159.072H82.971V157.623ZM83.431 161.05H91.504V162.453H83.431V161.05ZM81.775 164.454H94.08V165.972H81.775V164.454ZM86.95 165.167H88.56V176.046C88.56 176.874 88.422 177.334 87.847 177.587C87.295 177.84 86.444 177.863 85.179 177.863C85.11 177.426 84.903 176.782 84.696 176.322C85.57 176.368 86.352 176.345 86.628 176.345C86.881 176.345 86.95 176.276 86.95 176V165.167ZM81.292 174.827C82.488 174.114 84.259 172.918 85.984 171.722L86.513 173.056C85.041 174.183 83.454 175.333 82.097 176.253L81.292 174.827ZM88.491 166.202C89.181 169.261 90.952 173.171 94.494 175.034C94.149 175.356 93.62 176.023 93.367 176.46C89.894 174.344 88.215 170.181 87.502 167.352L88.491 166.202ZM74.484 162.384H81.039V163.879H74.484V162.384ZM73.242 166.317H81.66V167.835H73.242V166.317ZM73.771 169.353L74.967 169.054C75.427 170.457 75.795 172.228 75.887 173.424L74.599 173.746C74.576 172.55 74.208 170.756 73.771 169.353ZM73.035 175.54C75.197 175.172 78.44 174.528 81.568 173.884L81.706 175.356C78.739 175.977 75.68 176.667 73.38 177.15L73.035 175.54ZM80.165 168.847L81.499 169.192C81.108 170.595 80.717 172.251 80.326 173.332L79.199 173.01C79.544 171.883 79.958 170.066 80.165 168.847ZM76.853 162.936H78.371V175.471L76.853 175.724V162.936ZM76.784 156.703H77.681V157.071H78.187V157.508C77.29 159.279 75.795 161.717 73.518 163.718C73.265 163.373 72.759 162.867 72.437 162.637C74.53 160.889 76.002 158.543 76.784 156.703ZM77.06 156.703H78.348C79.705 157.922 81.407 159.693 82.212 160.843L81.062 162.154C80.28 160.981 78.716 159.072 77.382 157.922H77.06V156.703ZM105.58 157.83C105.373 158.727 105.12 159.992 104.522 161.533C103.947 162.936 103.096 164.477 102.176 165.673C103.073 165.144 104.384 164.822 105.396 164.822C107.167 164.822 108.547 165.88 108.547 167.743C108.547 168.939 108.593 171.584 108.616 173.01H106.845C106.937 171.791 106.96 169.422 106.937 168.226C106.914 166.892 105.994 166.271 104.798 166.271C103.326 166.271 101.877 167.007 100.819 167.95C100.152 168.594 99.508 169.422 98.749 170.365L97.162 169.192C100.474 166.018 102.015 163.35 102.797 161.395C103.303 160.13 103.625 158.75 103.694 157.669L105.58 157.83ZM97.691 160.314C98.933 160.475 100.52 160.544 101.578 160.544C104.683 160.544 108.662 160.36 111.905 159.785V161.487C108.685 161.97 104.407 162.177 101.486 162.177C100.497 162.177 98.979 162.131 97.691 162.039V160.314ZM115.263 165.857C114.688 166.041 113.86 166.363 113.239 166.593C111.606 167.237 109.421 168.111 107.19 169.261C104.913 170.457 103.303 171.699 103.303 173.286C103.303 175.08 105.074 175.356 107.443 175.356C109.237 175.356 111.721 175.149 113.745 174.781L113.676 176.644C111.928 176.851 109.375 177.035 107.374 177.035C104.108 177.035 101.463 176.322 101.463 173.539C101.463 170.733 104.315 169.008 107.052 167.605C109.237 166.478 111.1 165.765 112.618 165.052C113.308 164.73 113.883 164.477 114.527 164.155L115.263 165.857ZM128.005 158.083H139.298V159.739H128.005V158.083ZM134.721 164.937H136.469V175.632C136.469 176.713 136.216 177.242 135.434 177.518C134.652 177.771 133.341 177.794 131.087 177.794C131.018 177.311 130.788 176.598 130.535 176.092C132.168 176.138 133.709 176.138 134.123 176.115C134.583 176.092 134.721 176 134.721 175.609V164.937ZM126.993 164.431H139.965V166.064H126.993V164.431ZM122.393 166.202L123.911 164.707L124.118 164.799V177.909H122.393V166.202ZM125.061 161.602L126.694 162.223C124.9 165.144 122.186 168.111 119.771 170.043C119.518 169.698 118.92 168.939 118.552 168.617C120.944 166.915 123.474 164.247 125.061 161.602ZM124.118 156.68L125.774 157.347C124.233 159.371 121.864 161.602 119.817 163.074C119.564 162.706 119.104 162.039 118.805 161.694C120.714 160.406 122.945 158.336 124.118 156.68ZM146.129 159.969C146.014 160.498 145.945 161.602 145.922 162.2C145.899 163.626 145.922 165.742 146.083 167.628C146.474 171.469 147.578 174.022 149.234 174.022C150.407 174.022 151.488 171.653 152.086 169.353L153.535 170.986C152.132 174.873 150.752 176.207 149.188 176.207C147.003 176.207 144.933 174.045 144.289 168.088C144.082 166.11 144.036 163.304 144.036 161.97C144.036 161.441 144.036 160.452 143.898 159.923L146.129 159.969ZM158.089 160.59C160.159 163.258 161.815 168.157 162.16 172.044L160.297 172.78C159.906 168.64 158.503 163.902 156.318 161.211L158.089 160.59ZM177.156 157.761C177.11 158.152 177.064 158.612 177.041 159.302C176.995 160.222 176.995 163.304 176.995 165.236C176.995 168.272 177.34 172.297 177.34 173.838C177.34 175.448 176.282 177.081 173.292 177.081C169.98 177.081 168.163 175.908 168.163 173.677C168.163 171.584 170.164 170.181 173.476 170.181C178.329 170.181 182.124 172.803 183.895 174.252L182.837 175.885C180.767 173.976 177.363 171.676 173.269 171.676C171.061 171.676 169.888 172.527 169.888 173.585C169.888 174.666 170.785 175.448 173.062 175.448C174.396 175.448 175.523 175.057 175.523 173.447C175.523 171.676 175.293 167.26 175.293 165.236C175.293 163.166 175.293 160.751 175.293 159.141C175.293 158.75 175.27 158.06 175.201 157.761H177.156ZM168.37 160.245C169.842 160.521 172.717 160.751 174.235 160.751C177.156 160.751 180.238 160.544 183.228 160.061V161.74C180.629 162.039 177.34 162.338 174.258 162.338C172.671 162.338 169.842 162.131 168.393 161.947L168.37 160.245ZM168.255 165.144C169.888 165.397 172.51 165.558 174.028 165.558C177.363 165.558 180.422 165.328 183.412 164.891V166.616C180.284 167.007 177.478 167.168 174.028 167.168C172.441 167.168 169.911 167.053 168.278 166.869L168.255 165.144ZM194.82 158.083C194.705 158.842 194.636 159.647 194.59 160.406C194.498 163.005 194.314 168.456 194.314 171.883C194.314 174.413 195.901 175.287 198.086 175.287C202.295 175.287 204.687 172.941 206.343 170.549L207.631 172.113C206.067 174.298 203.077 177.173 198.04 177.173C194.728 177.173 192.451 175.816 192.451 172.044C192.451 168.64 192.681 162.821 192.681 160.406C192.681 159.555 192.612 158.75 192.474 158.083H194.82ZM222.351 161.74C222.259 162.085 222.19 162.982 222.19 163.603C222.19 164.362 222.19 166.179 222.19 167.421C222.19 169.376 222.466 173.079 222.466 174.643C222.466 176.138 221.523 177.472 219.016 177.472C216.302 177.472 214.393 176.437 214.393 174.39C214.393 172.481 216.118 171.239 219.292 171.239C223.133 171.239 226.376 173.286 228.216 174.942L227.227 176.552C225.387 174.666 222.374 172.688 219.108 172.688C217.268 172.688 216.003 173.263 216.003 174.321C216.003 175.218 217.038 175.908 218.809 175.908C220.074 175.908 220.718 175.195 220.718 174.091C220.718 172.55 220.511 169.284 220.511 167.306C220.511 166.34 220.511 164.408 220.511 163.626C220.511 162.959 220.442 162.062 220.35 161.74H222.351ZM221.362 165.259C222.604 165.259 225.939 165.121 227.917 164.891L227.963 166.501C226.008 166.685 222.65 166.823 221.385 166.823L221.362 165.259ZM249.537 168.364C249.537 166.409 247.973 165.052 245.604 165.052C242.959 165.052 240.682 165.811 239.348 166.202C238.635 166.409 237.945 166.662 237.393 166.892L236.818 164.776C237.462 164.73 238.221 164.569 238.934 164.431C240.544 164.063 243.143 163.327 245.811 163.327C249.077 163.327 251.492 165.144 251.492 168.433C251.492 173.424 247.03 176.207 241.073 177.127L240.015 175.379C245.604 174.666 249.537 172.481 249.537 168.364ZM239.877 157.991C242.43 158.566 247.421 159.049 249.652 159.072L249.376 160.843C246.823 160.659 242.2 160.199 239.601 159.739L239.877 157.991ZM259.092 170.411C261.024 170.411 262.588 171.975 262.588 173.907C262.588 175.839 261.024 177.403 259.092 177.403C257.16 177.403 255.573 175.839 255.573 173.907C255.573 171.975 257.16 170.411 259.092 170.411ZM259.092 176.23C260.38 176.23 261.415 175.195 261.415 173.907C261.415 172.619 260.38 171.584 259.092 171.584C257.804 171.584 256.746 172.619 256.746 173.907C256.746 175.195 257.804 176.23 259.092 176.23ZM69.539 194.777L70.896 195.651C69.976 196.778 68.849 197.997 67.952 198.825L66.848 198.066C67.699 197.192 68.895 195.789 69.539 194.777ZM59.258 195.927L60.431 195.168C61.42 196.088 62.501 197.353 62.984 198.25L61.719 199.078C61.282 198.204 60.224 196.87 59.258 195.927ZM59.971 185.623H69.194V193.328H67.584V187.072H59.971V185.623ZM60.431 189.05H68.504V190.453H60.431V189.05ZM58.775 192.454H71.08V193.972H58.775V192.454ZM63.95 193.167H65.56V204.046C65.56 204.874 65.422 205.334 64.847 205.587C64.295 205.84 63.444 205.863 62.179 205.863C62.11 205.426 61.903 204.782 61.696 204.322C62.57 204.368 63.352 204.345 63.628 204.345C63.881 204.345 63.95 204.276 63.95 204V193.167ZM58.292 202.827C59.488 202.114 61.259 200.918 62.984 199.722L63.513 201.056C62.041 202.183 60.454 203.333 59.097 204.253L58.292 202.827ZM65.491 194.202C66.181 197.261 67.952 201.171 71.494 203.034C71.149 203.356 70.62 204.023 70.367 204.46C66.894 202.344 65.215 198.181 64.502 195.352L65.491 194.202ZM51.484 190.384H58.039V191.879H51.484V190.384ZM50.242 194.317H58.66V195.835H50.242V194.317ZM50.771 197.353L51.967 197.054C52.427 198.457 52.795 200.228 52.887 201.424L51.599 201.746C51.576 200.55 51.208 198.756 50.771 197.353ZM50.035 203.54C52.197 203.172 55.44 202.528 58.568 201.884L58.706 203.356C55.739 203.977 52.68 204.667 50.38 205.15L50.035 203.54ZM57.165 196.847L58.499 197.192C58.108 198.595 57.717 200.251 57.326 201.332L56.199 201.01C56.544 199.883 56.958 198.066 57.165 196.847ZM53.853 190.936H55.371V203.471L53.853 203.724V190.936ZM53.784 184.703H54.681V185.071H55.187V185.508C54.29 187.279 52.795 189.717 50.518 191.718C50.265 191.373 49.759 190.867 49.437 190.637C51.53 188.889 53.002 186.543 53.784 184.703ZM54.06 184.703H55.348C56.705 185.922 58.407 187.693 59.212 188.843L58.062 190.154C57.28 188.981 55.716 187.072 54.382 185.922H54.06V184.703ZM74.553 186.796H92.608V188.337H74.553V186.796ZM73.242 192.178H93.758V193.742H73.242V192.178ZM77.474 199.63H89.664V201.01H77.474V199.63ZM77.497 203.54H89.687V205.012H77.497V203.54ZM82.557 184.68H84.351V187.647H82.557V184.68ZM76.623 195.743H90.676V205.817H88.882V197.215H78.348V205.863H76.623V195.743ZM87.732 188.268L89.595 188.728C88.997 189.993 88.307 191.396 87.732 192.316L86.122 191.879C86.697 190.89 87.387 189.349 87.732 188.268ZM77.727 188.728L79.383 188.36C80.096 189.441 80.694 190.89 80.878 191.856L79.107 192.316C78.946 191.304 78.371 189.809 77.727 188.728ZM107.029 187.716C106.891 187.21 106.684 186.52 106.454 185.899L108.432 185.669C108.639 187.003 109.237 188.981 109.766 190.476C110.479 192.454 111.652 194.593 112.641 195.927C112.94 196.387 113.285 196.778 113.63 197.146L112.71 198.457C111.606 198.181 108.8 197.928 107.144 197.813L107.282 196.295C108.57 196.41 110.272 196.548 111.1 196.64C110.134 195.168 108.869 192.891 108.11 190.798C107.604 189.487 107.282 188.429 107.029 187.716ZM98.611 189.51C102.452 189.947 106.086 189.97 108.708 189.694C110.525 189.487 112.802 189.073 114.596 188.452L114.803 190.269C113.17 190.729 110.985 191.097 109.306 191.304C106.385 191.649 102.728 191.672 98.657 191.327L98.611 189.51ZM102.176 196.824C101.486 197.951 101.072 198.94 101.072 200.021C101.072 202.229 103.073 203.172 106.5 203.218C108.823 203.218 110.824 202.988 112.411 202.643L112.342 204.483C110.893 204.736 108.961 204.989 106.385 204.966C102.015 204.943 99.255 203.379 99.255 200.251C99.255 198.963 99.715 197.767 100.382 196.41L102.176 196.824ZM140.402 202.252C139.16 203.494 137.734 204.184 136.17 204.184C134.629 204.184 133.617 203.172 133.617 201.286C133.617 198.71 134.468 194.938 134.468 192.707C134.468 191.373 133.801 190.798 132.628 190.798C130.466 190.798 127.131 193.65 124.969 196.272L124.992 193.995C126.418 192.431 130.236 189.119 133.065 189.119C135.227 189.119 136.285 190.338 136.285 192.201C136.285 194.501 135.411 198.457 135.411 200.78C135.411 201.562 135.802 202.183 136.63 202.183C137.711 202.183 138.93 201.516 140.103 200.297L140.402 202.252ZM124.946 191.258C124.187 191.373 121.703 191.672 120.001 191.948L119.794 190.039C120.3 190.062 120.737 190.062 121.312 190.016C122.531 189.947 125.406 189.602 126.464 189.257L127.131 190.039C126.74 190.637 126.119 191.626 125.728 192.27L125.038 195.421C123.98 197.054 121.841 200.159 120.392 202.16L119.242 200.596C120.668 198.802 123.773 194.593 124.67 193.075L124.762 191.879L124.946 191.258ZM124.716 187.463C124.716 186.934 124.739 186.336 124.624 185.761L126.786 185.83C126.464 187.325 125.774 193.903 125.774 197.951C125.774 200.044 125.774 201.447 125.866 203.494C125.889 203.885 125.958 204.46 125.981 204.897H124.003C124.049 204.46 124.072 203.908 124.072 203.54C124.072 201.309 124.095 200.159 124.118 197.629C124.164 195.605 124.716 188.314 124.716 187.463ZM151.166 185.922C151.028 186.428 150.867 187.302 150.775 187.739C150.43 189.395 149.947 191.994 149.303 194.294C148.475 197.56 146.934 202.321 145.715 204.828L143.714 204.161C145.094 201.769 146.704 197.1 147.578 193.857C148.13 191.741 148.728 188.843 148.889 187.647C148.981 187.003 149.027 186.221 148.981 185.738L151.166 185.922ZM146.083 189.763C148.613 189.763 151.994 189.349 154.846 188.636V190.43C151.994 191.074 148.521 191.465 146.037 191.465C145.025 191.465 144.22 191.442 143.369 191.373L143.323 189.579C144.404 189.717 145.232 189.763 146.083 189.763ZM153.351 192.914C154.547 192.799 156.088 192.73 157.56 192.73C158.894 192.73 160.297 192.776 161.539 192.914L161.493 194.662C160.297 194.524 158.963 194.386 157.606 194.386C156.18 194.386 154.754 194.478 153.351 194.639V192.914ZM153.811 198.503C153.627 199.262 153.489 199.975 153.489 200.573C153.489 201.654 154.11 202.712 157.376 202.712C158.894 202.712 160.458 202.551 161.884 202.275L161.815 204.115C160.573 204.299 159.032 204.437 157.353 204.437C153.742 204.437 151.764 203.333 151.764 201.056C151.764 200.182 151.902 199.308 152.109 198.342L153.811 198.503ZM165.61 186.612H185.367V188.107H165.61V186.612ZM166.99 190.384H184.355V191.879H166.99V190.384ZM168.508 198.664H182.814V200.182H168.508V198.664ZM168.531 193.673H183.918V201.332H182.193V195.145H168.531V193.673ZM167.496 193.673H169.198V196.732C169.198 199.515 168.669 203.379 165.978 205.955C165.725 205.61 165.035 205.012 164.644 204.782C167.151 202.39 167.496 199.124 167.496 196.709V193.673ZM174.557 184.634H176.305V191.212H174.557V184.634ZM174.603 194.179H176.282V199.584H174.603V194.179ZM197.58 185.83C197.373 186.727 197.12 187.992 196.522 189.533C195.947 190.936 195.096 192.477 194.176 193.673C195.073 193.144 196.384 192.822 197.396 192.822C199.167 192.822 200.547 193.88 200.547 195.743C200.547 196.939 200.593 199.584 200.616 201.01H198.845C198.937 199.791 198.96 197.422 198.937 196.226C198.914 194.892 197.994 194.271 196.798 194.271C195.326 194.271 193.877 195.007 192.819 195.95C192.152 196.594 191.508 197.422 190.749 198.365L189.162 197.192C192.474 194.018 194.015 191.35 194.797 189.395C195.303 188.13 195.625 186.75 195.694 185.669L197.58 185.83ZM189.691 188.314C190.933 188.475 192.52 188.544 193.578 188.544C196.683 188.544 200.662 188.36 203.905 187.785V189.487C200.685 189.97 196.407 190.177 193.486 190.177C192.497 190.177 190.979 190.131 189.691 190.039V188.314ZM207.263 193.857C206.688 194.041 205.86 194.363 205.239 194.593C203.606 195.237 201.421 196.111 199.19 197.261C196.913 198.457 195.303 199.699 195.303 201.286C195.303 203.08 197.074 203.356 199.443 203.356C201.237 203.356 203.721 203.149 205.745 202.781L205.676 204.644C203.928 204.851 201.375 205.035 199.374 205.035C196.108 205.035 193.463 204.322 193.463 201.539C193.463 198.733 196.315 197.008 199.052 195.605C201.237 194.478 203.1 193.765 204.618 193.052C205.308 192.73 205.883 192.477 206.527 192.155L207.263 193.857ZM223.386 193.972H225.157V202.85C225.157 203.655 225.341 203.793 226.238 203.793C226.652 203.793 228.653 203.793 229.228 203.793C230.171 203.793 230.309 203.195 230.401 199.653C230.792 199.975 231.551 200.274 232.011 200.412C231.827 204.368 231.367 205.449 229.343 205.449C228.883 205.449 226.468 205.449 226.031 205.449C223.938 205.449 223.386 204.851 223.386 202.85V193.972ZM211.357 192.937H231.666V194.616H211.357V192.937ZM213.358 186.474H229.711V188.153H213.358V186.474ZM217.245 194.225H219.062C218.671 199.377 217.659 203.609 212.162 205.794C211.978 205.38 211.472 204.759 211.081 204.437C216.164 202.528 216.9 198.71 217.245 194.225ZM243.465 188.475C245.972 188.912 250.641 188.82 252.918 188.475V190.338C250.457 190.614 245.995 190.614 243.488 190.338L243.465 188.475ZM244.362 197.859C244.155 198.687 244.04 199.331 244.04 199.952C244.04 201.01 244.776 202.045 247.927 202.045C249.974 202.045 251.768 201.861 253.608 201.424L253.654 203.356C252.228 203.655 250.296 203.839 247.904 203.839C244.063 203.839 242.338 202.551 242.338 200.389C242.338 199.63 242.453 198.802 242.706 197.698L244.362 197.859ZM239.095 186.704C238.957 187.095 238.773 187.831 238.681 188.245C238.244 190.384 237.531 194.478 237.531 197.077C237.531 198.181 237.6 199.147 237.738 200.274C238.129 199.239 238.658 197.859 239.049 196.916L240.015 197.675C239.44 199.308 238.589 201.723 238.382 202.827C238.313 203.149 238.267 203.586 238.267 203.862C238.29 204.092 238.313 204.414 238.336 204.667L236.703 204.782C236.243 203.149 235.852 200.504 235.852 197.376C235.852 193.995 236.611 190.062 236.887 188.153C236.956 187.624 237.025 187.049 237.048 186.543L239.095 186.704ZM50.61 214.612H70.367V216.107H50.61V214.612ZM51.99 218.384H69.355V219.879H51.99V218.384ZM53.508 226.664H67.814V228.182H53.508V226.664ZM53.531 221.673H68.918V229.332H67.193V223.145H53.531V221.673ZM52.496 221.673H54.198V224.732C54.198 227.515 53.669 231.379 50.978 233.955C50.725 233.61 50.035 233.012 49.644 232.782C52.151 230.39 52.496 227.124 52.496 224.709V221.673ZM59.557 212.634H61.305V219.212H59.557V212.634ZM59.603 222.179H61.282V227.584H59.603V222.179ZM81.752 214.152C81.66 214.566 81.568 215.072 81.476 215.509C81.315 216.337 81.016 218.223 80.694 219.649C79.912 222.892 78.279 228.619 75.68 232.805L73.794 232.069C76.416 228.55 78.256 222.409 78.877 219.603C79.314 217.763 79.613 215.693 79.613 213.922L81.752 214.152ZM89.664 216.797C91.09 218.66 93.091 222.846 93.873 224.962L92.079 225.813C91.412 223.467 89.595 219.465 87.985 217.556L89.664 216.797ZM73.472 219.189C74.185 219.235 74.783 219.212 75.519 219.189C77.244 219.143 81.913 218.637 83.477 218.637C85.524 218.637 87.203 219.419 87.203 222.524C87.203 225.261 86.835 228.918 85.869 230.827C85.156 232.368 84.006 232.759 82.511 232.759C81.637 232.759 80.533 232.598 79.82 232.414L79.498 230.505C80.464 230.804 81.683 230.965 82.327 230.965C83.178 230.965 83.868 230.781 84.328 229.792C85.064 228.228 85.432 225.238 85.432 222.754C85.432 220.638 84.466 220.247 82.994 220.247C81.453 220.247 77.129 220.776 75.726 220.914C75.197 220.983 74.254 221.098 73.656 221.19L73.472 219.189ZM89.917 213.462C90.492 214.29 91.32 215.693 91.803 216.636L90.561 217.188C90.101 216.245 89.319 214.865 88.675 213.991L89.917 213.462ZM92.447 212.542C93.068 213.393 93.942 214.842 94.402 215.693L93.137 216.245C92.654 215.233 91.895 213.922 91.228 213.071L92.447 212.542ZM98.2507 232H95.5717L101.591 215.273H104.507L110.527 232H107.848L103.119 218.311H102.988L98.2507 232ZM98.6999 225.45H107.39V227.573H98.6999V225.45ZM115.466 215.273V232H112.942V215.273H115.466ZM128.482 213.255H130.23V230.321C130.23 231.609 130.46 231.885 131.748 231.885C132.369 231.885 135.497 231.885 136.279 231.885C137.544 231.885 137.728 231.034 137.889 227.676C138.326 227.998 139.039 228.32 139.545 228.435C139.269 232.207 138.763 233.518 136.371 233.518C135.773 233.518 132.162 233.518 131.633 233.518C129.218 233.518 128.482 232.828 128.482 230.298V213.255ZM137.107 217.073L138.372 218.545C136.049 220.454 132.668 222.317 129.632 223.904C129.517 223.513 129.172 222.915 128.919 222.547C131.863 221.006 135.152 218.867 137.107 217.073ZM124.48 213.048L126.159 213.6C124.434 217.648 121.674 221.581 118.822 224.134C118.638 223.72 118.109 222.823 117.764 222.409C120.432 220.178 122.962 216.682 124.48 213.048ZM121.858 219.051L123.537 217.372L123.56 217.395V233.817H121.858V219.051ZM152.333 215.716C152.195 215.21 151.988 214.52 151.758 213.899L153.736 213.669C153.943 215.003 154.541 216.981 155.07 218.476C155.783 220.454 156.956 222.593 157.945 223.927C158.244 224.387 158.589 224.778 158.934 225.146L158.014 226.457C156.91 226.181 154.104 225.928 152.448 225.813L152.586 224.295C153.874 224.41 155.576 224.548 156.404 224.64C155.438 223.168 154.173 220.891 153.414 218.798C152.908 217.487 152.586 216.429 152.333 215.716ZM143.915 217.51C147.756 217.947 151.39 217.97 154.012 217.694C155.829 217.487 158.106 217.073 159.9 216.452L160.107 218.269C158.474 218.729 156.289 219.097 154.61 219.304C151.689 219.649 148.032 219.672 143.961 219.327L143.915 217.51ZM147.48 224.824C146.79 225.951 146.376 226.94 146.376 228.021C146.376 230.229 148.377 231.172 151.804 231.218C154.127 231.218 156.128 230.988 157.715 230.643L157.646 232.483C156.197 232.736 154.265 232.989 151.689 232.966C147.319 232.943 144.559 231.379 144.559 228.251C144.559 226.963 145.019 225.767 145.686 224.41L147.48 224.824ZM185.706 230.252C184.464 231.494 183.038 232.184 181.474 232.184C179.933 232.184 178.921 231.172 178.921 229.286C178.921 226.71 179.772 222.938 179.772 220.707C179.772 219.373 179.105 218.798 177.932 218.798C175.77 218.798 172.435 221.65 170.273 224.272L170.296 221.995C171.722 220.431 175.54 217.119 178.369 217.119C180.531 217.119 181.589 218.338 181.589 220.201C181.589 222.501 180.715 226.457 180.715 228.78C180.715 229.562 181.106 230.183 181.934 230.183C183.015 230.183 184.234 229.516 185.407 228.297L185.706 230.252ZM170.25 219.258C169.491 219.373 167.007 219.672 165.305 219.948L165.098 218.039C165.604 218.062 166.041 218.062 166.616 218.016C167.835 217.947 170.71 217.602 171.768 217.257L172.435 218.039C172.044 218.637 171.423 219.626 171.032 220.27L170.342 223.421C169.284 225.054 167.145 228.159 165.696 230.16L164.546 228.596C165.972 226.802 169.077 222.593 169.974 221.075L170.066 219.879L170.25 219.258ZM170.02 215.463C170.02 214.934 170.043 214.336 169.928 213.761L172.09 213.83C171.768 215.325 171.078 221.903 171.078 225.951C171.078 228.044 171.078 229.447 171.17 231.494C171.193 231.885 171.262 232.46 171.285 232.897H169.307C169.353 232.46 169.376 231.908 169.376 231.54C169.376 229.309 169.399 228.159 169.422 225.629C169.468 223.605 170.02 216.314 170.02 215.463ZM199.46 213.761C199.414 214.152 199.368 214.612 199.345 215.302C199.299 216.222 199.299 219.304 199.299 221.236C199.299 224.272 199.644 228.297 199.644 229.838C199.644 231.448 198.586 233.081 195.596 233.081C192.284 233.081 190.467 231.908 190.467 229.677C190.467 227.584 192.468 226.181 195.78 226.181C200.633 226.181 204.428 228.803 206.199 230.252L205.141 231.885C203.071 229.976 199.667 227.676 195.573 227.676C193.365 227.676 192.192 228.527 192.192 229.585C192.192 230.666 193.089 231.448 195.366 231.448C196.7 231.448 197.827 231.057 197.827 229.447C197.827 227.676 197.597 223.26 197.597 221.236C197.597 219.166 197.597 216.751 197.597 215.141C197.597 214.75 197.574 214.06 197.505 213.761H199.46ZM190.674 216.245C192.146 216.521 195.021 216.751 196.539 216.751C199.46 216.751 202.542 216.544 205.532 216.061V217.74C202.933 218.039 199.644 218.338 196.562 218.338C194.975 218.338 192.146 218.131 190.697 217.947L190.674 216.245ZM190.559 221.144C192.192 221.397 194.814 221.558 196.332 221.558C199.667 221.558 202.726 221.328 205.716 220.891V222.616C202.588 223.007 199.782 223.168 196.332 223.168C194.745 223.168 192.215 223.053 190.582 222.869L190.559 221.144ZM223.725 213.784C223.679 214.06 223.61 214.957 223.61 215.233C223.541 216.728 223.587 221.167 223.61 223.007L221.862 222.11C221.862 221.098 221.839 216.521 221.77 215.256C221.724 214.635 221.655 213.991 221.609 213.784H223.725ZM211.489 217.004C214.617 216.958 220.367 216.751 223.909 216.751C226.715 216.751 229.567 216.751 230.648 216.774L230.625 218.476C229.337 218.407 227.267 218.361 223.886 218.361C219.93 218.361 215.008 218.522 211.535 218.775L211.489 217.004ZM223.564 223.674C223.564 226.756 222.138 228.297 220.045 228.297C218.113 228.297 216.25 226.94 216.25 224.433C216.25 222.156 218.136 220.454 220.321 220.454C222.989 220.454 224.346 222.432 224.346 225.077C224.346 228.205 222.828 231.655 217.492 233.242L215.951 231.747C220.137 230.758 222.575 228.711 222.575 224.916C222.575 222.846 221.563 221.972 220.321 221.972C219.102 221.972 217.975 222.915 217.975 224.41C217.975 225.859 219.056 226.687 220.321 226.687C221.747 226.687 222.667 225.491 222.299 223.03L223.564 223.674ZM234.475 226.411C236.407 226.411 237.971 227.975 237.971 229.907C237.971 231.839 236.407 233.403 234.475 233.403C232.543 233.403 230.956 231.839 230.956 229.907C230.956 227.975 232.543 226.411 234.475 226.411ZM234.475 232.23C235.763 232.23 236.798 231.195 236.798 229.907C236.798 228.619 235.763 227.584 234.475 227.584C233.187 227.584 232.129 228.619 232.129 229.907C232.129 231.195 233.187 232.23 234.475 232.23Z" fill="#717171"/>
<path d="M304 207.56C307.143 211.284 310.542 238.132 314.169 241.379L484.346 241.741C487.973 238.494 491.372 211.645 494.515 207.921L304 207.56Z" fill="#E6E6E6"/>
<path d="M530.394 200.085C530.386 200.067 530.383 200.053 530.376 200.038C530.236 199.662 530.073 199.295 529.887 198.939C528.835 196.961 529.949 193.924 528.763 190.569C526.846 185.131 524.51 181.924 521.085 179.049C520.984 178.962 520.883 178.879 520.778 178.793L520.774 178.789C518.489 176.912 515.733 175.159 512.312 172.975C511.6 172.519 509.137 173.835 509.195 171.579C509.26 169.074 509.329 166.478 508.099 164.858L508.019 164.753L507.893 164.72C503.677 163.887 499.378 163.555 495.084 163.733H495.08C493.257 163.801 491.447 164.066 489.681 164.525C489.551 164.561 489.421 164.597 489.294 164.641C489.196 164.666 489.099 164.699 489.001 164.731L488.922 164.76L488.86 164.818C487.67 166.008 487.396 168.141 487.265 170.364V170.368C487.24 170.773 487.218 171.178 487.2 171.583C487.099 173.745 481.881 175.491 479.892 176.471C476.156 178.315 476.719 182.612 476.676 182.612C476.676 182.612 470.395 195.504 470.319 208.56C470.316 209.287 470.311 210.017 470.305 210.751C470.261 216.833 470.146 223.019 469.69 228.656C469.491 231.078 469.234 233.396 468.891 235.562C467.22 246.109 459.651 237.352 456.031 244.37C456.15 245.06 456.351 245.733 456.628 246.376C457.044 246.622 457.471 246.861 457.894 247.099C459.771 248.144 461.682 249.119 463.629 250.025C463.738 250.075 463.846 250.126 463.955 250.173C467.525 251.825 471.206 253.228 474.97 254.374C475.704 254.598 476.438 254.812 477.179 255.014C483.737 256.824 490.49 257.835 497.29 258.026C497.317 258.023 497.345 258.022 497.373 258.022C505.415 257.8 513.405 256.649 521.183 254.591C521.291 254.562 521.4 254.533 521.508 254.504C522.018 254.367 522.524 254.23 523.031 254.085C527.507 252.811 531.893 251.239 536.158 249.377C536.162 249.536 536.178 249.694 536.205 249.851C536.209 249.902 536.216 249.953 536.227 250.003C536.234 249.945 536.241 249.887 536.245 249.829C536.266 249.659 536.284 249.486 536.303 249.312C538.516 227.734 533.919 209.413 530.394 200.085Z" fill="#CCCCCC"/>
<path d="M498.379 161.859C509.977 161.859 519.379 152.459 519.379 140.863C519.379 129.267 509.977 119.866 498.379 119.866C486.781 119.866 477.379 129.267 477.379 140.863C477.379 152.459 486.781 161.859 498.379 161.859Z" fill="#FFB6B6"/>
<path d="M499.936 162.237C503.137 161.665 506.284 160.821 509.342 159.714C512.345 158.469 518.34 151.983 519.689 148.519C520.691 145.946 520.921 142.188 520.937 139.489C521.004 132.26 518.003 125.342 512.678 120.451C511.647 119.426 510.359 118.699 508.948 118.345C508.825 118.323 508.7 118.306 508.574 118.295C506.594 118.167 504.698 117.449 503.129 116.236C502.822 115.988 502.498 115.763 502.159 115.562C500.469 114.62 498.581 114.091 496.648 114.019C493.508 113.802 489.343 115.436 484.271 118.878C481.722 120.607 478.598 120.769 476.16 120.717C475.883 120.718 475.627 120.865 475.488 121.105C474.675 122.232 473.465 123.011 472.101 123.283C471.273 123.483 470.621 124.811 469.855 126.526C469.681 126.916 469.478 127.37 469.323 127.653L469.205 127.191L468.834 127.804C466.923 130.959 467.933 135.065 471.088 136.975C471.936 137.488 472.888 137.806 473.874 137.906C474.758 137.966 475.647 137.936 476.525 137.815C477.061 137.76 477.614 137.703 478.154 137.692C481.695 137.726 484.959 139.618 486.748 142.674C487.491 143.924 489.108 144.334 490.357 143.591C490.554 143.474 490.734 143.332 490.894 143.169C491.829 142.095 493.231 141.547 494.647 141.702C495.277 141.908 495.817 142.323 496.177 142.879C496.603 143.494 497.202 143.969 497.898 144.242C500.229 144.921 501.318 149.731 501.343 153.912C501.367 157.942 500.465 161.037 499.149 161.438C498.137 161.746 498.033 161.842 497.994 162.04L497.959 162.216L498.105 162.347C498.716 162.442 499.34 162.405 499.936 162.237Z" fill="#2F2E41"/>
<path d="M425.609 227.152C429.63 227.152 432.889 226.112 432.889 224.829C432.889 223.546 429.63 222.505 425.609 222.505C421.588 222.505 418.328 223.546 418.328 224.829C418.328 226.112 421.588 227.152 425.609 227.152Z" fill="#3F3D56"/>
<path d="M425.609 225.603C429.63 225.603 432.889 224.563 432.889 223.28C432.889 221.997 429.63 220.956 425.609 220.956C421.588 220.956 418.328 221.997 418.328 223.28C418.328 224.563 421.588 225.603 425.609 225.603Z" fill="#3F3D56"/>
<path d="M424.33 224.836L425.415 224.82L425.116 204.566C425.027 197.84 428.521 191.575 434.29 188.115L454.997 175.74L454.44 174.808L433.734 187.184C427.633 190.843 423.937 197.469 424.031 204.582L424.33 224.836Z" fill="#3F3D56"/>
<path d="M454.46 184.87C453.005 184.87 451.826 183.692 451.826 182.237V165.821C451.826 164.367 453.005 163.188 454.46 163.188C455.914 163.188 457.093 164.367 457.093 165.821V182.237C457.093 183.692 455.914 184.87 454.46 184.87Z" fill="#4586B2"/>
<path d="M420.022 197.321C420.934 200.658 424.379 202.624 427.717 201.711C428.073 201.614 428.419 201.486 428.753 201.327L444.369 217.193L446.785 205.88L431.585 192.549C429.888 189.513 426.051 188.427 423.014 190.123C420.473 191.543 419.236 194.519 420.022 197.321Z" fill="#FFB6B6"/>
<path d="M501.591 180.755L501.492 180.7L490.106 176.785C487.181 175.779 483.966 176.078 481.277 177.604C480.66 177.954 480.079 178.364 479.544 178.829L479.541 178.83C477.757 180.371 476.527 182.455 476.041 184.761L470.06 213.151L458.035 206.671L453.135 205.501L448.675 201.026L437.536 196.491L436.918 197.229L431.313 203.927L430.873 204.453L443.214 222.304L448.745 222.906L450.295 225.662L450.404 225.712L454.939 227.756L474.28 236.468L483.646 229.301L485.111 228.176C497.228 216.952 502.892 207.923 505.257 201.047C506.509 197.414 506.838 194.387 506.714 191.947C506.329 184.406 501.784 180.899 501.591 180.755Z" fill="#CCCCCC"/>
<path d="M512.297 187.674H506.872C491.194 187.674 478.484 200.381 478.484 216.056C473.424 222.313 473.734 230.169 478.484 239.349L462.936 232.868C460.721 231.95 458.183 233.001 457.265 235.215C456.351 237.422 457.392 239.953 459.596 240.877L478.484 248.75V250.216C478.484 254.813 482.212 258.54 486.81 258.54H532.359C536.957 258.54 540.685 254.813 540.685 250.216C544.061 237.83 546.175 225.817 540.685 216.056C540.685 200.381 527.975 187.674 512.297 187.674Z" fill="#3F3D56"/>
<path d="M58.9119 39.6925L54.8956 39.9396C54.8269 39.5964 54.6793 39.2874 54.4528 39.0128C54.2262 38.7313 53.9276 38.5082 53.5568 38.3434C53.1929 38.1718 52.757 38.0859 52.2489 38.0859C51.5692 38.0859 50.996 38.2301 50.5291 38.5185C50.0623 38.8 49.8288 39.1776 49.8288 39.6513C49.8288 40.0289 49.9799 40.3481 50.282 40.609C50.584 40.8699 51.1024 41.0793 51.837 41.2372L54.6999 41.8139C56.2378 42.1297 57.3844 42.6378 58.1396 43.3381C58.8948 44.0384 59.2724 44.9583 59.2724 46.098C59.2724 47.1347 58.9669 48.0444 58.3558 48.8271C57.7517 49.6097 56.9209 50.2208 55.8636 50.6602C54.8132 51.0927 53.6014 51.3089 52.2283 51.3089C50.1344 51.3089 48.466 50.873 47.2234 50.0011C45.9876 49.1223 45.2633 47.9277 45.0504 46.4173L49.3654 46.1907C49.4959 46.8292 49.8117 47.3166 50.3129 47.6531C50.814 47.9826 51.456 48.1474 52.2386 48.1474C53.0076 48.1474 53.6255 47.9998 54.0923 47.7045C54.5661 47.4025 54.8063 47.0146 54.8132 46.5408C54.8063 46.1426 54.6381 45.8165 54.3086 45.5625C53.979 45.3016 53.471 45.1025 52.7844 44.9652L50.0451 44.4194C48.5004 44.1104 47.3504 43.5749 46.5952 42.8129C45.8468 42.0508 45.4727 41.0793 45.4727 39.8984C45.4727 38.8823 45.7473 38.007 46.2965 37.2724C46.8526 36.5378 47.6319 35.9714 48.6342 35.5732C49.6435 35.175 50.8243 34.9759 52.1768 34.9759C54.1747 34.9759 55.7469 35.3981 56.8935 36.2425C58.0469 37.087 58.7197 38.237 58.9119 39.6925ZM70.4486 35.1818V38.4773H60.9227V35.1818H70.4486ZM63.0853 31.392H67.4724V46.1392C67.4724 46.5443 67.5342 46.8601 67.6578 47.0866C67.7813 47.3063 67.953 47.4608 68.1727 47.5501C68.3992 47.6393 68.6601 47.6839 68.9553 47.6839C69.1613 47.6839 69.3673 47.6668 69.5732 47.6325C69.7792 47.5913 69.9371 47.5604 70.047 47.5398L70.7369 50.8043C70.5173 50.873 70.2083 50.9519 69.8101 51.0412C69.4119 51.1373 68.9279 51.1957 68.358 51.2163C67.3008 51.2575 66.3739 51.1167 65.5775 50.794C64.788 50.4714 64.1735 49.9702 63.7341 49.2905C63.2947 48.6108 63.0785 47.7526 63.0853 46.7159V31.392ZM80.3453 51.3089C78.7181 51.3089 77.3176 50.9794 76.1436 50.3203C74.9764 49.6544 74.077 48.7138 73.4454 47.4986C72.8138 46.2765 72.498 44.8313 72.498 43.163C72.498 41.5359 72.8138 40.1078 73.4454 38.8789C74.077 37.65 74.9661 36.6922 76.1127 36.0057C77.2661 35.3191 78.6186 34.9759 80.1702 34.9759C81.2137 34.9759 82.1852 35.1441 83.0846 35.4805C83.9909 35.81 84.7804 36.3078 85.4532 36.9737C86.1329 37.6397 86.6615 38.4773 87.0392 39.4865C87.4168 40.4889 87.6056 41.6629 87.6056 43.0085V44.2134H74.2487V41.4947H83.4759C83.4759 40.863 83.3386 40.3035 83.064 39.8161C82.7894 39.3286 82.4084 38.9476 81.9209 38.6729C81.4403 38.3915 80.8808 38.2507 80.2423 38.2507C79.5763 38.2507 78.9859 38.4052 78.471 38.7141C77.9629 39.0162 77.5647 39.4247 77.2764 39.9396C76.988 40.4477 76.8404 41.0141 76.8335 41.6388V44.2237C76.8335 45.0064 76.9777 45.6826 77.2661 46.2525C77.5613 46.8223 77.9767 47.2617 78.5122 47.5707C79.0477 47.8796 79.6827 48.0341 80.4173 48.0341C80.9048 48.0341 81.3511 47.9654 81.7561 47.8281C82.1612 47.6908 82.5079 47.4848 82.7963 47.2102C83.0846 46.9356 83.3043 46.5992 83.4553 46.201L87.5129 46.4688C87.3069 47.4437 86.8847 48.295 86.2462 49.0227C85.6146 49.7436 84.7976 50.3066 83.7952 50.7116C82.7997 51.1098 81.6497 51.3089 80.3453 51.3089ZM90.4685 56.9318V35.1818H94.7938V37.8388H94.9894C95.1817 37.4131 95.4597 36.9806 95.8236 36.5412C96.1943 36.0949 96.6749 35.7242 97.2654 35.429C97.8627 35.1269 98.6041 34.9759 99.4898 34.9759C100.643 34.9759 101.707 35.2779 102.682 35.8821C103.657 36.4794 104.436 37.3822 105.02 38.5906C105.604 39.792 105.895 41.299 105.895 43.1115C105.895 44.8759 105.61 46.3658 105.041 47.581C104.478 48.7893 103.709 49.7058 102.734 50.3306C101.766 50.9485 100.681 51.2575 99.4795 51.2575C98.6282 51.2575 97.9039 51.1167 97.3066 50.8352C96.7161 50.5537 96.2321 50.2002 95.8545 49.7745C95.4769 49.342 95.1885 48.906 94.9894 48.4666H94.8556V56.9318H90.4685ZM94.7629 43.0909C94.7629 44.0315 94.8933 44.8519 95.1542 45.5522C95.4151 46.2525 95.7927 46.7983 96.287 47.1896C96.7813 47.5741 97.3821 47.7663 98.0892 47.7663C98.8032 47.7663 99.4074 47.5707 99.9017 47.1793C100.396 46.7811 100.77 46.2319 101.024 45.5316C101.285 44.8245 101.416 44.0109 101.416 43.0909C101.416 42.1778 101.289 41.3745 101.035 40.6811C100.781 39.9877 100.406 39.4453 99.912 39.054C99.4177 38.6626 98.8101 38.467 98.0892 38.467C97.3752 38.467 96.771 38.6558 96.2767 39.0334C95.7893 39.411 95.4151 39.9465 95.1542 40.6399C94.8933 41.3333 94.7629 42.1503 94.7629 43.0909ZM117.955 29.9091V51H113.495V34.1417H113.372L108.542 37.1694V33.2148L113.763 29.9091H117.955Z" fill="#3270E3"/>
</svg>
