<svg width="568" height="291" viewBox="0 0 568 291" fill="none" xmlns="http://www.w3.org/2000/svg">
<rect x="0.25" y="0.25" width="567.5" height="290.5" rx="38.75" stroke="black" stroke-width="0.5"/>
<path d="M47.18 140.978H93.661V146.384H47.18V140.978ZM50.572 149.617H91.276V154.97H50.572V149.617ZM55.448 168.644H86.135V173.997H55.448V168.644ZM55.607 157.885H90.481V176.806H84.121V163.079H55.607V157.885ZM51.42 157.885H57.727V164.563C57.727 171.347 56.402 180.993 49.936 187.035C48.982 185.816 46.332 183.537 44.954 182.742C50.784 177.389 51.42 169.916 51.42 164.457V157.885ZM67.108 136.95H73.574V152.479H67.108V136.95ZM67.32 159.687H73.468V171.983H67.32V159.687ZM128.323 145.695C127.581 151.101 126.521 157.302 124.666 163.556C121.486 174.262 116.928 180.834 111.151 180.834C105.215 180.834 100.339 174.315 100.339 165.358C100.339 153.168 110.992 142.674 124.719 142.674C137.81 142.674 146.131 151.79 146.131 163.397C146.131 174.527 139.294 182.424 125.938 184.491L121.91 178.237C123.977 177.972 125.461 177.707 126.892 177.389C133.623 175.746 138.923 170.923 138.923 163.132C138.923 154.811 133.729 148.875 124.56 148.875C113.324 148.875 107.176 158.044 107.176 164.722C107.176 170.075 109.296 172.672 111.31 172.672C113.589 172.672 115.603 169.28 117.829 162.125C119.366 157.143 120.532 151.048 121.062 145.483L128.323 145.695ZM196.428 160.853L201.41 163.874C199.184 166.312 196.852 168.856 194.944 170.552L190.969 167.902C192.718 166.047 195.103 163.026 196.428 160.853ZM172.843 164.298L176.977 161.595C179.15 163.556 181.482 166.312 182.489 168.326L178.037 171.294C177.189 169.28 174.91 166.365 172.843 164.298ZM175.122 138.805H197.011V157.408H191.128V143.999H175.122V138.805ZM176.288 146.808H194.467V151.684H176.288V146.808ZM172.578 154.387H200.986V159.793H172.578V154.387ZM183.496 157.143H189.379V180.781C189.379 183.378 189.061 184.915 187.365 185.816C185.775 186.717 183.655 186.77 180.74 186.77C180.581 185.18 179.892 182.901 179.203 181.311C180.687 181.364 182.277 181.364 182.807 181.364C183.337 181.364 183.496 181.205 183.496 180.622V157.143ZM171.041 178.078C173.744 176.541 177.719 174.05 181.641 171.506L183.549 176.276C180.422 178.661 176.977 181.152 173.956 183.166L171.041 178.078ZM189.22 160.906C190.916 167.213 194.944 175.11 202.205 178.82C200.933 179.933 199.025 182.424 198.124 184.014C191.181 179.562 187.365 170.446 185.722 164.298L189.22 160.906ZM155.3 150.2H170.988V155.5H155.3V150.2ZM152.756 159.369H172.101V164.775H152.756V159.369ZM153.286 167.743L157.314 166.736C158.215 169.704 158.957 173.414 159.222 175.958L154.929 177.071C154.823 174.527 154.081 170.711 153.286 167.743ZM152.173 179.88C157.208 179.138 164.734 177.76 171.889 176.488L172.366 181.735C165.741 183.113 158.745 184.597 153.392 185.657L152.173 179.88ZM167.967 166.312L172.525 167.425C171.571 170.446 170.723 173.785 169.928 176.011L166.112 174.951C166.801 172.566 167.596 168.856 167.967 166.312ZM160.017 152.32H165.476V180.887L160.017 181.841V152.32ZM159.752 137.003H163.091V138.169H164.893V139.812C162.826 143.84 159.593 149.299 154.346 154.069C153.498 152.797 151.696 150.783 150.53 149.935C154.982 146.119 158.109 141.137 159.752 137.003ZM160.547 137.003H164.999C168.073 139.653 171.995 143.469 173.903 146.172L169.822 151.048C168.126 148.345 164.522 143.893 161.66 141.508H160.547V137.003ZM208.618 141.296H250.912V146.914H208.618V141.296ZM205.65 153.433H253.35V159.104H205.65V153.433ZM216.356 171.188H242.803V175.958H216.356V171.188ZM216.356 179.774H242.803V185.021H216.356V179.774ZM226.002 137.003H232.68V144.635H226.002V137.003ZM213.176 162.284H246.778V186.717H240.047V167.531H219.536V186.77H213.176V162.284ZM237.662 145.854L244.764 147.391C243.439 150.094 242.167 152.744 241.16 154.546L235.065 153.115C236.019 151.048 237.132 148.027 237.662 145.854ZM215.349 147.338L221.603 146.119C222.981 148.239 224.094 151.154 224.465 153.062L217.84 154.599C217.575 152.585 216.515 149.511 215.349 147.338Z" fill="#3270E3"/>
<path d="M304 207.56C307.143 211.284 310.542 238.132 314.169 241.379L484.346 241.741C487.973 238.494 491.372 211.645 494.515 207.921L304 207.56Z" fill="#E6E6E6"/>
<path d="M530.394 200.085C530.386 200.067 530.383 200.053 530.376 200.038C530.236 199.662 530.073 199.295 529.887 198.939C528.835 196.961 529.949 193.924 528.763 190.569C526.846 185.131 524.51 181.924 521.085 179.049C520.984 178.962 520.883 178.879 520.778 178.793L520.774 178.789C518.489 176.912 515.733 175.159 512.312 172.975C511.6 172.519 509.137 173.835 509.195 171.579C509.26 169.074 509.329 166.478 508.099 164.858L508.019 164.753L507.893 164.72C503.677 163.887 499.378 163.555 495.084 163.733H495.08C493.257 163.801 491.447 164.066 489.681 164.525C489.551 164.561 489.421 164.597 489.294 164.641C489.196 164.666 489.099 164.699 489.001 164.731L488.922 164.76L488.86 164.818C487.67 166.008 487.396 168.141 487.265 170.364V170.368C487.24 170.773 487.218 171.178 487.2 171.583C487.099 173.745 481.881 175.491 479.892 176.471C476.156 178.315 476.719 182.612 476.676 182.612C476.676 182.612 470.395 195.504 470.319 208.56C470.316 209.287 470.311 210.017 470.305 210.751C470.261 216.833 470.146 223.019 469.69 228.656C469.491 231.078 469.234 233.396 468.891 235.562C467.22 246.109 459.651 237.352 456.031 244.37C456.15 245.06 456.351 245.733 456.628 246.376C457.044 246.622 457.471 246.861 457.894 247.099C459.771 248.144 461.682 249.119 463.629 250.025C463.738 250.075 463.846 250.126 463.955 250.173C467.525 251.825 471.206 253.228 474.97 254.374C475.704 254.598 476.438 254.812 477.179 255.014C483.737 256.824 490.49 257.835 497.29 258.026C497.317 258.023 497.345 258.022 497.373 258.022C505.415 257.8 513.405 256.649 521.183 254.591C521.291 254.562 521.4 254.533 521.508 254.504C522.018 254.367 522.524 254.23 523.031 254.085C527.507 252.811 531.893 251.239 536.158 249.377C536.162 249.536 536.178 249.694 536.205 249.851C536.209 249.902 536.216 249.953 536.227 250.003C536.234 249.945 536.241 249.887 536.245 249.829C536.266 249.659 536.284 249.486 536.303 249.312C538.516 227.734 533.919 209.413 530.394 200.085Z" fill="#CCCCCC"/>
<path d="M498.379 161.859C509.977 161.859 519.379 152.459 519.379 140.863C519.379 129.267 509.977 119.866 498.379 119.866C486.781 119.866 477.379 129.267 477.379 140.863C477.379 152.459 486.781 161.859 498.379 161.859Z" fill="#FFB6B6"/>
<path d="M499.936 162.237C503.137 161.665 506.284 160.821 509.342 159.714C512.345 158.469 518.34 151.983 519.689 148.519C520.691 145.946 520.921 142.188 520.937 139.489C521.004 132.26 518.003 125.342 512.678 120.451C511.647 119.426 510.359 118.699 508.948 118.345C508.825 118.323 508.7 118.306 508.574 118.295C506.594 118.167 504.698 117.449 503.129 116.236C502.822 115.988 502.498 115.763 502.159 115.562C500.469 114.62 498.581 114.091 496.648 114.019C493.508 113.802 489.343 115.436 484.271 118.878C481.722 120.607 478.598 120.769 476.16 120.717C475.883 120.718 475.627 120.865 475.488 121.105C474.675 122.232 473.465 123.011 472.101 123.283C471.273 123.483 470.621 124.811 469.855 126.526C469.681 126.916 469.478 127.37 469.323 127.653L469.205 127.191L468.834 127.804C466.923 130.959 467.933 135.065 471.088 136.975C471.936 137.488 472.888 137.806 473.874 137.906C474.758 137.966 475.647 137.936 476.525 137.815C477.061 137.76 477.614 137.703 478.154 137.692C481.695 137.726 484.959 139.618 486.748 142.674C487.491 143.924 489.108 144.334 490.357 143.591C490.554 143.474 490.734 143.332 490.894 143.169C491.829 142.095 493.231 141.547 494.647 141.702C495.277 141.908 495.817 142.323 496.177 142.879C496.603 143.494 497.202 143.969 497.898 144.242C500.229 144.921 501.318 149.731 501.343 153.912C501.367 157.942 500.465 161.037 499.149 161.438C498.137 161.746 498.033 161.842 497.994 162.04L497.959 162.216L498.105 162.347C498.716 162.442 499.34 162.405 499.936 162.237Z" fill="#2F2E41"/>
<path d="M425.609 227.152C429.63 227.152 432.889 226.112 432.889 224.829C432.889 223.546 429.63 222.505 425.609 222.505C421.588 222.505 418.328 223.546 418.328 224.829C418.328 226.112 421.588 227.152 425.609 227.152Z" fill="#3F3D56"/>
<path d="M425.609 225.603C429.63 225.603 432.889 224.563 432.889 223.28C432.889 221.997 429.63 220.956 425.609 220.956C421.588 220.956 418.328 221.997 418.328 223.28C418.328 224.563 421.588 225.603 425.609 225.603Z" fill="#3F3D56"/>
<path d="M424.33 224.836L425.415 224.82L425.116 204.566C425.027 197.84 428.521 191.575 434.29 188.115L454.997 175.74L454.44 174.808L433.734 187.184C427.633 190.843 423.937 197.469 424.031 204.582L424.33 224.836Z" fill="#3F3D56"/>
<path d="M454.46 184.87C453.005 184.87 451.826 183.692 451.826 182.237V165.821C451.826 164.367 453.005 163.188 454.46 163.188C455.914 163.188 457.093 164.367 457.093 165.821V182.237C457.093 183.692 455.914 184.87 454.46 184.87Z" fill="#4586B2"/>
<path d="M420.022 197.321C420.934 200.658 424.379 202.624 427.717 201.711C428.073 201.614 428.419 201.486 428.753 201.327L444.369 217.193L446.785 205.88L431.585 192.549C429.888 189.513 426.051 188.427 423.014 190.123C420.473 191.543 419.236 194.519 420.022 197.321Z" fill="#FFB6B6"/>
<path d="M501.591 180.755L501.492 180.7L490.106 176.785C487.181 175.779 483.966 176.078 481.277 177.604C480.66 177.954 480.079 178.364 479.544 178.829L479.541 178.83C477.757 180.371 476.527 182.455 476.041 184.761L470.06 213.151L458.035 206.671L453.135 205.501L448.675 201.026L437.536 196.491L436.918 197.229L431.313 203.927L430.873 204.453L443.214 222.304L448.745 222.906L450.295 225.662L450.404 225.712L454.939 227.756L474.28 236.468L483.646 229.301L485.111 228.176C497.228 216.952 502.892 207.923 505.257 201.047C506.509 197.414 506.838 194.387 506.714 191.947C506.329 184.406 501.784 180.899 501.591 180.755Z" fill="#CCCCCC"/>
<path d="M512.297 187.674H506.872C491.194 187.674 478.484 200.381 478.484 216.056C473.424 222.313 473.734 230.169 478.484 239.349L462.936 232.868C460.721 231.95 458.183 233.001 457.265 235.215C456.351 237.422 457.392 239.953 459.596 240.877L478.484 248.75V250.216C478.484 254.813 482.212 258.54 486.81 258.54H532.359C536.957 258.54 540.685 254.813 540.685 250.216C544.061 237.83 546.175 225.817 540.685 216.056C540.685 200.381 527.975 187.674 512.297 187.674Z" fill="#3F3D56"/>
<path d="M69.7102 79.5043L62.7855 79.9304C62.6671 79.3385 62.4126 78.8059 62.022 78.3324C61.6314 77.8471 61.1165 77.4624 60.4773 77.1783C59.8499 76.8823 59.0982 76.7344 58.2223 76.7344C57.0504 76.7344 56.062 76.983 55.2571 77.4801C54.4522 77.9654 54.0497 78.6165 54.0497 79.4332C54.0497 80.0843 54.3101 80.6347 54.831 81.0845C55.3518 81.5343 56.2455 81.8954 57.5121 82.1676L62.4482 83.1619C65.0997 83.7064 67.0765 84.5824 68.3786 85.7898C69.6806 86.9972 70.3317 88.5833 70.3317 90.5483C70.3317 92.3357 69.8049 93.9041 68.7514 95.2536C67.7098 96.603 66.2775 97.6565 64.4545 98.4141C62.6435 99.1598 60.5542 99.5327 58.1868 99.5327C54.5765 99.5327 51.7 98.781 49.5575 97.2777C47.4268 95.7625 46.178 93.7029 45.8111 91.0987L53.2507 90.7081C53.4756 91.8089 54.0201 92.6494 54.8842 93.2294C55.7483 93.7976 56.8551 94.0817 58.2045 94.0817C59.5303 94.0817 60.5956 93.8272 61.4006 93.3182C62.2173 92.7973 62.6316 92.1286 62.6435 91.3118C62.6316 90.6252 62.3416 90.063 61.7734 89.625C61.2053 89.1752 60.3293 88.8319 59.1456 88.5952L54.4226 87.6541C51.7592 87.1214 49.7765 86.1982 48.4744 84.8842C47.1842 83.5703 46.5391 81.8954 46.5391 79.8594C46.5391 78.1075 47.0125 76.5982 47.9595 75.3317C48.9183 74.0651 50.2618 73.0885 51.9901 72.402C53.7301 71.7154 55.7661 71.3722 58.098 71.3722C61.5426 71.3722 64.2533 72.1001 66.2301 73.5561C68.2188 75.0121 69.3788 76.9948 69.7102 79.5043ZM89.601 71.7273V77.4091H73.177V71.7273H89.601ZM76.9057 65.1932H84.4696V90.6193C84.4696 91.3177 84.5762 91.8622 84.7892 92.2528C85.0023 92.6316 85.2982 92.898 85.677 93.0518C86.0676 93.2057 86.5175 93.2827 87.0265 93.2827C87.3816 93.2827 87.7367 93.2531 88.0918 93.1939C88.4469 93.1229 88.7192 93.0696 88.9086 93.0341L90.0982 98.6626C89.7194 98.781 89.1867 98.9171 88.5002 99.071C87.8136 99.2367 86.9791 99.3374 85.9966 99.3729C84.1737 99.4439 82.5757 99.2012 81.2026 98.6449C79.8413 98.0885 78.7819 97.2244 78.0243 96.0526C77.2667 94.8807 76.8939 93.401 76.9057 91.6136V65.1932ZM106.664 99.5327C103.859 99.5327 101.444 98.9645 99.4199 97.8281C97.4076 96.6799 95.8569 95.0582 94.7679 92.9631C93.6789 90.8561 93.1344 88.3643 93.1344 85.4879C93.1344 82.6825 93.6789 80.2204 94.7679 78.1016C95.8569 75.9827 97.3899 74.3314 99.3667 73.1477C101.355 71.964 103.687 71.3722 106.362 71.3722C108.162 71.3722 109.837 71.6622 111.387 72.2422C112.95 72.8104 114.311 73.6686 115.471 74.8168C116.643 75.965 117.554 77.4091 118.205 79.1491C118.856 80.8774 119.182 82.9015 119.182 85.2216V87.299H96.1529V82.6115H112.062C112.062 81.5225 111.825 80.5578 111.352 79.7173C110.878 78.8769 110.221 78.2199 109.381 77.7464C108.552 77.2611 107.588 77.0185 106.487 77.0185C105.338 77.0185 104.32 77.2848 103.433 77.8175C102.557 78.3383 101.87 79.0426 101.373 79.9304C100.876 80.8063 100.621 81.7829 100.61 82.8601V87.3168C100.61 88.6662 100.858 89.8321 101.355 90.8146C101.864 91.7971 102.58 92.5547 103.504 93.0874C104.427 93.62 105.522 93.8864 106.789 93.8864C107.629 93.8864 108.398 93.768 109.097 93.5312C109.795 93.2945 110.393 92.9394 110.89 92.4659C111.387 91.9924 111.766 91.4124 112.026 90.7259L119.022 91.1875C118.667 92.8684 117.939 94.3362 116.838 95.5909C115.749 96.8338 114.341 97.8045 112.612 98.5028C110.896 99.1894 108.913 99.5327 106.664 99.5327ZM124.118 109.227V71.7273H131.575V76.3082H131.913C132.244 75.5743 132.724 74.8286 133.351 74.071C133.99 73.3016 134.819 72.6624 135.837 72.1534C136.867 71.6326 138.145 71.3722 139.672 71.3722C141.661 71.3722 143.495 71.893 145.176 72.9347C146.857 73.9645 148.201 75.5211 149.207 77.6044C150.213 79.6759 150.716 82.2741 150.716 85.3991C150.716 88.4413 150.225 91.0099 149.242 93.1051C148.272 95.1884 146.946 96.7687 145.265 97.8459C143.596 98.9112 141.726 99.4439 139.654 99.4439C138.186 99.4439 136.938 99.2012 135.908 98.7159C134.89 98.2306 134.055 97.621 133.404 96.8871C132.753 96.1413 132.256 95.3897 131.913 94.6321H131.682V109.227H124.118ZM131.522 85.3636C131.522 86.9853 131.747 88.3999 132.197 89.6072C132.647 90.8146 133.298 91.7557 134.15 92.4304C135.002 93.0933 136.038 93.4247 137.257 93.4247C138.488 93.4247 139.53 93.0874 140.382 92.4126C141.235 91.7261 141.88 90.7791 142.318 89.5717C142.767 88.3525 142.992 86.9498 142.992 85.3636C142.992 83.7893 142.773 82.4044 142.335 81.2088C141.897 80.0133 141.252 79.0781 140.4 78.4034C139.548 77.7287 138.5 77.3913 137.257 77.3913C136.026 77.3913 134.985 77.7169 134.132 78.3679C133.292 79.0189 132.647 79.9422 132.197 81.1378C131.747 82.3333 131.522 83.742 131.522 85.3636ZM171.508 62.6364V99H163.82V69.9339H163.607L155.279 75.1541V68.3359L164.281 62.6364H171.508Z" fill="#3270E3"/>
</svg>
