<svg width="277" height="277" viewBox="0 0 277 277" fill="none" xmlns="http://www.w3.org/2000/svg">
<circle cx="138.5" cy="138.5" r="138.5" fill="#C4E8F4"/>
<mask id="mask0_968_1327" style="mask-type:alpha" maskUnits="userSpaceOnUse" x="0" y="0" width="277" height="277">
<circle cx="138.5" cy="138.5" r="138.5" fill="#C4E8F4"/>
</mask>
<g mask="url(#mask0_968_1327)">
<path d="M114.829 155.088C115.612 155.245 116.42 155.229 117.196 155.04C117.972 154.851 118.697 154.494 119.32 153.994C119.943 153.494 120.45 152.863 120.803 152.146C121.157 151.429 121.349 150.643 121.366 149.843L162.633 110.933L153.348 103.514L115.634 144.192C114.291 144.252 113.016 144.803 112.052 145.741C111.087 146.679 110.5 147.939 110.401 149.282C110.302 150.625 110.698 151.958 111.514 153.028C112.33 154.098 113.51 154.831 114.829 155.088Z" fill="#FFB7B7"/>
<path d="M156.788 117.223L148.76 107.798C148.531 107.529 148.363 107.215 148.267 106.876C148.171 106.537 148.149 106.181 148.202 105.832C148.256 105.484 148.384 105.151 148.577 104.857C148.77 104.562 149.025 104.313 149.323 104.126L159.775 97.5713C161.151 96.4084 162.932 95.8397 164.726 95.9898C166.52 96.14 168.182 96.9967 169.347 98.3721C170.511 99.7476 171.084 101.53 170.939 103.327C170.794 105.125 169.944 106.792 168.574 107.963L160.496 117.243C160.265 117.509 159.979 117.721 159.659 117.866C159.338 118.012 158.99 118.086 158.638 118.084C158.286 118.082 157.938 118.004 157.619 117.855C157.3 117.707 157.017 117.491 156.788 117.223Z" fill="#CBCBCB"/>
<path d="M135.2 309.223L125.11 309.222L120.311 270.236L135.202 270.237L135.2 309.223Z" fill="#FFB7B7"/>
<path d="M215.85 309.223L205.76 309.222L200.96 270.236L215.852 270.237L215.85 309.223Z" fill="#FFB7B7"/>
<path d="M188.713 137.889L198.884 100.247L185.69 92.8173H167.273L160.11 100.494C160.11 100.494 148.143 108.835 151.039 118.077L155.712 139.127L148.565 172.559L112.557 222.583L104.033 271.72L137.587 280.532L173.87 208.963L191.462 288.209L224.189 286.56L212.912 190.474C212.912 190.474 209.697 161.203 192.846 142.926L188.713 137.889Z" fill="#2F2E41"/>
<path d="M209.715 171.194C210.282 170.631 210.719 169.951 210.996 169.2C211.272 168.45 211.38 167.647 211.314 166.85C211.247 166.053 211.006 165.281 210.609 164.587C210.212 163.893 209.668 163.294 209.015 162.834L201.124 109.503L189.798 113.086L201.136 164.449C200.436 165.599 200.182 166.966 200.421 168.291C200.661 169.616 201.377 170.808 202.435 171.639C203.492 172.47 204.817 172.884 206.159 172.802C207.501 172.72 208.766 172.148 209.715 171.194Z" fill="#FFB7B7"/>
<path d="M203.075 117.873L190.788 119.292C190.438 119.332 190.084 119.297 189.75 119.188C189.415 119.079 189.108 118.899 188.849 118.66C188.59 118.421 188.385 118.129 188.249 117.804C188.113 117.479 188.049 117.128 188.06 116.776L188.458 104.43C188.262 102.637 188.783 100.839 189.908 99.4306C191.033 98.0223 192.67 97.1184 194.459 96.917C196.249 96.7156 198.045 97.2333 199.454 98.3565C200.862 99.4796 201.769 101.117 201.975 102.909L205.16 114.801C205.251 115.141 205.268 115.498 205.209 115.845C205.15 116.193 205.018 116.524 204.82 116.815C204.622 117.107 204.364 117.352 204.063 117.535C203.761 117.717 203.425 117.832 203.075 117.873Z" fill="#CBCBCB"/>
<path d="M155.885 82.1128V66.2526C155.885 60.6161 158.12 55.2104 162.099 51.2248C166.077 47.2391 171.473 45 177.1 45C182.727 45 188.123 47.2391 192.101 51.2248C196.08 55.2104 198.315 60.6161 198.315 66.2526V82.1128C198.314 82.8696 198.014 83.5953 197.48 84.1305C196.945 84.6657 196.221 84.9667 195.465 84.9676H158.735C157.979 84.9667 157.255 84.6657 156.72 84.1305C156.186 83.5953 155.886 82.8696 155.885 82.1128Z" fill="#2F2E41"/>
<path d="M172.74 84.5985C181.33 84.5985 188.294 77.6224 188.294 69.0168C188.294 60.4113 181.33 53.4352 172.74 53.4352C164.149 53.4352 157.186 60.4113 157.186 69.0168C157.186 77.6224 164.149 84.5985 172.74 84.5985Z" fill="#FFB7B7"/>
<path d="M150.868 67.5214C150.873 63.0642 152.643 58.7909 155.789 55.6392C158.935 52.4875 163.201 50.7146 167.65 50.7096H170.817C175.266 50.7146 179.532 52.4875 182.678 55.6392C185.824 58.791 187.594 63.0642 187.599 67.5214V67.8386H180.907L178.625 61.4363L178.168 67.8386H174.71L173.559 64.6083L173.328 67.8386H150.868V67.5214Z" fill="#2F2E41"/>
<path d="M171.21 86.7511C170.896 86.3249 170.708 85.8185 170.669 85.2902C170.629 84.7619 170.74 84.2332 170.987 83.7649C174.343 77.3713 179.041 65.5573 172.805 58.2716L172.356 57.748H190.461V84.9767L174.014 87.8836C173.848 87.9131 173.679 87.928 173.51 87.9282C173.061 87.9282 172.619 87.8214 172.219 87.6168C171.819 87.4122 171.473 87.1155 171.21 86.7511Z" fill="#2F2E41"/>
<path d="M94.4259 133.609L107.39 130.601C108.016 130.456 108.672 130.529 109.251 130.807C109.83 131.085 110.297 131.552 110.576 132.131L123.856 159.718C124 160.019 124.076 160.348 124.08 160.681C124.084 161.015 124.016 161.346 123.879 161.65C123.742 161.955 123.541 162.225 123.29 162.444C123.038 162.663 122.742 162.824 122.421 162.916L109.246 166.666C108.541 166.866 107.786 166.803 107.124 166.488C106.462 166.172 105.936 165.626 105.646 164.952L97.173 145.235L96.9149 145.378L95.3021 141.643L95.5702 141.506C95.2914 139.844 91.0645 134.39 94.4259 133.609Z" fill="#3F3D56"/>
<path d="M105.826 131.625C107.068 131.277 108.898 130.799 109.547 132.344L122.509 159.754C122.583 159.912 122.623 160.084 122.625 160.258C122.627 160.432 122.591 160.605 122.52 160.765C122.45 160.924 122.346 161.067 122.215 161.182C122.085 161.298 121.931 161.384 121.764 161.435L108.682 165.389C106.491 167.892 95.3929 136.241 94.5229 135.911C94.4443 135.726 94.4071 135.526 94.4139 135.325C94.4206 135.124 94.4712 134.926 94.562 134.747C94.6528 134.567 94.7816 134.41 94.9395 134.285C95.0975 134.161 95.2806 134.073 95.4762 134.026C96.0192 134.028 97.2961 133.275 97.6301 134.02C97.6205 134.913 104.722 132.631 105.08 132.728C105.32 132.672 105.53 132.527 105.669 132.323C105.807 132.119 105.863 131.869 105.826 131.625Z" fill="#4586B2"/>
</g>
</svg>
