<svg width="286" height="286" viewBox="0 0 286 286" fill="none" xmlns="http://www.w3.org/2000/svg">
<circle cx="143" cy="143" r="143" fill="#C4E8F4"/>
<rect x="53" y="81" width="196" height="131" rx="5" fill="white"/>
<path d="M245.018 81.427H58.0639C56.8074 81.4289 55.603 81.9328 54.7145 82.8283C53.8261 83.7237 53.3261 84.9377 53.3242 86.2041V207.223C53.3261 208.489 53.8261 209.703 54.7145 210.599C55.603 211.494 56.8074 211.998 58.0639 212H245.018C246.275 211.998 247.479 211.494 248.368 210.599C249.256 209.703 249.756 208.489 249.758 207.223V86.2041C249.756 84.9377 249.256 83.7237 248.368 82.8283C247.479 81.9328 246.275 81.4289 245.018 81.427ZM248.705 207.223C248.704 208.208 248.315 209.152 247.624 209.849C246.933 210.545 245.996 210.937 245.018 210.938H58.0639C57.0865 210.937 56.1495 210.545 55.4584 209.849C54.7673 209.152 54.3786 208.208 54.3775 207.223V86.2041C54.3786 85.219 54.7673 84.2746 55.4584 83.578C56.1495 82.8815 57.0865 82.4897 58.0639 82.4886H245.018C245.996 82.4897 246.933 82.8815 247.624 83.578C248.315 84.2746 248.704 85.219 248.705 86.2041V207.223Z" fill="#535353"/>
<path d="M101.212 135.184H71.7205C70.5337 135.183 69.396 134.707 68.5568 133.861C67.7176 133.015 67.2456 131.869 67.2441 130.673V100.949C67.2456 99.7525 67.7176 98.6058 68.5568 97.76C69.396 96.9142 70.5337 96.4384 71.7205 96.437H101.212C102.399 96.4384 103.536 96.9142 104.376 97.76C105.215 98.6058 105.687 99.7525 105.688 100.949V130.673C105.687 131.869 105.215 133.015 104.376 133.861C103.536 134.707 102.399 135.183 101.212 135.184Z" fill="#4586B2"/>
<path d="M148.391 133.707H123.639C122.731 133.707 121.86 133.343 121.218 132.696C120.576 132.049 120.216 131.172 120.216 130.256C120.216 129.341 120.576 128.464 121.218 127.817C121.86 127.17 122.731 126.806 123.639 126.806H148.391C149.299 126.806 150.169 127.17 150.811 127.817C151.453 128.464 151.814 129.341 151.814 130.256C151.814 131.172 151.453 132.049 150.811 132.696C150.169 133.343 149.299 133.707 148.391 133.707Z" fill="#4586B2"/>
<path d="M231.072 116.727H123.639C122.731 116.727 121.86 116.363 121.218 115.716C120.576 115.069 120.216 114.192 120.216 113.277C120.216 112.362 120.576 111.484 121.218 110.837C121.86 110.19 122.731 109.827 123.639 109.827H231.072C231.98 109.827 232.85 110.19 233.492 110.837C234.134 111.484 234.495 112.362 234.495 113.277C234.495 114.192 234.134 115.069 233.492 115.716C232.85 116.363 231.98 116.727 231.072 116.727Z" fill="#4586B2"/>
<path d="M104.58 193.032L104.41 151.618C104.409 151.268 104.617 150.932 104.988 150.683C105.36 150.434 105.864 150.293 106.391 150.291C106.918 150.288 107.424 150.425 107.798 150.671C108.171 150.917 108.382 151.252 108.383 151.602L108.553 193.016C108.554 193.366 108.346 193.703 107.975 193.952C107.603 194.201 107.099 194.342 106.572 194.344C106.045 194.346 105.539 194.209 105.165 193.963C104.792 193.717 104.581 193.382 104.58 193.032Z" fill="#4586B2"/>
<path d="M97.5932 190.749L97.4465 154.912C97.4452 154.609 97.6533 154.318 98.025 154.102C98.3967 153.887 98.9015 153.764 99.4284 153.762C99.9553 153.76 100.461 153.878 100.835 154.091C101.208 154.304 101.418 154.593 101.42 154.896L101.566 190.733C101.568 191.036 101.36 191.327 100.988 191.543C100.616 191.758 100.111 191.881 99.5845 191.883C99.0576 191.885 98.5518 191.767 98.1784 191.554C97.8049 191.342 97.5944 191.052 97.5932 190.749Z" fill="#4586B2"/>
<path d="M90.6099 188.22L90.4801 156.522C90.479 156.254 90.6872 155.996 91.059 155.805C91.4308 155.615 91.9357 155.506 92.4626 155.504C92.9895 155.502 93.4952 155.606 93.8686 155.794C94.2419 155.982 94.4523 156.238 94.4534 156.506L94.5832 188.204C94.5843 188.472 94.376 188.73 94.0042 188.921C93.6324 189.111 93.1276 189.22 92.6007 189.222C92.0738 189.224 91.568 189.12 91.1947 188.932C90.8213 188.744 90.611 188.488 90.6099 188.22Z" fill="#4586B2"/>
<path d="M83.6111 183.169L83.5151 159.742C83.5143 159.544 83.7229 159.354 84.0949 159.212C84.4668 159.071 84.9718 158.99 85.4987 158.988C86.0256 158.985 86.5312 159.062 86.9044 159.201C87.2775 159.339 87.4876 159.528 87.4884 159.726L87.5843 183.153C87.5852 183.351 87.3766 183.541 87.0046 183.683C86.6326 183.824 86.1277 183.905 85.6008 183.907C85.0739 183.909 84.5682 183.833 84.1951 183.694C83.822 183.556 83.6119 183.367 83.6111 183.169Z" fill="#4586B2"/>
<path d="M76.6314 181.536L76.5489 161.38C76.5482 161.209 76.7568 161.045 77.1289 160.923C77.501 160.801 78.006 160.731 78.5329 160.729C79.0598 160.727 79.5654 160.793 79.9384 160.912C80.3115 161.03 80.5215 161.193 80.5222 161.363L80.6047 181.519C80.6054 181.69 80.3968 181.854 80.0247 181.976C79.6526 182.098 79.1476 182.168 78.6207 182.17C78.0938 182.172 77.5882 182.106 77.2152 181.987C76.8421 181.869 76.6321 181.706 76.6314 181.536Z" fill="#4586B2"/>
<path d="M69.7049 185.198L69.5871 156.429C69.5861 156.186 69.7945 155.952 70.1663 155.778C70.5382 155.605 71.0431 155.506 71.57 155.504C72.0969 155.502 72.6026 155.596 72.9759 155.767C73.3491 155.937 73.5594 156.169 73.5604 156.412L73.6782 185.182C73.6792 185.425 73.4709 185.659 73.099 185.833C72.7271 186.006 72.2222 186.105 71.6953 186.107C71.1684 186.109 70.6627 186.015 70.2895 185.844C69.9162 185.674 69.7059 185.441 69.7049 185.198Z" fill="#4586B2"/>
<path d="M62.7925 193.02L62.623 151.606C62.6215 151.256 62.8295 150.92 63.201 150.671C63.5726 150.422 64.0773 150.281 64.6042 150.279C65.1311 150.276 65.637 150.413 66.0105 150.659C66.3841 150.905 66.5948 151.24 66.5962 151.59L66.7658 193.004C66.7672 193.354 66.5593 193.691 66.1878 193.94C65.8162 194.189 65.3115 194.33 64.7846 194.332C64.2577 194.334 63.7518 194.197 63.3782 193.951C63.0047 193.705 62.794 193.37 62.7925 193.02Z" fill="#4586B2"/>
<path d="M55.7753 185.198L55.6574 156.429C55.6564 156.186 55.8648 155.952 56.2367 155.778C56.6085 155.605 57.1134 155.506 57.6403 155.504C58.1672 155.502 58.6729 155.596 59.0462 155.767C59.4195 155.937 59.6297 156.169 59.6307 156.412L59.7485 185.182C59.7495 185.425 59.5412 185.659 59.1693 185.833C58.7974 186.006 58.2925 186.105 57.7656 186.107C57.2388 186.109 56.733 186.015 56.3598 185.844C55.9865 185.674 55.7762 185.441 55.7753 185.198Z" fill="#4586B2"/>
<path d="M202.084 193.032L201.914 151.618C201.913 151.268 202.12 150.932 202.492 150.683C202.864 150.434 203.368 150.293 203.895 150.291C204.422 150.288 204.928 150.425 205.302 150.671C205.675 150.917 205.886 151.252 205.887 151.602L206.057 193.016C206.058 193.366 205.85 193.703 205.479 193.952C205.107 194.201 204.602 194.342 204.076 194.344C203.549 194.346 203.043 194.209 202.669 193.963C202.296 193.717 202.085 193.382 202.084 193.032Z" fill="#4586B2"/>
<path d="M195.095 190.749L194.948 154.912C194.947 154.609 195.155 154.318 195.527 154.102C195.899 153.887 196.403 153.764 196.93 153.762C197.457 153.76 197.963 153.878 198.336 154.091C198.71 154.304 198.92 154.593 198.922 154.896L199.068 190.733C199.07 191.036 198.862 191.327 198.49 191.543C198.118 191.758 197.613 191.881 197.086 191.883C196.56 191.885 196.054 191.767 195.68 191.554C195.307 191.342 195.096 191.052 195.095 190.749Z" fill="#4586B2"/>
<path d="M188.113 188.22L187.983 156.522C187.982 156.254 188.19 155.996 188.562 155.805C188.934 155.615 189.439 155.506 189.966 155.504C190.492 155.502 190.998 155.606 191.371 155.794C191.745 155.982 191.955 156.238 191.956 156.506L192.086 188.204C192.087 188.472 191.879 188.73 191.507 188.921C191.135 189.111 190.63 189.22 190.104 189.222C189.577 189.224 189.071 189.12 188.698 188.932C188.324 188.744 188.114 188.488 188.113 188.22Z" fill="#4586B2"/>
<path d="M181.114 183.169L181.018 159.742C181.017 159.544 181.226 159.354 181.598 159.212C181.97 159.071 182.475 158.99 183.002 158.988C183.529 158.985 184.034 159.062 184.407 159.201C184.78 159.339 184.991 159.528 184.991 159.726L185.087 183.153C185.088 183.351 184.88 183.541 184.508 183.683C184.136 183.824 183.631 183.905 183.104 183.907C182.577 183.909 182.071 183.833 181.698 183.694C181.325 183.556 181.115 183.367 181.114 183.169Z" fill="#4586B2"/>
<path d="M174.135 181.536L174.053 161.38C174.052 161.209 174.261 161.045 174.633 160.923C175.005 160.801 175.51 160.731 176.037 160.729C176.564 160.727 177.069 160.793 177.442 160.912C177.815 161.03 178.025 161.193 178.026 161.363L178.109 181.519C178.109 181.69 177.901 181.854 177.529 181.976C177.157 182.098 176.651 182.168 176.125 182.17C175.598 182.172 175.092 182.106 174.719 181.987C174.346 181.869 174.136 181.706 174.135 181.536Z" fill="#4586B2"/>
<path d="M167.207 185.198L167.089 156.429C167.088 156.186 167.296 155.952 167.668 155.778C168.04 155.605 168.545 155.506 169.072 155.504C169.599 155.502 170.105 155.596 170.478 155.767C170.851 155.937 171.061 156.169 171.062 156.412L171.18 185.182C171.181 185.425 170.973 185.659 170.601 185.833C170.229 186.006 169.724 186.105 169.197 186.107C168.67 186.109 168.165 186.015 167.791 185.844C167.418 185.674 167.208 185.441 167.207 185.198Z" fill="#4586B2"/>
<path d="M160.296 193.02L160.127 151.606C160.125 151.256 160.333 150.92 160.705 150.671C161.076 150.422 161.581 150.281 162.108 150.279C162.635 150.276 163.141 150.413 163.514 150.659C163.888 150.905 164.099 151.24 164.1 151.59L164.27 193.004C164.271 193.354 164.063 193.691 163.692 193.94C163.32 194.189 162.815 194.33 162.288 194.332C161.762 194.334 161.256 194.197 160.882 193.951C160.509 193.705 160.298 193.37 160.296 193.02Z" fill="#4586B2"/>
<path d="M146.367 191.279L146.197 149.864C146.196 149.514 146.404 149.178 146.775 148.929C147.147 148.68 147.652 148.539 148.178 148.537C148.705 148.535 149.211 148.672 149.585 148.917C149.958 149.163 150.169 149.498 150.17 149.848L150.34 191.262C150.341 191.612 150.134 191.949 149.762 192.198C149.39 192.447 148.886 192.588 148.359 192.59C147.832 192.592 147.326 192.455 146.952 192.209C146.579 191.963 146.368 191.628 146.367 191.279Z" fill="#4586B2"/>
<path d="M111.498 186.978L111.373 156.484C111.372 156.226 111.581 155.978 111.953 155.794C112.324 155.61 112.829 155.506 113.356 155.504C113.883 155.502 114.389 155.602 114.762 155.783C115.135 155.963 115.346 156.21 115.347 156.467L115.472 186.961C115.473 187.219 115.264 187.467 114.893 187.651C114.521 187.834 114.016 187.939 113.489 187.941C112.962 187.943 112.456 187.843 112.083 187.662C111.71 187.481 111.499 187.235 111.498 186.978Z" fill="#4586B2"/>
<path d="M118.414 181.852L118.337 163.077C118.336 162.919 118.545 162.766 118.917 162.652C119.289 162.538 119.794 162.473 120.321 162.471C120.848 162.469 121.353 162.53 121.726 162.641C122.099 162.751 122.309 162.903 122.31 163.061L122.387 181.835C122.388 181.994 122.179 182.147 121.807 182.261C121.435 182.375 120.93 182.44 120.403 182.442C119.876 182.444 119.37 182.383 118.997 182.272C118.624 182.162 118.414 182.01 118.414 181.852Z" fill="#4586B2"/>
<path d="M125.451 191.317L125.302 154.93C125.301 154.622 125.509 154.327 125.881 154.108C126.252 153.889 126.757 153.764 127.284 153.762C127.811 153.76 128.317 153.88 128.69 154.096C129.063 154.312 129.274 154.606 129.275 154.914L129.424 191.301C129.426 191.609 129.217 191.904 128.846 192.123C128.474 192.342 127.969 192.466 127.442 192.469C126.915 192.471 126.41 192.351 126.036 192.135C125.663 191.919 125.452 191.625 125.451 191.317Z" fill="#4586B2"/>
<path d="M132.438 193.02L132.268 151.606C132.267 151.256 132.475 150.92 132.847 150.671C133.218 150.422 133.723 150.281 134.25 150.279C134.777 150.276 135.282 150.413 135.656 150.659C136.03 150.905 136.24 151.24 136.242 151.59L136.411 193.004C136.413 193.354 136.205 193.691 135.833 193.94C135.462 194.189 134.957 194.33 134.43 194.332C133.903 194.334 133.397 194.197 133.024 193.951C132.65 193.705 132.439 193.37 132.438 193.02Z" fill="#4586B2"/>
<path d="M139.34 186.65L139.23 159.85C139.23 159.623 139.438 159.405 139.81 159.244C140.182 159.082 140.687 158.99 141.214 158.988C141.74 158.985 142.246 159.073 142.619 159.232C142.993 159.391 143.203 159.607 143.204 159.833L143.313 186.634C143.314 186.861 143.106 187.079 142.734 187.24C142.362 187.402 141.857 187.494 141.33 187.496C140.803 187.498 140.298 187.41 139.925 187.252C139.551 187.093 139.341 186.877 139.34 186.65Z" fill="#4586B2"/>
<path d="M153.269 186.65L153.159 159.85C153.158 159.623 153.367 159.405 153.739 159.244C154.11 159.082 154.615 158.99 155.142 158.988C155.669 158.985 156.175 159.073 156.548 159.232C156.921 159.391 157.131 159.607 157.132 159.833L157.242 186.634C157.243 186.861 157.035 187.079 156.663 187.24C156.291 187.402 155.786 187.494 155.259 187.496C154.732 187.498 154.226 187.41 153.853 187.252C153.48 187.093 153.27 186.877 153.269 186.65Z" fill="#4586B2"/>
<path d="M243.869 193.032L243.699 151.618C243.698 151.268 243.906 150.932 244.277 150.683C244.649 150.434 245.153 150.293 245.68 150.291C246.207 150.288 246.713 150.425 247.087 150.671C247.46 150.917 247.671 151.252 247.672 151.602L247.842 193.016C247.843 193.366 247.635 193.703 247.264 193.952C246.892 194.201 246.388 194.342 245.861 194.344C245.334 194.346 244.828 194.209 244.454 193.963C244.081 193.717 243.87 193.382 243.869 193.032Z" fill="#4586B2"/>
<path d="M236.881 190.749L236.735 154.912C236.733 154.609 236.941 154.318 237.313 154.102C237.685 153.887 238.19 153.764 238.716 153.762C239.243 153.76 239.749 153.878 240.123 154.091C240.496 154.304 240.707 154.593 240.708 154.896L240.855 190.733C240.856 191.036 240.648 191.327 240.276 191.543C239.904 191.758 239.399 191.881 238.873 191.883C238.346 191.885 237.84 191.767 237.466 191.554C237.093 191.342 236.883 191.052 236.881 190.749Z" fill="#4586B2"/>
<path d="M229.898 188.22L229.768 156.522C229.767 156.254 229.975 155.996 230.347 155.805C230.719 155.615 231.224 155.506 231.751 155.504C232.278 155.502 232.783 155.606 233.157 155.794C233.53 155.982 233.74 156.238 233.741 156.506L233.871 188.204C233.872 188.472 233.664 188.73 233.292 188.921C232.921 189.111 232.416 189.22 231.889 189.222C231.362 189.224 230.856 189.12 230.483 188.932C230.109 188.744 229.899 188.488 229.898 188.22Z" fill="#4586B2"/>
<path d="M222.9 183.169L222.804 159.742C222.803 159.544 223.012 159.354 223.384 159.212C223.756 159.071 224.261 158.99 224.788 158.988C225.315 158.985 225.82 159.062 226.193 159.201C226.567 159.339 226.777 159.528 226.777 159.726L226.873 183.153C226.874 183.351 226.666 183.541 226.294 183.683C225.922 183.824 225.417 183.905 224.89 183.907C224.363 183.909 223.857 183.833 223.484 183.694C223.111 183.556 222.901 183.367 222.9 183.169Z" fill="#4586B2"/>
<path d="M215.922 181.536L215.84 161.38C215.839 161.209 216.048 161.045 216.42 160.923C216.792 160.801 217.297 160.731 217.824 160.729C218.351 160.727 218.856 160.793 219.229 160.912C219.603 161.03 219.812 161.193 219.813 161.363L219.896 181.519C219.896 181.69 219.688 181.854 219.316 181.976C218.944 182.098 218.439 182.168 217.912 182.17C217.385 182.172 216.879 182.106 216.506 181.987C216.133 181.869 215.923 181.706 215.922 181.536Z" fill="#4586B2"/>
<path d="M208.995 185.198L208.877 156.429C208.876 156.186 209.085 155.952 209.456 155.778C209.828 155.605 210.333 155.506 210.86 155.504C211.387 155.502 211.893 155.596 212.266 155.767C212.639 155.937 212.849 156.169 212.85 156.412L212.968 185.182C212.969 185.425 212.761 185.659 212.389 185.833C212.017 186.006 211.512 186.105 210.985 186.107C210.458 186.109 209.953 186.015 209.58 185.844C209.206 185.674 208.996 185.441 208.995 185.198Z" fill="#4586B2"/>
<path d="M191.454 83.6617C188.312 82.2161 186.247 78.0831 186.364 74.007C186.482 69.9309 188.624 66.1188 191.578 64.175C193.018 63.2509 194.665 62.6995 196.371 62.5704C198.076 62.4413 199.787 62.7386 201.35 63.4355C204.52 64.7871 208.777 65.1552 210.683 68.5145C212.148 71.096 211.62 76.8551 210.583 79.7256C209.687 82.2067 207.496 83.6046 205.359 84.3869C202.993 85.245 200.472 85.5844 197.964 85.3821C195.457 85.1798 193.022 84.4406 190.824 83.2144" fill="#2F2E41"/>
<path d="M226.214 195.713L221.762 197.372L213.252 180.965L219.822 178.516L226.214 195.713Z" fill="#FFB8B8"/>
<path d="M218.107 198.251L226.693 195.051L228.705 200.465L214.713 205.68C214.449 204.969 214.327 204.213 214.355 203.455C214.382 202.697 214.559 201.951 214.874 201.262C215.189 200.572 215.637 199.951 216.192 199.434C216.746 198.918 217.397 198.516 218.107 198.251Z" fill="#2F2E41"/>
<path d="M183.506 202.23H178.756L176.496 183.88H183.507L183.506 202.23Z" fill="#FFB8B8"/>
<path d="M175.363 200.87H184.524V206.647H169.595C169.595 205.888 169.744 205.137 170.034 204.436C170.324 203.736 170.749 203.099 171.284 202.562C171.82 202.026 172.456 201.601 173.156 201.31C173.855 201.02 174.606 200.87 175.363 200.87Z" fill="#2F2E41"/>
<path d="M169.062 136.088C169.668 136.023 170.251 135.826 170.772 135.511C171.292 135.195 171.738 134.769 172.076 134.263C172.415 133.757 172.639 133.182 172.732 132.58C172.824 131.978 172.784 131.362 172.614 130.777L188.24 103.781L182.775 101.592L167.154 127.987C166.192 128.338 165.391 129.031 164.905 129.934C164.419 130.837 164.28 131.888 164.515 132.886C164.75 133.885 165.343 134.762 166.181 135.352C167.019 135.943 168.045 136.204 169.062 136.088Z" fill="#FFB8B8"/>
<path d="M184.729 113.378L176.424 108.21L184.255 93.9198C184.6 93.291 185.067 92.7379 185.629 92.293C186.19 91.8482 186.836 91.5207 187.526 91.3299C188.217 91.1392 188.938 91.089 189.648 91.1824C190.358 91.2758 191.043 91.5109 191.66 91.8737C192.278 92.2366 192.817 92.7198 193.245 93.2949C193.673 93.8699 193.982 94.5251 194.153 95.2217C194.323 95.9183 194.353 96.6421 194.24 97.3503C194.126 98.0585 193.872 98.7367 193.492 99.3449L184.729 113.378Z" fill="#2F2E41"/>
<path d="M216.439 189.779C216.117 189.779 215.801 189.689 215.527 189.519C215.253 189.35 215.031 189.107 214.887 188.818L194.226 146.23C194.099 145.979 193.897 145.774 193.649 145.643C193.4 145.511 193.117 145.461 192.838 145.498C192.56 145.535 192.3 145.657 192.094 145.849C191.888 146.04 191.746 146.291 191.689 146.567L184.328 187.157C184.246 187.55 184.031 187.903 183.721 188.157C183.41 188.411 183.021 188.55 182.62 188.551H177.931C177.496 188.553 177.075 188.391 176.754 188.097C176.432 187.803 176.232 187.399 176.195 186.964C173.314 155.307 174.873 132.27 180.828 118.493C180.997 118.11 181.296 117.8 181.672 117.619C182.049 117.437 182.478 117.396 182.881 117.504L206.688 123.908C206.987 123.989 207.26 124.149 207.478 124.37C207.696 124.592 207.85 124.867 207.926 125.169L222.847 186.117C222.955 186.548 222.894 187.005 222.678 187.393C222.461 187.781 222.105 188.072 221.681 188.207L216.969 189.697C216.798 189.751 216.619 189.779 216.439 189.779Z" fill="#2F2E41"/>
<path d="M197.948 87.5265C203.204 87.5265 207.465 83.2596 207.465 77.996C207.465 72.7325 203.204 68.4656 197.948 68.4656C192.692 68.4656 188.432 72.7325 188.432 77.996C188.432 83.2596 192.692 87.5265 197.948 87.5265Z" fill="#FFB8B8"/>
<path d="M206.936 91.9313C206.936 91.9313 198.411 87.2749 191.824 92.3194C191.824 92.3194 183.493 100.662 186.206 108.811L179.425 128.018C184.79 138.206 200.498 136.557 208.098 128.018L207.517 109.587L206.936 91.9313Z" fill="#4586B2"/>
<path d="M212.331 143.239C210.849 143.28 209.379 142.952 208.053 142.287C205.96 141.162 204.672 139.047 204.225 136.001C203.478 130.913 204.093 123.919 204.745 116.514C205.593 106.884 206.469 96.9265 204.122 91.4465C204 91.158 203.958 90.8418 204 90.5312C204.042 90.2206 204.166 89.927 204.361 89.6815C204.556 89.436 204.813 89.2476 205.105 89.1361C205.398 89.0247 205.715 88.9943 206.023 89.0482L212.698 90.2005C213.045 90.2619 213.366 90.4268 213.618 90.6736C213.871 90.9204 214.043 91.2377 214.112 91.584L223.365 138.655C223.441 139.036 223.387 139.432 223.212 139.779C223.037 140.126 222.752 140.405 222.4 140.57C220.385 141.52 216.202 143.239 212.331 143.239Z" fill="#2F2E41"/>
<path d="M177.382 142.613C177.142 142.613 176.906 142.564 176.686 142.469C175.588 141.994 174.07 141.303 172.174 140.417C166.938 137.97 180.747 104.164 183.569 97.4126C183.666 97.1775 183.815 96.967 184.003 96.796L191.562 89.9062C191.854 89.6788 192.21 89.55 192.579 89.5385C192.948 89.5269 193.312 89.6331 193.617 89.8417C193.922 90.0504 194.153 90.3507 194.276 90.6994C194.4 91.048 194.41 91.427 194.304 91.7815C192.978 96.2335 190.628 103.697 188.141 111.598C184.215 124.067 180.155 136.961 179.07 141.295C178.976 141.672 178.758 142.006 178.452 142.245C178.146 142.484 177.77 142.614 177.382 142.613Z" fill="#2F2E41"/>
<path d="M230.514 134.437C230.826 133.914 231.021 133.329 231.083 132.723C231.145 132.117 231.074 131.504 230.875 130.928C230.675 130.353 230.352 129.828 229.928 129.391C229.504 128.954 228.989 128.615 228.421 128.398L216.319 99.6438L211.282 102.693L222.907 131.081C222.607 132.062 222.678 133.119 223.104 134.052C223.531 134.985 224.284 135.729 225.222 136.142C226.159 136.556 227.216 136.611 228.191 136.297C229.167 135.982 229.993 135.321 230.514 134.437Z" fill="#FFB8B8"/>
<path d="M212.731 111.756L206.06 96.8867C205.767 96.2325 205.607 95.5259 205.591 94.8088C205.575 94.0916 205.703 93.3786 205.967 92.7118C206.231 92.045 206.626 91.4379 207.128 90.9266C207.63 90.4153 208.23 90.01 208.891 89.7348C209.553 89.4596 210.262 89.32 210.979 89.3243C211.695 89.3286 212.403 89.4768 213.061 89.76C213.719 90.0431 214.314 90.4556 214.81 90.973C215.306 91.4904 215.694 92.1021 215.949 92.7721L221.853 108.232L212.731 111.756Z" fill="#2F2E41"/>
<path d="M204.715 66.1334C205.058 66.1835 205.408 66.119 205.71 65.95C206.012 65.781 206.251 65.5168 206.388 65.1985C206.515 64.8759 206.566 64.5285 206.538 64.183C206.511 63.8374 206.404 63.5028 206.227 63.2049C205.866 62.6112 205.364 62.1172 204.764 61.7679C204.073 61.3056 203.275 61.0305 202.446 60.9693C202.033 60.9422 201.618 61.0043 201.231 61.1516C200.844 61.2988 200.492 61.5277 200.201 61.8227C199.917 62.1251 199.729 62.5055 199.662 62.9152C199.595 63.325 199.652 63.7454 199.825 64.1228C200.173 64.7948 200.903 65.1717 201.614 65.4276C203.026 65.9339 204.529 66.1316 206.023 66.0074" fill="#2F2E41"/>
<path d="M208.099 76.4102C206.616 76.8427 206.697 76.0425 205.884 74.7274C205.07 73.4124 204.014 71.8648 202.471 71.9472C201.207 72.0147 200.327 73.1645 199.426 74.0548C197.82 75.6417 195.489 76.6465 193.286 76.1621C191.082 75.6777 189.266 73.4012 189.75 71.1946C189.911 70.5812 190.197 70.0075 190.589 69.5092C190.981 69.0108 191.471 68.5983 192.028 68.2973C193.148 67.702 194.378 67.342 195.641 67.2395C198.438 66.9176 201.271 67.2144 203.941 68.1088C205.784 68.728 207.636 69.7296 208.554 71.4458C209.471 73.162 210.274 75.6455 208.486 76.4103L208.099 76.4102Z" fill="#2F2E41"/>
<path d="M203.405 61.2177C202.148 59.6225 202.622 57.1093 204.086 55.7033C205.55 54.2973 207.728 53.859 209.749 54.0379C211.751 54.2398 213.665 54.9655 215.299 56.142C216.933 57.3185 218.229 58.9045 219.058 60.741C220.335 63.6665 220.325 67.0128 221.479 69.9887C222.095 71.5751 223.029 73.0185 224.222 74.23C225.416 75.4415 226.845 76.3955 228.42 77.0332C229.996 77.6709 231.686 77.9788 233.385 77.938C235.084 77.8971 236.756 77.5084 238.3 76.7958C240.31 75.8676 242.224 74.05 242.11 71.8361C243.381 76.7433 241.091 82.3566 236.754 84.9699C234.213 86.5006 231.204 87.0202 228.26 87.3778C226.342 87.6109 224.37 87.7843 222.498 87.3042C219.879 86.6325 217.687 84.6967 216.359 82.3383C215.031 79.9799 214.509 77.2316 214.488 74.5242C214.473 72.4151 214.748 70.305 214.603 68.2009C214.457 66.0968 213.825 63.9205 212.302 62.4637C210.779 61.0069 208.209 60.5275 206.538 61.8106C205.866 62.3263 205.374 63.0794 204.617 63.4598C203.861 63.8402 202.666 63.5444 202.615 62.6983L203.405 61.2177Z" fill="#2F2E41"/>
</svg>
