<svg width="375" height="356" viewBox="0 0 375 356" fill="none" xmlns="http://www.w3.org/2000/svg">
<ellipse cx="240.5" cy="346.5" rx="74.5" ry="9.5" fill="#D9D9D9"/>
<ellipse cx="201.465" cy="257.383" rx="55.8628" ry="5.07844" fill="#D9D9D9"/>
<path d="M300.408 6.00218H174.714C168.648 6.00188 162.763 8.11889 158.026 12.0052C153.288 15.8915 149.981 21.3159 148.647 27.3865L85.1372 316.406C84.4444 319.559 84.4322 322.829 85.1014 325.986C85.7706 329.144 87.105 332.114 89.011 334.686C90.917 337.259 93.3485 339.373 96.135 340.88C98.9214 342.387 101.995 343.25 105.141 343.409L234.356 349.94C241.275 350.29 248.082 348.045 253.506 343.624C258.93 339.203 262.601 332.909 263.834 325.915L299.863 121.575L302.544 122.361L309.439 83.6306L306.681 82.9231L316.737 25.8843C317.168 23.4411 317.068 20.9305 316.445 18.5314C315.822 16.1323 314.69 13.9039 313.131 12.0049C311.572 10.1059 309.624 8.58324 307.425 7.54538C305.227 6.50752 302.832 5.98005 300.412 6.00058L300.408 6.00218Z" fill="#3F3D56"/>
<path d="M191.259 12.2339H176.588C172.375 12.2339 168.288 13.7124 165.006 16.4238C161.724 19.1353 159.445 22.9167 158.547 27.1402L97.5845 313.802C97.2333 315.452 97.2336 317.161 97.5852 318.812C97.9368 320.462 98.6316 322.015 99.6219 323.365C100.612 324.714 101.875 325.829 103.324 326.632C104.772 327.435 106.373 327.907 108.016 328.017L236.811 336.678C240.444 336.923 244.038 335.786 246.907 333.485C249.776 331.184 251.718 327.88 252.364 324.203L304.383 27.9104C304.72 25.9927 304.642 24.0225 304.155 22.139C303.669 20.2554 302.785 18.5044 301.567 17.0094C300.349 15.5144 298.826 14.3119 297.106 13.4868C295.385 12.6616 293.509 12.2339 291.61 12.2339H277.692C276.345 12.2338 275.035 12.6894 273.966 13.5301C272.896 14.3708 272.127 15.5497 271.777 16.8843C271.467 18.0629 270.788 19.104 269.844 19.8463C268.899 20.5886 267.743 20.9907 266.553 20.9902H200.477C198.148 20.9901 195.905 20.0883 194.196 18.4649C192.487 16.8416 191.438 14.6163 191.259 12.2339Z" fill="#F3F3F3"/>
<path d="M150.004 223.061C149.886 223.061 149.772 223.102 149.68 223.177C149.587 223.252 149.523 223.357 149.496 223.475L148.282 228.811C148.265 228.886 148.264 228.964 148.279 229.04C148.294 229.116 148.325 229.188 148.37 229.25C148.415 229.313 148.472 229.364 148.538 229.402C148.604 229.439 148.677 229.462 148.752 229.467L217.305 234.466C217.432 234.474 217.558 234.435 217.659 234.356C217.76 234.276 217.83 234.162 217.855 234.034L219.022 227.86C219.036 227.785 219.035 227.708 219.017 227.634C219 227.56 218.968 227.49 218.922 227.43C218.876 227.369 218.819 227.32 218.753 227.284C218.687 227.249 218.615 227.228 218.541 227.223L150.036 223.062L150.004 223.061Z" fill="#E6E6E6"/>
<path d="M233.293 254.286C233.417 254.296 233.54 254.261 233.64 254.187C233.741 254.112 233.813 254.004 233.842 253.88L235.328 247.694C235.346 247.618 235.348 247.539 235.333 247.462C235.319 247.385 235.288 247.313 235.243 247.25C235.198 247.187 235.141 247.134 235.074 247.097C235.007 247.059 234.934 247.036 234.858 247.031L147.312 240.749C147.193 240.739 147.074 240.772 146.976 240.841C146.878 240.911 146.807 241.013 146.774 241.131L145.23 246.477C145.208 246.553 145.203 246.634 145.215 246.713C145.228 246.791 145.257 246.866 145.301 246.932C145.345 246.998 145.402 247.052 145.469 247.092C145.537 247.132 145.612 247.157 145.689 247.163L233.293 254.286Z" fill="#E6E6E6"/>
<path d="M228.591 274.116C228.715 274.127 228.838 274.091 228.938 274.017C229.039 273.942 229.11 273.834 229.14 273.71L230.626 267.524C230.644 267.448 230.646 267.369 230.631 267.292C230.617 267.216 230.586 267.143 230.541 267.08C230.496 267.017 230.438 266.964 230.372 266.927C230.305 266.889 230.232 266.866 230.156 266.861L142.609 260.579C142.491 260.569 142.372 260.602 142.274 260.672C142.176 260.741 142.105 260.843 142.072 260.961L140.528 266.307C140.506 266.383 140.501 266.464 140.513 266.543C140.525 266.621 140.555 266.696 140.598 266.762C140.642 266.828 140.7 266.883 140.767 266.923C140.834 266.962 140.909 266.987 140.987 266.993L228.591 274.116Z" fill="#E6E6E6"/>
<path d="M188.269 308.017C188.394 308.03 188.519 307.996 188.621 307.922C188.724 307.848 188.796 307.738 188.825 307.613L191.966 294.723C191.985 294.647 191.987 294.569 191.973 294.492C191.959 294.416 191.929 294.344 191.885 294.28C191.841 294.217 191.784 294.165 191.718 294.126C191.652 294.088 191.579 294.064 191.504 294.058L137.742 289.419C137.616 289.41 137.492 289.447 137.39 289.523C137.289 289.6 137.217 289.711 137.188 289.836L134.509 302.208C134.492 302.282 134.492 302.359 134.507 302.433C134.522 302.508 134.553 302.578 134.596 302.639C134.64 302.701 134.696 302.752 134.76 302.79C134.825 302.827 134.896 302.851 134.97 302.858L188.269 308.017Z" fill="#4586B2"/>
<rect x="58" y="70.2783" width="255.376" height="168.513" rx="5" fill="white"/>
<path d="M307.54 69.4141H64.17C62.5343 69.4165 60.9664 70.0725 59.8099 71.2382C58.6533 72.4039 58.0025 73.9841 58 75.6327V233.17C58.0025 234.819 58.6533 236.399 59.8099 237.565C60.9664 238.731 62.5343 239.387 64.17 239.389H307.54C309.176 239.387 310.744 238.731 311.9 237.565C313.057 236.399 313.708 234.819 313.71 233.17V75.6327C313.708 73.9841 313.057 72.4039 311.9 71.2382C310.744 70.0725 309.176 69.4165 307.54 69.4141ZM312.339 233.17C312.338 234.453 311.832 235.682 310.932 236.589C310.032 237.496 308.813 238.006 307.54 238.007H64.17C62.8977 238.006 61.6779 237.496 60.7782 236.589C59.8786 235.682 59.3725 234.453 59.3711 233.17V75.6327C59.3725 74.3503 59.8786 73.1209 60.7782 72.2142C61.6779 71.3074 62.8977 70.7974 64.17 70.796H307.54C308.813 70.7974 310.032 71.3074 310.932 72.2142C311.832 73.1209 312.338 74.3503 312.339 75.6327V233.17Z" fill="#4586B2"/>
<path d="M116.118 147.835H77.7276C76.1827 147.833 74.7016 147.213 73.6092 146.112C72.5168 145.011 71.9022 143.519 71.9004 141.962V103.268C71.9022 101.711 72.5168 100.218 73.6092 99.1173C74.7016 98.0162 76.1827 97.3969 77.7276 97.395H116.118C117.663 97.3969 119.144 98.0162 120.237 99.1173C121.329 100.218 121.944 101.711 121.946 103.268V141.962C121.944 143.519 121.329 145.011 120.237 146.112C119.144 147.214 117.663 147.833 116.118 147.835Z" fill="#4586B2"/>
<path d="M187.381 137.47H155.16C153.978 137.47 152.845 136.997 152.009 136.154C151.174 135.312 150.704 134.17 150.704 132.979C150.704 131.787 151.174 130.645 152.009 129.803C152.845 128.96 153.978 128.487 155.16 128.487H187.381C188.563 128.487 189.696 128.96 190.532 129.803C191.368 130.645 191.837 131.787 191.837 132.979C191.837 134.17 191.368 135.312 190.532 136.154C189.696 136.997 188.563 137.47 187.381 137.47Z" fill="#4586B2"/>
<path d="M295.012 115.365H155.16C153.978 115.365 152.845 114.892 152.009 114.05C151.174 113.208 150.704 112.065 150.704 110.874C150.704 109.683 151.174 108.541 152.009 107.698C152.845 106.856 153.978 106.383 155.16 106.383H295.012C296.194 106.383 297.328 106.856 298.163 107.698C298.999 108.541 299.468 109.683 299.468 110.874C299.468 112.065 298.999 113.208 298.163 114.05C297.328 114.892 296.194 115.365 295.012 115.365Z" fill="#4586B2"/>
<path d="M130.348 214.698L130.127 160.786C130.125 160.331 130.396 159.893 130.879 159.569C131.363 159.244 132.02 159.061 132.706 159.058C133.392 159.055 134.05 159.233 134.537 159.554C135.023 159.874 135.297 160.31 135.299 160.765L135.52 214.676C135.522 215.132 135.251 215.57 134.767 215.894C134.284 216.218 133.627 216.402 132.941 216.405C132.255 216.408 131.596 216.229 131.11 215.909C130.624 215.589 130.349 215.153 130.348 214.698Z" fill="#4586B2"/>
<path d="M121.254 211.726L121.063 165.075C121.062 164.68 121.333 164.301 121.816 164.02C122.3 163.74 122.957 163.58 123.643 163.577C124.329 163.575 124.988 163.729 125.474 164.005C125.96 164.282 126.234 164.659 126.236 165.053L126.427 211.704C126.428 212.099 126.157 212.478 125.673 212.759C125.19 213.039 124.532 213.199 123.847 213.201C123.161 213.204 122.502 213.05 122.016 212.774C121.53 212.497 121.256 212.12 121.254 211.726Z" fill="#4586B2"/>
<path d="M112.164 208.434L111.995 167.17C111.994 166.821 112.265 166.486 112.749 166.237C113.233 165.989 113.89 165.847 114.576 165.845C115.262 165.842 115.92 165.978 116.406 166.222C116.892 166.467 117.166 166.8 117.167 167.149L117.336 208.412C117.338 208.761 117.067 209.097 116.583 209.345C116.099 209.594 115.442 209.735 114.756 209.738C114.07 209.741 113.411 209.605 112.925 209.36C112.439 209.116 112.166 208.782 112.164 208.434Z" fill="#4586B2"/>
<path d="M103.053 201.858L102.928 171.362C102.927 171.104 103.199 170.856 103.683 170.671C104.167 170.487 104.825 170.382 105.511 170.379C106.196 170.376 106.855 170.476 107.34 170.656C107.826 170.837 108.1 171.083 108.101 171.34L108.226 201.836C108.227 202.094 107.955 202.342 107.471 202.526C106.987 202.711 106.329 202.816 105.643 202.819C104.958 202.821 104.299 202.722 103.814 202.541C103.328 202.361 103.054 202.115 103.053 201.858Z" fill="#4586B2"/>
<path d="M93.9679 199.732L93.8605 173.494C93.8596 173.272 94.1312 173.058 94.6155 172.9C95.0999 172.741 95.7573 172.65 96.4432 172.647C97.1291 172.645 97.7872 172.73 98.2728 172.885C98.7585 173.039 99.0318 173.251 99.0327 173.473L99.1402 199.711C99.1411 199.933 98.8695 200.147 98.3851 200.306C97.9008 200.464 97.2433 200.555 96.5575 200.558C95.8716 200.561 95.2134 200.475 94.7278 200.321C94.2422 200.166 93.9688 199.954 93.9679 199.732Z" fill="#4586B2"/>
<path d="M84.9489 204.5L84.7955 167.048C84.7942 166.732 85.0655 166.427 85.5495 166.202C86.0336 165.976 86.6909 165.847 87.3768 165.845C88.0626 165.842 88.721 165.965 89.2069 166.187C89.6928 166.408 89.9665 166.711 89.9678 167.027L90.1211 204.479C90.1224 204.795 89.8512 205.1 89.3671 205.325C88.8831 205.551 88.2258 205.68 87.5399 205.682C86.854 205.685 86.1957 205.562 85.7098 205.34C85.2239 205.119 84.9502 204.816 84.9489 204.5Z" fill="#4586B2"/>
<path d="M75.953 214.682L75.7322 160.771C75.7304 160.315 76.0011 159.877 76.4847 159.553C76.9684 159.229 77.6255 159.045 78.3113 159.042C78.9972 159.04 79.6558 159.218 80.1421 159.538C80.6284 159.858 80.9026 160.294 80.9045 160.75L81.1253 214.661C81.1271 215.116 80.8564 215.554 80.3728 215.879C79.8891 216.203 79.2321 216.386 78.5462 216.389C77.8603 216.392 77.2018 216.214 76.7154 215.894C76.2291 215.573 75.9549 215.138 75.953 214.682Z" fill="#4586B2"/>
<path d="M75.8361 199.732L75.7286 173.494C75.7277 173.272 75.9993 173.058 76.4837 172.9C76.968 172.741 77.6255 172.65 78.3113 172.647C78.9972 172.645 79.6554 172.73 80.141 172.885C80.6266 173.039 80.9 173.251 80.9009 173.473L81.0083 199.711C81.0092 199.933 80.7376 200.147 80.2533 200.306C79.7689 200.464 79.1115 200.555 78.4256 200.558C77.7397 200.561 77.0816 200.475 76.596 200.321C76.1103 200.166 75.837 199.954 75.8361 199.732Z" fill="#4586B2"/>
<path d="M66.8161 204.5L66.6627 167.048C66.6614 166.732 66.9326 166.427 67.4167 166.202C67.9008 165.976 68.5581 165.847 69.244 165.845C69.9298 165.842 70.5881 165.965 71.0741 166.187C71.56 166.408 71.8337 166.711 71.835 167.027L71.9883 204.479C71.9896 204.795 71.7184 205.1 71.2343 205.325C70.7502 205.551 70.093 205.68 69.4071 205.682C68.7212 205.685 68.0629 205.562 67.577 205.34C67.0911 205.119 66.8174 204.816 66.8161 204.5Z" fill="#4586B2"/>
<path d="M257.275 214.698L257.055 160.786C257.053 160.331 257.323 159.893 257.807 159.569C258.291 159.244 258.948 159.061 259.634 159.058C260.319 159.055 260.978 159.233 261.464 159.554C261.951 159.874 262.225 160.31 262.227 160.765L262.448 214.676C262.449 215.132 262.179 215.57 261.695 215.894C261.211 216.218 260.554 216.402 259.868 216.405C259.183 216.408 258.524 216.229 258.038 215.909C257.551 215.589 257.277 215.153 257.275 214.698Z" fill="#F9A826"/>
<path d="M248.179 211.726L247.988 165.075C247.987 164.68 248.257 164.301 248.741 164.02C249.225 163.74 249.882 163.58 250.568 163.577C251.254 163.575 251.912 163.729 252.399 164.005C252.885 164.282 253.159 164.659 253.16 165.053L253.351 211.704C253.353 212.099 253.082 212.478 252.598 212.759C252.114 213.039 251.457 213.199 250.771 213.201C250.086 213.204 249.427 213.05 248.941 212.774C248.455 212.497 248.181 212.12 248.179 211.726Z" fill="#4586B2"/>
<path d="M239.09 208.434L238.921 167.17C238.92 166.821 239.191 166.486 239.675 166.237C240.159 165.989 240.816 165.847 241.502 165.845C242.188 165.842 242.846 165.978 243.332 166.222C243.818 166.467 244.092 166.8 244.093 167.149L244.262 208.412C244.264 208.761 243.993 209.097 243.509 209.345C243.025 209.594 242.367 209.735 241.682 209.738C240.996 209.741 240.337 209.605 239.851 209.36C239.365 209.116 239.091 208.782 239.09 208.434Z" fill="#4586B2"/>
<path d="M229.978 201.858L229.853 171.362C229.852 171.104 230.124 170.856 230.608 170.671C231.092 170.487 231.749 170.382 232.435 170.379C233.121 170.376 233.779 170.476 234.265 170.656C234.751 170.837 235.024 171.083 235.025 171.34L235.15 201.836C235.151 202.094 234.88 202.342 234.396 202.526C233.911 202.711 233.254 202.816 232.568 202.819C231.882 202.821 231.224 202.722 230.738 202.541C230.253 202.361 229.979 202.115 229.978 201.858Z" fill="#4586B2"/>
<path d="M220.892 199.732L220.784 173.494C220.783 173.272 221.055 173.058 221.539 172.9C222.024 172.741 222.681 172.65 223.367 172.647C224.053 172.645 224.711 172.73 225.197 172.885C225.682 173.039 225.956 173.251 225.957 173.473L226.064 199.711C226.065 199.933 225.793 200.147 225.309 200.306C224.825 200.464 224.167 200.555 223.481 200.558C222.795 200.561 222.137 200.475 221.652 200.321C221.166 200.166 220.893 199.954 220.892 199.732Z" fill="#4586B2"/>
<path d="M211.875 204.5L211.721 167.048C211.72 166.732 211.991 166.427 212.475 166.202C212.959 165.976 213.617 165.847 214.303 165.845C214.988 165.842 215.647 165.965 216.133 166.187C216.619 166.408 216.892 166.711 216.894 167.027L217.047 204.479C217.048 204.795 216.777 205.1 216.293 205.325C215.809 205.551 215.152 205.68 214.466 205.682C213.78 205.685 213.121 205.562 212.636 205.34C212.15 205.119 211.876 204.816 211.875 204.5Z" fill="#4586B2"/>
<path d="M202.878 214.682L202.657 160.771C202.655 160.315 202.926 159.877 203.41 159.553C203.893 159.229 204.55 159.045 205.236 159.042C205.922 159.04 206.581 159.218 207.067 159.538C207.553 159.858 207.827 160.294 207.829 160.75L208.05 214.661C208.052 215.116 207.781 215.554 207.298 215.879C206.814 216.203 206.157 216.386 205.471 216.389C204.785 216.392 204.127 216.214 203.64 215.894C203.154 215.573 202.88 215.138 202.878 214.682Z" fill="#4586B2"/>
<path d="M184.746 212.414L184.525 158.503C184.523 158.048 184.794 157.61 185.278 157.285C185.761 156.961 186.418 156.778 187.104 156.775C187.79 156.772 188.449 156.95 188.935 157.27C189.421 157.591 189.696 158.026 189.697 158.482L189.918 212.393C189.92 212.849 189.649 213.287 189.166 213.611C188.682 213.935 188.025 214.119 187.339 214.122C186.653 214.124 185.995 213.946 185.508 213.626C185.022 213.306 184.748 212.87 184.746 212.414Z" fill="#4586B2"/>
<path d="M139.356 206.816L139.193 167.12C139.192 166.785 139.463 166.462 139.947 166.223C140.431 165.983 141.088 165.847 141.774 165.845C142.46 165.842 143.118 165.972 143.604 166.208C144.09 166.443 144.364 166.763 144.366 167.099L144.528 206.795C144.529 207.13 144.258 207.453 143.774 207.692C143.29 207.931 142.633 208.067 141.947 208.07C141.261 208.073 140.603 207.942 140.117 207.707C139.631 207.472 139.357 207.151 139.356 206.816Z" fill="#4586B2"/>
<path d="M148.359 200.142L148.259 175.703C148.258 175.496 148.529 175.297 149.014 175.149C149.498 175.001 150.156 174.916 150.842 174.913C151.527 174.911 152.186 174.99 152.671 175.134C153.157 175.278 153.43 175.475 153.431 175.682L153.531 200.121C153.532 200.328 153.26 200.527 152.776 200.675C152.291 200.823 151.634 200.908 150.948 200.91C150.262 200.913 149.604 200.834 149.118 200.69C148.633 200.546 148.36 200.349 148.359 200.142Z" fill="#4586B2"/>
<path d="M157.519 212.465L157.325 165.097C157.324 164.697 157.594 164.312 158.078 164.027C158.562 163.742 159.219 163.58 159.905 163.577C160.591 163.575 161.249 163.731 161.736 164.012C162.222 164.293 162.496 164.676 162.497 165.076L162.691 212.444C162.693 212.844 162.422 213.229 161.938 213.514C161.454 213.799 160.797 213.961 160.111 213.964C159.426 213.967 158.767 213.81 158.281 213.529C157.795 213.248 157.521 212.866 157.519 212.465Z" fill="#4586B2"/>
<path d="M166.614 214.682L166.393 160.771C166.392 160.315 166.662 159.877 167.146 159.553C167.63 159.229 168.287 159.045 168.972 159.042C169.658 159.04 170.317 159.218 170.803 159.538C171.29 159.858 171.564 160.294 171.566 160.75L171.786 214.661C171.788 215.116 171.518 215.554 171.034 215.879C170.55 216.203 169.893 216.386 169.207 216.389C168.521 216.392 167.863 216.214 167.377 215.894C166.89 215.573 166.616 215.138 166.614 214.682Z" fill="#4586B2"/>
<path d="M175.599 206.39L175.456 171.501C175.455 171.207 175.726 170.923 176.211 170.712C176.695 170.502 177.352 170.382 178.038 170.379C178.724 170.376 179.382 170.491 179.868 170.697C180.354 170.904 180.627 171.185 180.629 171.48L180.771 206.368C180.773 206.663 180.501 206.947 180.017 207.157C179.533 207.368 178.876 207.488 178.19 207.491C177.504 207.493 176.846 207.379 176.36 207.172C175.874 206.966 175.6 206.684 175.599 206.39Z" fill="#4586B2"/>
<path d="M193.734 206.39L193.591 171.501C193.59 171.207 193.861 170.923 194.345 170.712C194.829 170.502 195.487 170.382 196.173 170.379C196.859 170.376 197.517 170.491 198.003 170.697C198.489 170.904 198.762 171.185 198.763 171.48L198.906 206.368C198.907 206.663 198.636 206.947 198.152 207.157C197.668 207.368 197.011 207.488 196.325 207.491C195.639 207.493 194.98 207.379 194.495 207.172C194.009 206.966 193.735 206.684 193.734 206.39Z" fill="#4586B2"/>
<path d="M302.575 211.726L302.384 165.075C302.382 164.68 302.653 164.301 303.137 164.02C303.621 163.74 304.278 163.58 304.964 163.577C305.65 163.575 306.308 163.729 306.794 164.005C307.28 164.282 307.554 164.659 307.556 165.053L307.747 211.704C307.749 212.099 307.478 212.478 306.994 212.759C306.51 213.039 305.853 213.199 305.167 213.201C304.481 213.204 303.823 213.05 303.336 212.774C302.85 212.497 302.576 212.12 302.575 211.726Z" fill="#4586B2"/>
<path d="M293.486 208.434L293.317 167.17C293.315 166.821 293.586 166.486 294.07 166.237C294.554 165.989 295.211 165.847 295.897 165.845C296.583 165.842 297.242 165.978 297.728 166.222C298.214 166.467 298.487 166.8 298.489 167.149L298.658 208.412C298.659 208.761 298.388 209.097 297.904 209.345C297.42 209.594 296.763 209.735 296.077 209.738C295.391 209.741 294.733 209.605 294.247 209.36C293.761 209.116 293.487 208.782 293.486 208.434Z" fill="#4586B2"/>
<path d="M284.376 201.858L284.251 171.362C284.25 171.104 284.521 170.856 285.005 170.671C285.49 170.487 286.147 170.382 286.833 170.379C287.519 170.376 288.177 170.476 288.663 170.656C289.148 170.837 289.422 171.083 289.423 171.34L289.548 201.836C289.549 202.094 289.277 202.342 288.793 202.526C288.309 202.711 287.652 202.816 286.966 202.819C286.28 202.821 285.622 202.722 285.136 202.541C284.65 202.361 284.377 202.115 284.376 201.858Z" fill="#4586B2"/>
<path d="M275.291 199.732L275.184 173.494C275.183 173.272 275.454 173.058 275.939 172.9C276.423 172.741 277.081 172.65 277.766 172.647C278.452 172.645 279.11 172.73 279.596 172.885C280.082 173.039 280.355 173.251 280.356 173.473L280.463 199.711C280.464 199.933 280.193 200.147 279.708 200.306C279.224 200.464 278.567 200.555 277.881 200.558C277.195 200.561 276.537 200.475 276.051 200.321C275.565 200.166 275.292 199.954 275.291 199.732Z" fill="#4586B2"/>
<path d="M266.27 204.5L266.117 167.048C266.116 166.732 266.387 166.427 266.871 166.202C267.355 165.976 268.012 165.847 268.698 165.845C269.384 165.842 270.042 165.965 270.528 166.187C271.014 166.408 271.288 166.711 271.289 167.027L271.442 204.479C271.444 204.795 271.173 205.1 270.688 205.325C270.204 205.551 269.547 205.68 268.861 205.682C268.175 205.685 267.517 205.562 267.031 205.34C266.545 205.119 266.271 204.816 266.27 204.5Z" fill="#4586B2"/>
<path d="M257.275 214.682L257.055 160.771C257.053 160.315 257.323 159.877 257.807 159.553C258.291 159.229 258.948 159.045 259.634 159.042C260.319 159.04 260.978 159.218 261.464 159.538C261.951 159.858 262.225 160.294 262.227 160.75L262.448 214.661C262.449 215.116 262.179 215.554 261.695 215.879C261.211 216.203 260.554 216.386 259.868 216.389C259.183 216.392 258.524 216.214 258.038 215.894C257.551 215.573 257.277 215.138 257.275 214.682Z" fill="#4586B2"/>
<path d="M242.398 70.6714C238.308 68.7896 235.619 63.4093 235.772 58.1032C235.925 52.7971 238.713 47.8347 242.559 45.3043C244.434 44.1013 246.578 43.3835 248.798 43.2155C251.018 43.0475 253.246 43.4345 255.28 44.3417C259.407 46.1011 264.948 46.5803 267.429 50.9533C269.336 54.3138 268.649 61.8108 267.299 65.5475C266.133 68.7772 263.28 70.597 260.498 71.6154C257.419 72.7324 254.136 73.1742 250.872 72.9109C247.608 72.6476 244.438 71.6853 241.577 70.0891" fill="#2F2E41"/>
<path d="M287.647 216.535L281.851 218.695L270.773 197.337L279.327 194.149L287.647 216.535Z" fill="#FFB8B8"/>
<path d="M277.093 219.839L288.27 215.674L290.889 222.721L272.675 229.51C272.331 228.584 272.172 227.6 272.208 226.613C272.244 225.626 272.474 224.656 272.884 223.758C273.294 222.86 273.877 222.052 274.599 221.38C275.322 220.707 276.169 220.184 277.093 219.839Z" fill="#2F2E41"/>
<path d="M232.05 225.019H225.866L222.925 201.132H232.051L232.05 225.019Z" fill="#FFB8B8"/>
<path d="M221.452 223.25H233.378V230.769H213.943C213.943 229.782 214.138 228.804 214.515 227.892C214.892 226.979 215.445 226.15 216.143 225.452C216.84 224.754 217.668 224.2 218.579 223.822C219.49 223.444 220.466 223.25 221.452 223.25Z" fill="#2F2E41"/>
<path d="M213.25 138.918C214.037 138.834 214.797 138.577 215.475 138.167C216.153 137.756 216.732 137.202 217.173 136.543C217.614 135.883 217.905 135.135 218.026 134.351C218.147 133.567 218.095 132.766 217.873 132.005L238.215 96.8619L231.1 94.0127L210.766 128.372C209.513 128.83 208.471 129.732 207.838 130.908C207.205 132.083 207.024 133.45 207.33 134.75C207.636 136.05 208.408 137.193 209.499 137.961C210.59 138.729 211.925 139.07 213.25 138.918Z" fill="#FFB8B8"/>
<path d="M233.645 109.355L222.834 102.628L233.028 84.0252C233.477 83.2067 234.085 82.4867 234.816 81.9076C235.548 81.3285 236.388 80.9022 237.287 80.6538C238.185 80.4055 239.125 80.3402 240.049 80.4618C240.974 80.5834 241.864 80.8894 242.668 81.3618C243.473 81.8341 244.174 82.4632 244.732 83.2118C245.289 83.9603 245.69 84.8133 245.913 85.72C246.135 86.6268 246.174 87.569 246.026 88.4909C245.878 89.4128 245.548 90.2957 245.053 91.0874L233.645 109.355Z" fill="#2F2E41"/>
<path d="M274.924 208.812C274.504 208.812 274.093 208.695 273.736 208.474C273.379 208.253 273.091 207.937 272.903 207.561L246.008 152.121C245.843 151.794 245.58 151.527 245.256 151.356C244.933 151.186 244.564 151.12 244.201 151.168C243.839 151.216 243.5 151.376 243.232 151.625C242.964 151.874 242.78 152.201 242.705 152.559L233.123 205.398C233.016 205.91 232.737 206.369 232.332 206.7C231.928 207.03 231.422 207.211 230.9 207.213H224.796C224.229 207.216 223.682 207.005 223.263 206.622C222.844 206.24 222.584 205.713 222.535 205.148C218.785 163.937 220.814 133.948 228.567 116.014C228.786 115.515 229.176 115.112 229.666 114.876C230.156 114.64 230.714 114.587 231.24 114.726L262.23 123.064C262.62 123.169 262.975 123.376 263.259 123.665C263.542 123.953 263.743 124.312 263.842 124.704L283.266 204.044C283.406 204.606 283.327 205.2 283.045 205.706C282.763 206.211 282.299 206.59 281.748 206.765L275.614 208.705C275.391 208.776 275.158 208.812 274.924 208.812Z" fill="#2F2E41"/>
<path d="M250.852 75.7029C257.694 75.7029 263.24 70.1484 263.24 63.2965C263.24 56.4447 257.694 50.8901 250.852 50.8901C244.009 50.8901 238.463 56.4447 238.463 63.2965C238.463 70.1484 244.009 75.7029 250.852 75.7029Z" fill="#FFB8B8"/>
<path d="M262.554 81.4371C262.554 81.4371 251.457 75.3756 242.882 81.9422C242.882 81.9422 232.037 92.8024 235.568 103.41L226.741 128.414C233.726 141.676 254.173 139.529 264.067 128.414L263.31 104.42L262.554 81.4371Z" fill="#4586B2"/>
<path d="M269.577 148.227C267.647 148.28 265.734 147.854 264.008 146.987C261.284 145.524 259.607 142.771 259.025 138.805C258.052 132.182 258.853 123.077 259.702 113.438C260.805 100.902 261.946 87.9393 258.891 80.8057C258.732 80.4302 258.676 80.0185 258.731 79.6142C258.786 79.2099 258.948 78.8278 259.202 78.5082C259.455 78.1886 259.79 77.9433 260.17 77.7982C260.551 77.6531 260.964 77.6135 261.365 77.6837L270.054 79.1838C270.506 79.2637 270.924 79.4783 271.252 79.7996C271.581 80.1209 271.805 80.5339 271.895 80.9848L283.94 142.259C284.039 142.756 283.969 143.271 283.741 143.723C283.514 144.175 283.142 144.538 282.684 144.753C280.061 145.99 274.616 148.227 269.577 148.227Z" fill="#2F2E41"/>
<path d="M224.081 147.412C223.769 147.411 223.461 147.347 223.175 147.223C221.746 146.605 219.77 145.706 217.302 144.553C210.486 141.367 228.462 97.36 232.135 88.5707C232.262 88.2647 232.455 87.9906 232.7 87.7681L242.541 78.7992C242.92 78.5032 243.384 78.3355 243.864 78.3205C244.345 78.3054 244.818 78.4436 245.215 78.7152C245.612 78.9869 245.913 79.3778 246.074 79.8317C246.235 80.2855 246.247 80.7789 246.11 81.2404C244.383 87.0358 241.325 96.7511 238.086 107.037C232.976 123.269 227.691 140.054 226.279 145.695C226.156 146.186 225.873 146.621 225.475 146.932C225.076 147.243 224.586 147.412 224.081 147.412Z" fill="#2F2E41"/>
<path d="M293.245 136.768C293.652 136.087 293.906 135.326 293.987 134.537C294.068 133.747 293.975 132.95 293.716 132.201C293.456 131.451 293.035 130.768 292.483 130.199C291.931 129.63 291.261 129.189 290.521 128.907L274.768 91.4756L268.211 95.4455L283.344 132.399C282.954 133.677 283.045 135.053 283.6 136.267C284.156 137.481 285.137 138.45 286.357 138.988C287.578 139.526 288.953 139.598 290.222 139.189C291.492 138.78 292.568 137.918 293.245 136.768Z" fill="#FFB8B8"/>
<path d="M270.095 107.243L261.41 87.8871C261.028 87.0354 260.821 86.1155 260.8 85.182C260.779 84.2485 260.945 83.3203 261.289 82.4523C261.632 81.5843 262.146 80.794 262.8 80.1284C263.454 79.4627 264.234 78.9352 265.095 78.5769C265.956 78.2187 266.88 78.037 267.813 78.0426C268.745 78.0482 269.667 78.2411 270.524 78.6097C271.38 78.9783 272.155 79.5153 272.8 80.1888C273.446 80.8623 273.951 81.6586 274.284 82.5308L281.969 102.655L270.095 107.243Z" fill="#2F2E41"/>
<path d="M259.66 47.854C260.107 47.9192 260.562 47.8353 260.955 47.6153C261.349 47.3952 261.659 47.0514 261.838 46.6369C262.003 46.2171 262.07 45.7649 262.034 45.315C261.998 44.8651 261.859 44.4296 261.628 44.0418C261.159 43.2689 260.504 42.6258 259.724 42.1711C258.825 41.5693 257.785 41.2112 256.707 41.1316C256.168 41.0963 255.629 41.1772 255.125 41.3689C254.621 41.5605 254.163 41.8585 253.784 42.2425C253.414 42.6361 253.17 43.1313 253.083 43.6647C252.995 44.1981 253.069 44.7454 253.294 45.2367C253.747 46.1115 254.698 46.6021 255.624 46.9352C257.461 47.5942 259.418 47.8516 261.363 47.69" fill="#2F2E41"/>
<path d="M264.065 61.231C262.134 61.794 262.24 60.7523 261.181 59.0404C260.123 57.3285 258.747 55.3139 256.739 55.4212C255.094 55.509 253.948 57.0058 252.775 58.1648C250.685 60.2305 247.65 61.5386 244.782 60.908C241.914 60.2774 239.549 57.3139 240.179 54.4415C240.389 53.643 240.761 52.8962 241.271 52.2475C241.781 51.5987 242.419 51.0617 243.145 50.6698C244.603 49.8949 246.203 49.4264 247.848 49.2929C251.489 48.8739 255.177 49.2602 258.652 50.4246C261.051 51.2306 263.463 52.5344 264.657 54.7685C265.851 57.0026 266.896 60.2355 264.569 61.2311L264.065 61.231Z" fill="#2F2E41"/>
<path d="M257.956 41.4543C256.32 39.3778 256.936 36.1062 258.842 34.2759C260.749 32.4455 263.584 31.8751 266.214 32.1079C268.821 32.3708 271.312 33.3154 273.439 34.8469C275.566 36.3785 277.254 38.4431 278.332 40.8338C279.995 44.6421 279.981 48.9981 281.484 52.8721C282.286 54.9372 283.501 56.8162 285.055 58.3933C286.609 59.9704 288.469 61.2122 290.52 62.0423C292.571 62.8724 294.77 63.2733 296.982 63.2201C299.194 63.167 301.371 62.661 303.381 61.7333C305.997 60.525 308.489 58.1589 308.34 55.277C309.994 61.665 307.015 68.9721 301.368 72.374C298.06 74.3666 294.143 75.0431 290.311 75.5086C287.814 75.812 285.248 76.0377 282.811 75.4127C279.401 74.5383 276.547 72.0184 274.819 68.9483C273.09 65.8782 272.41 62.3006 272.384 58.7762C272.363 56.0307 272.722 53.2838 272.533 50.5448C272.343 47.8058 271.521 44.9727 269.538 43.0763C267.555 41.1799 264.21 40.5558 262.034 42.2261C261.159 42.8975 260.518 43.8778 259.534 44.373C258.549 44.8683 256.994 44.4831 256.928 43.3817L257.956 41.4543Z" fill="#2F2E41"/>
</svg>
