<svg width="301" height="277" viewBox="0 0 301 277" fill="none" xmlns="http://www.w3.org/2000/svg">
<circle cx="144.5" cy="138.5" r="138.5" fill="#C4E8F4"/>
<g clip-path="url(#clip0_1006_395)">
<path d="M240.296 57.263C238.732 74.4114 234.277 92.4935 227.291 109.94C218.652 131.515 206.848 150.519 193.156 164.896L192.396 164.236C206.022 149.929 217.772 131.009 226.375 109.523C234.15 90.1066 238.775 69.9007 239.755 51.099L240.726 51.2608C240.623 53.2465 240.48 55.2472 240.296 57.263Z" fill="#F2F2F2"/>
<path d="M246.524 156.858C227.292 187.312 203.961 209.071 180.826 218.128L180.358 217.274C203.333 208.28 226.528 186.632 245.671 156.317L246.524 156.858Z" fill="#F2F2F2"/>
<path d="M239.829 78.6135C238.265 95.7619 233.811 113.844 226.824 131.291C218.185 152.866 206.382 171.869 192.69 186.246L191.93 185.587C205.555 171.279 217.305 152.36 225.908 130.874C233.684 111.457 238.308 91.2512 239.288 72.4495L240.259 72.6113C240.156 74.597 240.013 76.5977 239.829 78.6135Z" fill="#F2F2F2"/>
<path d="M253.254 178.716H240.636C240.366 178.717 240.1 178.657 239.857 178.54C239.614 178.424 239.401 178.254 239.233 178.044C239.068 177.839 238.951 177.599 238.892 177.343C238.832 177.087 238.832 176.821 238.891 176.565C240.093 171.287 240.017 165.8 238.671 160.556C238.586 160.211 238.606 159.848 238.73 159.515C238.854 159.181 239.075 158.892 239.365 158.685C245.853 154.04 250.963 154.175 254.552 159.086C254.714 159.31 254.821 159.568 254.866 159.841C255.825 165.579 255.878 171.432 255.023 177.187C254.964 177.612 254.752 178.001 254.427 178.282C254.101 178.563 253.685 178.717 253.254 178.716Z" fill="#E6E6E6"/>
<path d="M249.341 166.139H245.001C244.761 166.138 244.531 166.043 244.362 165.874C244.193 165.705 244.098 165.476 244.098 165.238C244.098 164.999 244.193 164.77 244.362 164.602C244.531 164.433 244.761 164.338 245.001 164.337H249.341C249.581 164.337 249.812 164.432 249.981 164.601C250.151 164.77 250.246 164.999 250.246 165.238C250.246 165.477 250.151 165.706 249.981 165.875C249.812 166.044 249.581 166.139 249.341 166.139Z" fill="white"/>
<path d="M249.341 169.298H245.001C244.761 169.298 244.531 169.202 244.362 169.033C244.193 168.865 244.098 168.636 244.098 168.397C244.098 168.159 244.193 167.93 244.362 167.761C244.531 167.592 244.761 167.497 245.001 167.496H249.341C249.581 167.496 249.812 167.591 249.981 167.76C250.151 167.929 250.246 168.158 250.246 168.397C250.246 168.636 250.151 168.865 249.981 169.034C249.812 169.203 249.581 169.298 249.341 169.298Z" fill="white"/>
<path d="M249.341 172.457H245.001C244.761 172.457 244.531 172.362 244.362 172.193C244.193 172.024 244.098 171.795 244.098 171.556C244.098 171.318 244.193 171.089 244.362 170.92C244.531 170.751 244.761 170.656 245.001 170.656H249.341C249.581 170.656 249.812 170.751 249.981 170.92C250.151 171.088 250.246 171.318 250.246 171.556C250.246 171.795 250.151 172.025 249.981 172.193C249.812 172.362 249.581 172.457 249.341 172.457Z" fill="white"/>
<path d="M79.1524 226.757L78.3654 215.862C73.2103 213.297 67.5041 212.023 61.7422 212.151C69.8484 218.388 69.1991 230.853 74.8131 239.384C76.5845 242.031 78.9317 244.248 81.6808 245.87C84.4299 247.491 87.5104 248.476 90.6939 248.752L97.4402 252.615C98.212 247.538 97.8687 242.355 96.4342 237.423C94.9997 232.49 92.5079 227.926 89.1307 224.045C87.2144 221.886 85.0325 219.976 82.6367 218.36C81.1621 222.574 79.1524 226.757 79.1524 226.757Z" fill="#F2F2F2"/>
<path d="M221.848 228.336L222.635 217.441C227.79 214.876 233.496 213.603 239.258 213.731C231.152 219.968 231.801 232.433 226.187 240.964C224.416 243.611 222.068 245.828 219.319 247.449C216.57 249.071 213.49 250.056 210.306 250.332L203.56 254.195C202.788 249.118 203.131 243.935 204.566 239.002C206 234.07 208.492 229.506 211.869 225.625C213.786 223.466 215.967 221.556 218.363 219.94C219.838 224.154 221.848 228.336 221.848 228.336Z" fill="#F2F2F2"/>
<path d="M146.929 105.387C151.092 105.387 154.467 102.027 154.467 97.8834C154.467 93.7394 151.092 90.3801 146.929 90.3801C142.766 90.3801 139.391 93.7394 139.391 97.8834C139.391 102.027 142.766 105.387 146.929 105.387Z" fill="#4586B2"/>
<path d="M150.799 94.7562C150.685 94.6486 150.534 94.5885 150.378 94.5885C150.221 94.5885 150.07 94.6486 149.957 94.7562C148.357 96.026 146.921 97.4867 145.679 99.1053C145.375 98.5184 145.07 97.9314 144.765 97.3443C144.413 96.6668 143.386 97.2653 143.737 97.9423C144.183 98.8009 144.629 99.6595 145.075 100.518C145.128 100.606 145.204 100.678 145.294 100.728C145.384 100.779 145.485 100.805 145.588 100.805C145.692 100.805 145.793 100.779 145.883 100.728C145.973 100.678 146.049 100.606 146.102 100.518C147.425 98.6634 149.007 97.0054 150.799 95.594C150.909 95.4824 150.971 95.3319 150.971 95.1751C150.971 95.0183 150.909 94.8678 150.799 94.7562Z" fill="white"/>
<path d="M113.199 119.16L101.832 101.391L114.995 94.3738L118.45 107.931L142.793 121.024C143.754 120.68 144.795 120.622 145.788 120.856C146.782 121.09 147.686 121.608 148.39 122.344C149.094 123.081 149.567 124.006 149.751 125.006C149.936 126.006 149.825 127.038 149.431 127.976C149.036 128.914 148.377 129.717 147.532 130.288C146.687 130.859 145.693 131.173 144.672 131.192C143.65 131.211 142.646 130.933 141.78 130.393C140.915 129.853 140.226 129.075 139.797 128.152L113.199 119.16Z" fill="#A0616A"/>
<path d="M93.5272 80.0782C89.9555 85.298 102.648 104.272 102.648 104.272C103.267 102.945 109.178 117.843 110.168 116.963C112.981 114.462 117.386 107.495 119.834 107.184C121.235 107.006 116.587 97.1222 116.587 97.1222C116.587 97.1222 114.463 91.2856 111.581 83.83C110.805 81.7071 109.503 79.814 107.794 78.327C106.086 76.84 104.028 75.8074 101.811 75.3253C101.811 75.3253 97.0989 74.8584 93.5272 80.0782Z" fill="#3F3D56"/>
<path d="M93.7014 250.141L99.0999 250.141L101.668 229.414L93.7002 229.414L93.7014 250.141Z" fill="#A0616A"/>
<path d="M92.3242 248.387L93.8438 248.387L99.7763 245.985L102.956 248.386H102.956C104.753 248.386 106.477 249.097 107.747 250.362C109.018 251.626 109.732 253.342 109.732 255.13V255.35L92.3245 255.35L92.3242 248.387Z" fill="#2F2E41"/>
<path d="M118.782 250.141L124.181 250.141L126.749 229.414L118.781 229.414L118.782 250.141Z" fill="#A0616A"/>
<path d="M117.405 248.387L118.925 248.387L124.857 245.985L128.037 248.386H128.038C129.834 248.386 131.558 249.097 132.828 250.362C134.099 251.626 134.813 253.342 134.813 255.13V255.35L117.406 255.35L117.405 248.387Z" fill="#2F2E41"/>
<path d="M121.119 136.825L86.004 137.699C79.3349 141.305 79.2336 149.109 81.4188 158.374C81.4188 158.374 80.6811 163.881 82.1564 165.349C83.6318 166.818 84.3695 166.818 83.6318 169.388C82.8941 171.958 86.7916 176.155 86.3182 176.626C85.8448 177.098 84.7383 179.668 84.7383 179.668L88.4267 200.594C88.4267 200.594 91.0086 236.94 91.7462 237.674C92.4839 238.409 93.2216 237.674 92.4839 239.51C91.7462 241.346 91.0086 240.612 91.7462 241.346C92.3997 242.047 93.0153 242.782 93.5904 243.549H102.508C102.508 243.549 103.18 239.877 103.18 239.51C103.18 239.143 103.918 236.94 103.918 236.573C103.918 236.206 103.266 235.557 103.266 235.557C103.041 234.811 102.888 234.044 102.811 233.269C102.811 232.535 100.598 204.265 100.598 204.265L105.024 167.552L115.721 203.531C115.721 203.531 115.721 235.105 116.458 235.839C117.196 236.573 117.196 236.206 116.827 237.674C116.458 239.143 114.983 238.776 116.09 239.877C117.196 240.979 117.565 239.143 117.196 240.979L116.827 242.814L127.892 242.972C127.892 242.972 129.368 239.877 128.63 238.776C127.892 237.674 127.937 237.975 128.837 236.173C129.737 234.37 130.105 234.003 129.737 233.636C129.368 233.269 129.368 231.316 129.368 231.316L127.524 196.189C127.524 196.189 127.155 159.108 127.155 158.007C127.127 157.44 127.232 156.875 127.461 156.355V154.86L126.048 149.563L121.119 136.825Z" fill="#2F2E41"/>
<path d="M100.026 64.1471C106.051 64.1471 110.936 59.2849 110.936 53.2871C110.936 47.2893 106.051 42.4271 100.026 42.4271C94 42.4271 89.1152 47.2893 89.1152 53.2871C89.1152 59.2849 94 64.1471 100.026 64.1471Z" fill="#A0616A"/>
<path d="M105.481 71.3247C107.831 72.7156 109.237 75.2713 110.044 77.8718C111.539 82.6865 112.438 87.6644 112.723 92.6956L113.576 107.758L124.134 139.831C114.983 147.538 80.5873 141.582 80.5873 141.582C80.5873 141.582 79.5315 141.232 80.5873 140.181C81.6431 139.13 82.671 140.061 81.6152 139.01C80.5594 137.959 81.2872 139.13 81.6392 138.079C81.9911 137.028 81.6392 137.729 81.2872 137.378C80.9353 137.028 84.0118 133.875 84.0118 133.875L81.1962 115.465L77.6768 78.3311C81.9002 73.0763 90.3939 69.9786 90.3939 69.9786L92.5886 66.0464L103.562 66.9203L105.481 71.3247Z" fill="#3F3D56"/>
<path d="M109.019 47.5173C109.867 48.1469 110.495 49.0253 110.815 50.0289C110.938 48.3888 110.946 46.7421 110.838 45.1009C110.71 43.9476 109.894 43.6882 108.95 43.3876C108.096 43.1161 107.132 42.8093 106.872 41.6897C103.443 38.3687 97.4724 38.5362 93.3865 39.6946C91.1383 40.332 89.8446 41.151 89.7289 41.6308L89.7049 41.7296L89.6135 41.775C87.8805 42.6375 87.5432 45.3612 87.5655 47.4941C87.6077 51.5127 89.0016 56.0767 89.7869 56.4475C89.8285 56.4671 89.839 56.4594 89.857 56.4445C91.0395 55.5039 92.4821 56.516 93.116 57.0662C93.49 54.5686 94.694 52.2677 96.5357 50.5311C98.3775 48.7945 100.751 47.7223 103.277 47.4858C104.101 47.4064 104.92 47.2699 105.725 47.077C106.134 46.9718 106.554 46.9169 106.976 46.9136C107.703 46.9027 108.416 47.1133 109.019 47.5173Z" fill="#2F2E41"/>
<path d="M176.75 145.479L197.738 124.265L203.267 107.298L194.369 103.716C189.961 108.141 185.423 121.69 185.423 121.69L171.099 140.827C170.984 140.869 170.87 140.914 170.758 140.967C170.098 141.277 169.53 141.751 169.109 142.343C168.687 142.936 168.426 143.626 168.351 144.348C168.276 145.07 168.389 145.799 168.679 146.465C168.97 147.131 169.428 147.711 170.01 148.149C170.592 148.587 171.277 148.868 172 148.965C172.723 149.063 173.458 148.973 174.136 148.704C174.814 148.436 175.41 147.998 175.868 147.433C176.326 146.868 176.63 146.195 176.75 145.479Z" fill="#FFB8B8"/>
<path d="M191.941 105.657L203.194 108.897L203.236 108.889C207.373 108.089 210.645 101.247 212.661 95.648C213.324 93.8012 213.258 91.7725 212.477 89.9722C211.695 88.172 210.256 86.7343 208.45 85.9499C207.114 85.3802 205.644 85.1938 204.207 85.4119C202.77 85.63 201.423 86.2439 200.318 87.184L194.708 91.993L191.941 105.657Z" fill="#4586B2"/>
<path d="M182.314 249.511L176.262 249.511L173.383 226.276L182.314 226.276L182.314 249.511Z" fill="#FFB8B8"/>
<path d="M183.858 247.544L182.154 247.544L175.504 244.852L171.939 247.544H171.939C169.925 247.544 167.993 248.34 166.569 249.758C165.144 251.176 164.344 253.099 164.344 255.104V255.349L183.857 255.35L183.858 247.544Z" fill="#2F2E41"/>
<path d="M209.166 249.511L203.114 249.511L200.235 226.276L209.167 226.276L209.166 249.511Z" fill="#FFB8B8"/>
<path d="M210.71 247.544L209.007 247.544L202.356 244.852L198.792 247.544H198.792C196.777 247.544 194.845 248.34 193.421 249.758C191.997 251.176 191.196 253.099 191.196 255.104V255.349L210.71 255.35L210.71 247.544Z" fill="#2F2E41"/>
<path d="M218.395 149.43C218.395 149.43 219.101 157.871 217.335 165.96C215.568 174.049 215.568 196.83 215.568 196.83L211.681 241.223L200.021 240.168L196.841 165.96L185.535 190.93L186.595 194.447L185.183 195.327C185.183 195.327 186.242 202.185 185.535 202.185C184.828 202.185 183.062 203.24 183.062 203.24L184.475 239.464L172.462 239.113L168.222 188.117L172.815 158.926L173.168 153.299L174.758 153.364L175.568 151.013L177.055 146.968L218.395 149.43Z" fill="#2F2E41"/>
<path d="M219.006 151.203L219.069 151.115C222.432 146.428 217.374 135.166 216.611 133.534L219.824 132.496L219.1 126.374L218.758 123.644L221.213 121.2L221.22 121.139L222.634 108.829L224.689 100.653C225.463 97.5628 225.397 94.3226 224.497 91.2656C223.598 88.2087 221.897 85.445 219.57 83.2584L214.82 78.8006L209.048 70.2986H199.739L196.547 76.2997C193.452 77.0117 190.707 78.7816 188.788 81.3013C186.87 83.821 185.9 86.9307 186.049 90.0887L186.772 105.828L183.94 125.425L183.938 128.971L180.751 132.497L181.447 135.96L179.022 136.995L177.951 141.97C177.508 142.552 174.582 146.434 174.582 147.496C174.582 147.655 174.7 147.809 174.954 147.98C176.948 149.324 187.967 152.064 192.844 150.121C198.039 148.053 218.69 151.155 218.898 151.187L219.006 151.203Z" fill="#4586B2"/>
<path d="M203.19 67.554C209.999 67.554 215.519 62.0598 215.519 55.2823C215.519 48.5048 209.999 43.0106 203.19 43.0106C196.381 43.0106 190.861 48.5048 190.861 55.2823C190.861 62.0598 196.381 67.554 203.19 67.554Z" fill="#FFB8B8"/>
<path d="M202.009 67.7527C203.918 67.7333 205.823 67.5516 207.701 67.2095C209.56 66.7831 213.663 63.6254 214.781 61.76C215.612 60.374 216.11 58.2301 216.382 56.6758C216.75 54.6188 216.679 52.508 216.175 50.4799C215.67 48.4519 214.744 46.5519 213.455 44.9029C212.958 44.2122 212.283 43.6679 211.501 43.3277C211.431 43.3028 211.36 43.281 211.289 43.2626C210.155 42.9966 209.127 42.3995 208.337 41.5477C208.183 41.3753 208.017 41.2141 207.841 41.0654C206.954 40.3588 205.912 39.8712 204.8 39.6423C203.004 39.2128 200.433 39.751 197.162 41.2433C195.518 41.993 193.693 41.7839 192.287 41.5179C192.208 41.5048 192.127 41.5125 192.052 41.5402C191.977 41.5679 191.911 41.6147 191.86 41.6758C191.279 42.2471 190.503 42.5785 189.687 42.6033C189.188 42.638 188.681 43.3404 188.071 44.255C187.932 44.4626 187.771 44.7049 187.653 44.8528L187.63 44.5751L187.355 44.8926C186.923 45.3916 186.626 45.9913 186.489 46.6358C186.353 47.2803 186.383 47.9486 186.576 48.5785C186.769 49.2085 187.119 49.7795 187.594 50.2385C188.068 50.6975 188.652 51.0295 189.29 51.2036C189.796 51.3238 190.313 51.3923 190.834 51.4079C191.149 51.428 191.475 51.4488 191.788 51.4947C192.795 51.673 193.738 52.108 194.525 52.7572C195.312 53.4065 195.916 54.2478 196.279 55.199C196.365 55.4188 196.5 55.6161 196.674 55.7756C196.849 55.9351 197.058 56.0526 197.285 56.119C197.512 56.1854 197.752 56.1989 197.985 56.1584C198.219 56.118 198.44 56.0248 198.631 55.8859C198.949 55.6257 199.326 55.446 199.729 55.3622C200.133 55.2783 200.55 55.2928 200.947 55.4044C201.291 55.5837 201.564 55.8756 201.718 56.231C201.904 56.6267 202.205 56.9581 202.581 57.1829C203.865 57.8005 204.027 60.6781 203.634 63.0905C203.256 65.4159 202.432 67.1122 201.632 67.2155C201.016 67.2951 200.946 67.3406 200.904 67.4505L200.867 67.5489L200.938 67.6382C201.283 67.7525 201.648 67.7916 202.009 67.7527Z" fill="#2F2E41"/>
<path d="M191.78 106.969L185.854 99.4531C179.818 101.108 169.107 110.61 169.107 110.61L147.111 120.112C146.377 119.989 145.623 120.061 144.926 120.32C144.228 120.58 143.612 121.017 143.138 121.589C142.665 122.161 142.351 122.847 142.229 123.578C142.106 124.309 142.179 125.059 142.441 125.753C142.702 126.446 143.142 127.059 143.717 127.53C144.293 128.001 144.982 128.312 145.716 128.433C146.451 128.554 147.204 128.48 147.901 128.219C148.598 127.959 149.213 127.519 149.685 126.946L178.5 118.945L191.78 106.969Z" fill="#FFB8B8"/>
<path d="M190.36 108.687L199.711 98.3119L200.23 90.9602C200.326 89.5166 200.015 88.0748 199.332 86.7979C198.649 85.5209 197.62 84.4597 196.363 83.734C194.651 82.7618 192.633 82.4727 190.716 82.9251C188.798 83.3775 187.125 84.5377 186.034 86.1711C182.73 91.1275 179.176 97.8287 181.005 101.607L181.023 101.645L190.36 108.687Z" fill="#4586B2"/>
<path d="M104.177 147.685L79.875 135.296C78.1464 134.415 77.5738 132.077 78.5986 130.086L94.4443 99.2888C95.4692 97.297 97.7093 96.3935 99.4379 97.2747L123.74 109.664C125.469 110.545 126.042 112.882 125.017 114.874L109.171 145.671C108.146 147.663 105.906 148.566 104.177 147.685Z" fill="#E6E6E6"/>
<path d="M100.025 141.99L83.5138 133.572C81.8948 132.747 81.3584 130.558 82.3182 128.693L95.4826 103.107C96.4424 101.242 98.5404 100.396 100.159 101.221L120.102 111.387C121.721 112.213 122.257 114.401 121.297 116.267L114.146 130.166C109.87 138.475 107.237 145.666 100.025 141.99Z" fill="white"/>
<path d="M108.189 128.017L93.5646 120.562C93.3857 120.435 93.2587 120.249 93.2067 120.036C93.1547 119.824 93.1811 119.6 93.2812 119.406C93.3813 119.211 93.5484 119.059 93.7519 118.977C93.9554 118.895 94.1817 118.888 94.3896 118.959L109.014 126.414C109.193 126.541 109.32 126.727 109.372 126.94C109.424 127.152 109.398 127.376 109.298 127.57C109.198 127.765 109.03 127.917 108.827 127.999C108.623 128.081 108.397 128.088 108.189 128.017Z" fill="#4586B2"/>
<path d="M95.2712 125.432L91.9337 123.73C91.7549 123.603 91.6279 123.417 91.5758 123.204C91.5238 122.992 91.5503 122.768 91.6504 122.574C91.7505 122.379 91.9175 122.227 92.121 122.145C92.3245 122.063 92.5509 122.056 92.7588 122.127L96.0963 123.828C96.2751 123.955 96.4021 124.141 96.4541 124.354C96.5061 124.566 96.4797 124.79 96.3796 124.985C96.2795 125.179 96.1125 125.331 95.909 125.413C95.7055 125.495 95.4791 125.502 95.2712 125.432Z" fill="#4586B2"/>
<path d="M99.5524 131.613L90.3038 126.898C90.125 126.771 89.998 126.585 89.946 126.373C89.8939 126.16 89.9204 125.936 90.0205 125.742C90.1206 125.547 90.2876 125.395 90.4911 125.313C90.6946 125.231 90.921 125.224 91.1289 125.295L100.378 130.009C100.556 130.136 100.683 130.323 100.735 130.535C100.787 130.748 100.761 130.971 100.661 131.166C100.561 131.361 100.394 131.513 100.19 131.595C99.9867 131.677 99.7603 131.683 99.5524 131.613Z" fill="#4586B2"/>
<path d="M113.976 116.769L99.3517 109.314C99.1729 109.187 99.0458 109.001 98.9938 108.788C98.9418 108.576 98.9682 108.352 99.0683 108.158C99.1684 107.963 99.3355 107.811 99.539 107.729C99.7425 107.647 99.9688 107.64 100.177 107.711L114.801 115.166C114.98 115.293 115.107 115.479 115.159 115.692C115.211 115.904 115.185 116.128 115.085 116.322C114.985 116.517 114.818 116.669 114.614 116.751C114.411 116.833 114.184 116.84 113.976 116.769Z" fill="#4586B2"/>
<path d="M101.059 114.184L97.7218 112.482C97.543 112.355 97.4159 112.169 97.3639 111.957C97.3119 111.744 97.3384 111.52 97.4385 111.326C97.5386 111.131 97.7056 110.979 97.9091 110.897C98.1126 110.815 98.339 110.808 98.5469 110.879L101.884 112.58C102.063 112.707 102.19 112.894 102.242 113.106C102.294 113.318 102.268 113.542 102.168 113.737C102.068 113.931 101.901 114.083 101.697 114.165C101.494 114.248 101.267 114.254 101.059 114.184Z" fill="#4586B2"/>
<path d="M105.34 120.365L96.0909 115.65C95.9121 115.524 95.7851 115.337 95.7331 115.125C95.6811 114.912 95.7075 114.688 95.8076 114.494C95.9077 114.299 96.0747 114.147 96.2782 114.065C96.4817 113.983 96.7081 113.977 96.916 114.047L106.165 118.762C106.343 118.888 106.47 119.075 106.522 119.287C106.574 119.5 106.548 119.724 106.448 119.918C106.348 120.113 106.181 120.265 105.977 120.347C105.774 120.429 105.547 120.436 105.34 120.365Z" fill="#4586B2"/>
<path d="M84.0391 120.873L78.5488 100.529L93.2203 97.764L92.4313 111.729L111.708 131.486C112.729 131.444 113.74 131.699 114.617 132.22C115.495 132.74 116.201 133.503 116.65 134.416C117.099 135.329 117.272 136.353 117.147 137.362C117.022 138.371 116.605 139.322 115.946 140.099C115.288 140.876 114.416 141.445 113.438 141.738C112.46 142.03 111.417 142.033 110.437 141.746C109.458 141.459 108.583 140.895 107.92 140.121C107.257 139.348 106.834 138.399 106.703 137.391L84.0391 120.873Z" fill="#A0616A"/>
<path d="M77.0479 77.7178C72.0679 81.6311 78.4598 103.52 78.4598 103.52C79.4494 102.439 80.5994 118.416 81.809 117.872C85.2469 116.326 91.548 110.994 93.9773 111.429C95.3665 111.678 93.911 100.861 93.911 100.861C93.911 100.861 93.6433 94.6591 93.1402 86.6862C93.0399 84.4296 92.3677 82.2348 91.1861 80.3063C90.0044 78.3778 88.3518 76.7782 86.382 75.6565C86.382 75.6565 82.0279 73.8045 77.0479 77.7178Z" fill="#3F3D56"/>
<path d="M159.91 166.03L146.648 159.797C146.365 159.664 146.115 159.469 145.918 159.227C145.72 158.985 145.581 158.701 145.51 158.397C145.438 158.1 145.434 157.791 145.5 157.492C145.565 157.194 145.698 156.914 145.887 156.674C149.729 151.787 152.367 146.072 153.589 139.987C153.682 139.521 153.934 139.102 154.302 138.8C154.67 138.498 155.133 138.333 155.61 138.332C162.373 138.355 167.428 140.813 170.634 145.638C170.803 145.889 170.915 146.173 170.962 146.472C171.009 146.77 170.99 147.075 170.907 147.366C169.051 153.733 166.227 159.781 162.532 165.297C162.258 165.715 161.841 166.019 161.359 166.153C160.877 166.288 160.362 166.244 159.91 166.03Z" fill="#E6E6E6"/>
<path d="M163.811 157.288L153.671 152.521C153.419 152.403 153.224 152.189 153.13 151.928C153.036 151.667 153.05 151.379 153.169 151.128C153.288 150.877 153.503 150.683 153.765 150.589C154.028 150.495 154.317 150.509 154.569 150.628L164.71 155.394C164.834 155.453 164.946 155.535 165.039 155.637C165.132 155.739 165.204 155.858 165.251 155.987C165.297 156.117 165.318 156.254 165.311 156.392C165.304 156.529 165.271 156.664 165.212 156.788C165.153 156.912 165.07 157.024 164.967 157.116C164.865 157.209 164.745 157.28 164.615 157.326C164.485 157.373 164.347 157.393 164.209 157.387C164.071 157.38 163.936 157.346 163.811 157.288Z" fill="white"/>
<path d="M165.387 153.967L155.247 149.201C154.995 149.082 154.8 148.869 154.706 148.608C154.612 148.346 154.626 148.058 154.745 147.807C154.864 147.556 155.079 147.362 155.341 147.269C155.604 147.175 155.893 147.189 156.146 147.307L166.286 152.074C166.538 152.192 166.733 152.406 166.827 152.667C166.921 152.928 166.907 153.216 166.788 153.467C166.669 153.718 166.454 153.912 166.192 154.006C165.929 154.1 165.64 154.086 165.387 153.967Z" fill="white"/>
<path d="M151.838 49.7328L150.894 49.8357C146.685 33.3741 138.528 21.9696 127.303 16.855C113.033 10.3535 95.387 14.7194 77.6164 29.1486C59.7555 43.6516 43.9439 66.5599 33.0946 93.6548L32.1787 93.2376C43.0756 66.0243 58.9684 43.0053 76.9294 28.4218C94.9805 13.7645 112.986 9.36663 127.63 16.0384C139.177 21.2995 147.548 32.9509 151.838 49.7328Z" fill="#F2F2F2"/>
<path d="M47.7015 71.172C45.233 76.348 42.8852 81.7103 40.723 87.1099C28.2808 118.182 21.9757 149.916 22.4909 178.881L21.5185 178.778C21.0027 149.705 27.326 117.862 39.8071 86.6927C41.9755 81.2779 44.3301 75.9004 46.8056 70.7098L47.7015 71.172Z" fill="#F2F2F2"/>
<path d="M47.2347 92.5224C44.7662 97.6984 42.4184 103.061 40.2562 108.46C27.814 139.533 21.5088 171.266 22.0241 200.231L21.0517 200.128C20.5359 171.055 26.8592 139.213 39.3403 108.043C41.5087 102.628 43.8633 97.2508 46.3388 92.0602L47.2347 92.5224Z" fill="#F2F2F2"/>
<path d="M249.999 158.367C251.074 156.758 250.437 154.456 248.578 153.225C246.718 151.993 244.339 152.298 243.264 153.907C242.189 155.515 242.825 157.817 244.685 159.049C246.545 160.28 248.924 159.975 249.999 158.367Z" fill="#CCCCCC"/>
</g>
<defs>
<clipPath id="clip0_1006_395">
<rect width="301" height="243" fill="white" transform="translate(0 13)"/>
</clipPath>
</defs>
</svg>
