<svg width="277" height="278" viewBox="0 0 277 278" fill="none" xmlns="http://www.w3.org/2000/svg">
<circle cx="138.5" cy="139.5" r="138.5" fill="#C4E8F4"/>
<mask id="mask0_966_1114" style="mask-type:alpha" maskUnits="userSpaceOnUse" x="0" y="0" width="277" height="277">
<circle cx="138.5" cy="138.5" r="138.5" fill="#C4E8F4"/>
</mask>
<g mask="url(#mask0_966_1114)">
<path d="M-93 166.986C-88.4659 172.359 -83.5614 211.096 -78.3282 215.78L167.2 216.302C172.433 211.617 177.337 172.881 181.871 167.508L-93 166.986Z" fill="#E6E6E6"/>
<path d="M233.636 156.202C233.626 156.176 233.621 156.155 233.61 156.134C233.409 155.591 233.173 155.062 232.906 154.548C231.388 151.695 232.995 147.313 231.283 142.472C228.518 134.626 225.147 129.999 220.206 125.852C220.06 125.727 219.914 125.607 219.763 125.481L219.758 125.476C216.46 122.769 212.484 120.239 207.549 117.088C206.521 116.431 202.967 118.33 203.051 115.074C203.145 111.459 203.244 107.714 201.47 105.377L201.355 105.225L201.173 105.178C195.09 103.976 188.887 103.498 182.692 103.754H182.687C180.057 103.852 177.445 104.235 174.897 104.897C174.709 104.949 174.521 105.001 174.339 105.064C174.198 105.1 174.057 105.147 173.916 105.194L173.801 105.236L173.713 105.319C171.996 107.036 171.6 110.113 171.412 113.322V113.327C171.375 113.911 171.344 114.495 171.318 115.08C171.172 118.199 163.643 120.719 160.773 122.132C155.383 124.793 156.196 130.992 156.134 130.992C156.134 130.992 147.072 149.593 146.962 168.43C146.957 169.478 146.95 170.532 146.941 171.591C146.879 180.365 146.712 189.291 146.054 197.424C145.767 200.919 145.397 204.263 144.901 207.387C142.491 222.604 131.57 209.97 126.348 220.095C126.519 221.091 126.808 222.063 127.209 222.99C127.809 223.345 128.424 223.689 129.035 224.034C131.743 225.541 134.501 226.948 137.31 228.254C137.466 228.327 137.623 228.4 137.779 228.468C142.931 230.851 148.241 232.876 153.672 234.529C154.731 234.853 155.79 235.161 156.86 235.453C166.321 238.064 176.063 239.523 185.875 239.798C185.915 239.794 185.955 239.792 185.995 239.793C197.598 239.472 209.126 237.811 220.347 234.842C220.504 234.801 220.66 234.759 220.817 234.717C221.552 234.519 222.283 234.321 223.013 234.112C229.472 232.275 235.799 230.006 241.953 227.32C241.959 227.549 241.982 227.778 242.021 228.003C242.026 228.077 242.037 228.15 242.052 228.223C242.063 228.139 242.073 228.056 242.078 227.972C242.11 227.727 242.136 227.477 242.162 227.226C245.355 196.093 238.723 169.661 233.636 156.202Z" fill="#CCCCCC"/>
<path d="M187.448 101.05C204.182 101.05 217.747 87.4876 217.747 70.7571C217.747 54.0266 204.182 40.4639 187.448 40.4639C170.715 40.4639 157.149 54.0266 157.149 70.7571C157.149 87.4876 170.715 101.05 187.448 101.05Z" fill="#FFB6B6"/>
<path d="M189.692 101.596C194.311 100.771 198.852 99.5527 203.264 97.9548C207.595 96.1592 216.246 86.8006 218.192 81.8039C219.638 78.0913 219.968 72.6693 219.991 68.7747C220.089 58.3453 215.759 48.3637 208.076 41.308C206.589 39.8288 204.73 38.7789 202.695 38.2694C202.517 38.237 202.336 38.2129 202.155 38.1974C199.298 38.0118 196.562 36.9769 194.298 35.2254C193.856 34.8682 193.388 34.5432 192.899 34.2531C190.462 32.8944 187.737 32.1318 184.948 32.0276C180.418 31.7141 174.409 34.0714 167.09 39.0373C163.413 41.5322 158.906 41.7664 155.389 41.6918C154.989 41.6924 154.62 41.905 154.419 42.2503C153.246 43.8775 151.5 45.0004 149.533 45.3934C148.337 45.6813 147.397 47.5975 146.292 50.0727C146.041 50.6346 145.748 51.2903 145.524 51.6981L145.354 51.0317L144.818 51.9165C142.062 56.4682 143.518 62.3921 148.071 65.1478C149.294 65.8884 150.667 66.3475 152.09 66.4916C153.366 66.578 154.648 66.5339 155.915 66.3601C156.688 66.2805 157.487 66.1982 158.265 66.1822C163.375 66.2311 168.083 68.9607 170.665 73.3703C171.737 75.1733 174.069 75.7654 175.872 74.6928C176.156 74.5243 176.416 74.3198 176.646 74.0842C177.996 72.5353 180.019 71.7451 182.061 71.9685C182.97 72.2647 183.75 72.8643 184.269 73.6667C184.883 74.5539 185.747 75.2381 186.751 75.6322C190.115 76.6125 191.686 83.5517 191.722 89.5844C191.756 95.3994 190.455 99.8644 188.557 100.442C187.096 100.887 186.946 101.026 186.89 101.311L186.839 101.565L187.05 101.754C187.932 101.892 188.833 101.838 189.692 101.596Z" fill="#2F2E41"/>
<path d="M82.4563 195.253C88.2576 195.253 92.9605 193.753 92.9605 191.902C92.9605 190.05 88.2576 188.55 82.4563 188.55C76.655 188.55 71.9521 190.05 71.9521 191.902C71.9521 193.753 76.655 195.253 82.4563 195.253Z" fill="#3F3D56"/>
<path d="M82.4563 193.018C88.2576 193.018 92.9605 191.518 92.9605 189.667C92.9605 187.816 88.2576 186.315 82.4563 186.315C76.655 186.315 71.9521 187.816 71.9521 189.667C71.9521 191.518 76.655 193.018 82.4563 193.018Z" fill="#3F3D56"/>
<path d="M80.6101 191.913L82.1754 191.889L81.7436 162.667C81.6158 152.963 86.657 143.924 94.9801 138.931L124.855 121.077L124.052 119.733L94.1771 137.588C85.3747 142.868 80.0431 152.428 80.1783 162.69L80.6101 191.913Z" fill="#3F3D56"/>
<path d="M124.08 134.251C121.981 134.251 120.28 132.55 120.28 130.452V106.766C120.28 104.668 121.981 102.967 124.08 102.967C126.178 102.967 127.879 104.668 127.879 106.766V130.452C127.879 132.55 126.178 134.251 124.08 134.251Z" fill="#4586B2"/>
<path d="M74.3931 152.214C75.7095 157.029 80.6804 159.865 85.4958 158.548C86.0092 158.408 86.5092 158.223 86.99 157.994L109.521 180.884L113.007 164.564L91.0769 145.329C88.6286 140.948 83.0919 139.381 78.7104 141.829C75.0441 143.878 73.2593 148.171 74.3931 152.214Z" fill="#FFB6B6"/>
<path d="M192.083 128.313L191.94 128.233L175.512 122.585C171.293 121.134 166.653 121.565 162.774 123.767C161.883 124.271 161.046 124.863 160.274 125.535L160.269 125.535C157.695 127.759 155.921 130.765 155.219 134.093L146.59 175.053L129.241 165.704L122.171 164.016L115.736 157.559L99.6652 151.017L98.7731 152.082L90.6869 161.745L90.0518 162.505L107.857 188.259L115.838 189.127L118.073 193.104L118.231 193.176L124.774 196.125L152.678 208.694L166.191 198.355L168.306 196.732C185.788 180.538 193.96 167.511 197.372 157.59C199.177 152.349 199.653 147.982 199.474 144.461C198.919 133.58 192.36 128.521 192.083 128.313Z" fill="#CCCCCC"/>
<path d="M207.527 138.295H199.701C177.08 138.295 158.743 156.629 158.743 179.245C151.442 188.272 151.889 199.607 158.743 212.851L136.31 203.5C133.115 202.177 129.453 203.693 128.129 206.887C126.809 210.071 128.312 213.723 131.491 215.056L158.743 226.415V228.53C158.743 235.163 164.121 240.54 170.756 240.54H236.472C243.107 240.54 248.485 235.163 248.485 228.53C253.357 210.659 256.407 193.328 248.485 179.245C248.485 156.629 230.148 138.295 207.527 138.295Z" fill="#3F3D56"/>
</g>
</svg>
