<svg width="277" height="277" viewBox="0 0 277 277" fill="none" xmlns="http://www.w3.org/2000/svg">
<circle cx="138.5" cy="138.5" r="138.5" fill="#C4E8F4"/>
<mask id="mask0_972_1398" style="mask-type:alpha" maskUnits="userSpaceOnUse" x="0" y="0" width="277" height="277">
<circle cx="138.5" cy="138.5" r="138.5" fill="#C4E8F4"/>
</mask>
<g mask="url(#mask0_972_1398)">
<rect x="-51" y="103" width="197.325" height="115.673" rx="3" fill="white"/>
<path d="M14.3876 157.162H-30.7764C-32.4329 157.162 -34.0217 156.978 -35.193 156.65C-36.3644 156.323 -37.0225 155.878 -37.0225 155.415C-37.0225 154.952 -36.3644 154.507 -35.193 154.179C-34.0217 153.852 -32.4329 153.668 -30.7764 153.668H14.3876C16.0442 153.668 17.6329 153.852 18.8043 154.179C19.9757 154.507 20.6337 154.952 20.6337 155.415C20.6337 155.878 19.9757 156.323 18.8043 156.65C17.6329 156.978 16.0442 157.162 14.3876 157.162Z" fill="#5A5A5A"/>
<g clip-path="url(#clip0_972_1398)">
<path d="M94.758 139.349H81.6306V152.478H94.7597L94.758 139.349ZM98.0403 136.067V155.767H78.3467V136.067H98.0403ZM84.9112 142.631H91.4757V149.196H84.9112V142.631ZM127.581 139.349H114.452V152.478H127.581V139.349ZM130.863 136.067V155.767H111.169V136.067H130.863ZM117.734 142.631H124.298V149.196H117.734V142.631ZM94.7512 172.172H81.6306V185.301H94.7597L94.7512 172.172ZM98.0335 168.889V188.585H78.3467V168.889H98.0335ZM84.9112 175.454H91.4757V182.018H84.9112V175.454ZM101.323 136.067H104.605V139.349H101.323V136.067ZM104.605 139.349H107.887V142.631H104.605V139.349ZM101.323 142.631H104.605V145.913H101.323V142.631ZM104.605 145.913H107.887V149.196H104.605V145.913ZM101.323 149.196H104.605V152.478H101.323V149.196ZM104.605 152.478H107.887V155.767H104.605V152.478ZM101.323 155.767H104.605V159.049H101.323V155.767ZM101.323 162.332H104.605V165.607H101.323V162.332ZM104.605 165.614H107.887V168.896H104.605V165.614ZM101.323 168.896H104.605V172.178H101.323V168.896ZM104.605 172.178H107.887V175.461H104.605V172.178ZM101.323 175.461H104.605V178.743H101.323V175.461ZM104.605 178.743H107.887V182.025H104.605V178.743ZM101.323 182.025H104.605V185.307H101.323V182.025ZM104.605 185.307H107.887V188.59H104.605V185.307ZM127.587 162.325H130.87V165.607H127.581L127.587 162.325ZM81.6358 162.325H84.9112V165.607H81.6306L81.6358 162.325ZM84.918 159.043H88.1935V162.325H84.9112L84.918 159.043ZM78.3535 159.043H81.6306V162.325H78.3467L78.3535 159.043ZM91.4826 159.043H94.7648V162.325H91.4757L91.4826 159.043ZM94.7648 162.325H98.0471V165.607H94.758L94.7648 162.325ZM98.0471 159.043H101.329V162.325H98.0403L98.0471 159.043ZM107.894 162.325H111.176V165.607H107.887L107.894 162.325ZM111.176 159.043H114.458V162.325H111.169L111.176 159.043ZM114.458 162.325H117.741V165.607H114.452L114.458 162.325ZM117.741 159.043H121.023V162.325H117.734L117.741 159.043ZM121.023 162.325H124.305V165.607H121.016L121.023 162.325ZM124.305 159.043H127.587V162.325H124.298L124.305 159.043ZM127.587 168.889H130.87V172.172H127.581L127.587 168.889ZM107.894 168.889H111.176V172.172H107.887L107.894 168.889ZM111.176 165.607H114.458V168.889H111.169L111.176 165.607ZM114.458 168.889H117.741V172.172H114.452L114.458 168.889ZM121.023 168.889H124.305V172.172H121.016L121.023 168.889ZM124.305 165.607H127.587V168.889H124.298L124.305 165.607ZM127.587 175.454H130.87V178.736H127.581L127.587 175.454ZM107.894 175.454H111.176V178.736H107.887L107.894 175.454ZM111.176 172.172H114.458V175.454H111.169L111.176 172.172ZM117.741 172.172H121.023V175.454H117.734L117.741 172.172ZM121.023 175.454H124.305V178.736H121.016L121.023 175.454ZM124.305 172.172H127.587V175.454H124.298L124.305 172.172ZM127.587 182.018H130.87V185.301H127.581L127.587 182.018ZM111.176 178.736H114.458V182.018H111.169L111.176 178.736ZM114.458 182.018H117.741V185.301H114.452L114.458 182.018ZM117.741 178.736H121.023V182.018H117.734L117.741 178.736ZM121.023 182.018H124.305V185.301H121.016L121.023 182.018ZM111.176 185.301H114.458V188.583H111.169L111.176 185.301ZM117.741 185.301H121.023V188.583H117.734L117.741 185.301ZM124.305 185.301H127.587V188.583H124.298L124.305 185.301Z" fill="black"/>
</g>
<path d="M14.3876 146.679H-30.7764C-32.4329 146.679 -34.0217 146.495 -35.193 146.167C-36.3644 145.839 -37.0225 145.395 -37.0225 144.932C-37.0225 144.468 -36.3644 144.024 -35.193 143.696C-34.0217 143.369 -32.4329 143.185 -30.7764 143.185H14.3876C16.0442 143.185 17.6329 143.369 18.8043 143.696C19.9757 144.024 20.6337 144.468 20.6337 144.932C20.6337 145.395 19.9757 145.839 18.8043 146.167C17.6329 146.495 16.0442 146.679 14.3876 146.679Z" fill="#5A5A5A"/>
<path d="M74.8169 126.815H-33.9267C-34.8457 126.815 -35.727 126.636 -36.3768 126.317C-37.0266 125.998 -37.3916 125.565 -37.3916 125.114C-37.3916 124.663 -37.0266 124.23 -36.3768 123.911C-35.727 123.592 -34.8457 123.413 -33.9267 123.413H74.8169C75.7358 123.413 76.6171 123.592 77.2669 123.911C77.9167 124.23 78.2818 124.663 78.2818 125.114C78.2818 125.565 77.9167 125.998 77.2669 126.317C76.6171 126.636 75.7358 126.815 74.8169 126.815Z" fill="#5A5A5A"/>
<path d="M242.664 15.9581H123.618C121.598 15.9609 119.662 16.7594 118.234 18.1787C116.806 19.5981 116.003 21.5223 116 23.5295V161.191C116.003 163.198 116.806 165.122 118.234 166.541C119.662 167.961 121.598 168.759 123.618 168.762H242.664C243.98 168.762 245.273 168.422 246.417 167.777C247.561 167.132 248.517 166.204 249.193 165.082C249.317 164.885 249.429 164.681 249.53 164.472C249.922 163.663 250.164 162.791 250.245 161.897C250.271 161.663 250.284 161.427 250.282 161.191V23.5295C250.28 21.522 249.477 19.5974 248.049 18.1779C246.621 16.7584 244.684 15.9601 242.664 15.9581Z" fill="#E6E6E6"/>
<path d="M184.299 69.2078C200.282 69.2078 213.239 56.2508 213.239 40.2676C213.239 24.2844 200.282 11.3275 184.299 11.3275C168.315 11.3275 155.358 24.2844 155.358 40.2676C155.358 56.2508 168.315 69.2078 184.299 69.2078Z" fill="#2F2E41"/>
<path d="M250.281 144.171V161.017C250.199 161.891 249.953 162.744 249.555 163.535C249.453 163.74 249.339 163.939 249.213 164.132L244.485 159.962L218.085 136.644L218.08 136.64L194.716 116.001L210.968 103.936L229.676 123.084L250.281 144.171Z" fill="#FFB8B8"/>
<path d="M198.339 66.3707C206.651 58.0545 206.651 44.5714 198.339 36.2553C190.027 27.9392 176.551 27.9392 168.239 36.2553C159.927 44.5714 159.927 58.0545 168.239 66.3707C176.551 74.6868 190.027 74.6868 198.339 66.3707Z" fill="#FFB8B8"/>
<path d="M196.963 168.762H139.151L139.244 168.462C142.014 159.489 143.46 145.108 143.542 125.718C143.568 119.982 143.471 113.817 143.256 107.395C142.875 95.6736 142.169 85.1106 141.645 78.3132C141.558 77.1722 141.702 76.0252 142.07 74.9419C142.438 73.8586 143.021 72.8614 143.785 72.0108C144.548 71.1602 145.476 70.4738 146.512 69.9933C147.547 69.5128 148.67 69.2482 149.81 69.2155C153.879 69.1167 157.913 69.9839 161.584 71.7463C166.888 74.3039 172.478 76.2163 178.234 77.4428C188.992 79.6627 199.075 84.401 207.659 91.2713L208.307 91.7946C218.109 99.7038 225.434 110.275 229.406 122.247L229.445 122.363L218.918 136.299C218.775 136.487 218.578 136.627 218.354 136.7C218.129 136.773 217.888 136.775 217.661 136.707L217.521 136.661L207.189 133.471C199.487 149.079 205.749 158.153 207.087 159.819C207.18 159.937 207.235 159.998 207.239 160.002L207.378 160.153L207.244 160.31C204.331 163.673 200.874 166.52 197.017 168.731L196.963 168.762Z" fill="#4586B2"/>
<path d="M250.281 161.601V161.756C250.199 162.668 249.957 163.558 249.563 164.383C249.463 164.597 249.35 164.805 249.226 165.006C248.549 166.151 247.59 167.099 246.443 167.757C245.296 168.415 244 168.761 242.682 168.762H162.303L205.264 160.29C205.264 160.29 206.153 160.205 207.712 160.098C213.826 159.657 230.311 158.772 244.556 160.655C246.518 160.917 248.439 161.226 250.281 161.601Z" fill="#2F2E41"/>
<path d="M203.977 37.1631C195.85 42.164 186.688 45.2073 177.203 46.0559L180.025 42.6472C177.937 43.3022 175.805 43.9639 173.619 43.9295C171.432 43.8952 169.141 43.0465 167.9 41.2313C166.709 39.4896 166.686 37.1195 167.463 35.1543C168.24 33.1892 169.719 31.5823 171.352 30.2531C174.347 27.8646 177.882 26.2603 181.641 25.583C185.401 24.9057 189.268 25.1765 192.899 26.3712C195.346 27.2045 197.708 28.5099 199.335 30.5326C200.961 32.5553 201.745 35.3797 200.913 37.8444L203.977 37.1631Z" fill="#2F2E41"/>
<path d="M180.825 15.7508C187.664 8.8586 195.94 3.54 205.07 0.169456C210.931 -1.98836 217.311 -3.32155 223.438 -2.09613C229.565 -0.870715 235.36 3.34186 237.069 9.31647C238.467 14.202 237.024 19.4622 234.854 24.0611C232.685 28.6601 229.789 32.9247 228.035 37.6953C226.245 42.563 225.707 47.7978 226.469 52.9246C227.231 58.0515 229.27 62.908 232.399 67.0532C235.529 71.1985 239.651 74.5013 244.391 76.6618C249.131 78.8223 254.339 79.772 259.542 79.4249C253.522 80.2271 247.973 83.0388 242.088 84.5354C236.203 86.032 229.258 85.9305 224.885 81.7408C220.258 77.308 220.165 70.1006 220.389 63.7175L221.387 35.2513C221.556 30.4123 221.701 25.4181 219.945 20.9015C218.189 16.385 214.016 12.43 209.144 12.471C205.451 12.5022 202.183 14.7252 199.222 16.9176C196.261 19.11 193.127 21.449 189.449 21.7751C185.771 22.1012 181.571 19.3961 181.846 15.7366L180.825 15.7508Z" fill="#2F2E41"/>
<path d="M150.727 108.252L148.451 127.37L143.517 168.762H127.575L129.813 118.578L130.465 103.936L143.956 106.812L150.727 108.252Z" fill="#FFB8B8"/>
<path d="M166.935 136.349L124.113 115.507C123.646 115.28 123.283 114.895 123.092 114.426C122.902 113.957 122.898 113.437 123.08 112.965L137.892 74.6413C138.58 72.8616 140.375 71.3264 142.946 70.3182C146.391 68.9683 150.574 68.8357 153.12 69.9951L153.301 70.0777L152.319 73.3918L166.935 136.349Z" fill="#4586B2"/>
<path d="M168.566 247.931L168.342 193.091C168.34 192.628 168.615 192.182 169.107 191.853C169.599 191.523 170.267 191.336 170.965 191.333C171.663 191.33 172.333 191.512 172.827 191.837C173.322 192.163 173.601 192.606 173.603 193.07L173.827 247.909C173.829 248.372 173.554 248.818 173.062 249.148C172.57 249.477 171.902 249.664 171.204 249.667C170.506 249.67 169.836 249.489 169.342 249.163C168.847 248.837 168.568 248.394 168.566 247.931Z" fill="#4586B2"/>
<path d="M159.313 244.907L159.119 197.453C159.117 197.052 159.393 196.666 159.885 196.381C160.377 196.095 161.046 195.933 161.743 195.93C162.441 195.927 163.111 196.084 163.605 196.365C164.1 196.647 164.379 197.03 164.38 197.431L164.575 244.886C164.576 245.287 164.301 245.672 163.808 245.958C163.316 246.243 162.648 246.405 161.95 246.408C161.252 246.411 160.583 246.255 160.088 245.973C159.594 245.692 159.315 245.308 159.313 244.907Z" fill="#4586B2"/>
<path d="M150.066 241.558L149.895 199.585C149.893 199.23 150.169 198.889 150.661 198.636C151.154 198.383 151.822 198.239 152.52 198.236C153.217 198.234 153.887 198.372 154.381 198.62C154.876 198.869 155.154 199.208 155.156 199.563L155.328 241.537C155.329 241.892 155.053 242.233 154.561 242.486C154.069 242.739 153.4 242.882 152.703 242.885C152.005 242.888 151.335 242.75 150.841 242.501C150.346 242.252 150.068 241.913 150.066 241.558Z" fill="#4586B2"/>
<path d="M140.801 234.869L140.674 203.848C140.673 203.586 140.949 203.334 141.442 203.146C141.935 202.959 142.603 202.852 143.301 202.849C143.999 202.846 144.668 202.948 145.162 203.131C145.656 203.314 145.935 203.565 145.936 203.827L146.063 234.848C146.064 235.11 145.788 235.362 145.295 235.55C144.803 235.737 144.134 235.844 143.436 235.847C142.738 235.85 142.069 235.748 141.575 235.565C141.081 235.382 140.803 235.131 140.801 234.869Z" fill="#4586B2"/>
<path d="M131.56 232.707L131.45 206.017C131.449 205.791 131.726 205.574 132.218 205.413C132.711 205.251 133.38 205.159 134.077 205.156C134.775 205.153 135.445 205.24 135.939 205.397C136.433 205.555 136.711 205.77 136.711 205.995L136.821 232.686C136.822 232.911 136.545 233.129 136.053 233.29C135.56 233.452 134.891 233.544 134.194 233.547C133.496 233.55 132.826 233.463 132.332 233.305C131.838 233.148 131.56 232.933 131.56 232.707Z" fill="#4586B2"/>
<path d="M122.383 237.557L122.227 199.461C122.226 199.139 122.502 198.829 122.994 198.6C123.486 198.37 124.155 198.239 124.853 198.236C125.55 198.234 126.22 198.359 126.714 198.584C127.209 198.81 127.487 199.117 127.488 199.439L127.644 237.535C127.646 237.857 127.37 238.167 126.877 238.397C126.385 238.626 125.716 238.757 125.019 238.76C124.321 238.763 123.651 238.638 123.157 238.412C122.663 238.186 122.384 237.879 122.383 237.557Z" fill="#4586B2"/>
<path d="M113.232 247.915L113.008 193.076C113.006 192.612 113.281 192.167 113.773 191.837C114.265 191.507 114.933 191.32 115.631 191.317C116.329 191.315 116.999 191.496 117.493 191.822C117.988 192.147 118.267 192.591 118.269 193.054L118.493 247.893C118.495 248.357 118.22 248.802 117.728 249.132C117.236 249.462 116.568 249.649 115.87 249.651C115.172 249.654 114.502 249.473 114.008 249.147C113.513 248.822 113.234 248.378 113.232 247.915Z" fill="#4586B2"/>
<path d="M113.113 232.707L113.004 206.017C113.003 205.791 113.279 205.574 113.772 205.413C114.265 205.251 114.933 205.159 115.631 205.156C116.329 205.153 116.998 205.24 117.492 205.397C117.986 205.555 118.264 205.77 118.265 205.995L118.374 232.686C118.375 232.911 118.099 233.129 117.606 233.29C117.114 233.452 116.445 233.544 115.747 233.547C115.05 233.55 114.38 233.463 113.886 233.305C113.392 233.148 113.114 232.933 113.113 232.707Z" fill="#4586B2"/>
<path d="M269.907 234.869L269.78 203.848C269.779 203.586 270.055 203.334 270.548 203.146C271.04 202.959 271.709 202.852 272.406 202.849C273.104 202.846 273.774 202.948 274.268 203.131C274.762 203.314 275.04 203.565 275.041 203.827L275.168 234.848C275.169 235.11 274.893 235.362 274.401 235.55C273.908 235.737 273.239 235.844 272.542 235.847C271.844 235.85 271.174 235.748 270.68 235.565C270.186 235.382 269.908 235.131 269.907 234.869Z" fill="#4586B2"/>
<path d="M260.67 232.707L260.561 206.017C260.56 205.791 260.836 205.574 261.329 205.413C261.821 205.251 262.49 205.159 263.188 205.156C263.885 205.153 264.555 205.24 265.049 205.397C265.543 205.555 265.821 205.77 265.822 205.995L265.931 232.686C265.932 232.911 265.656 233.129 265.163 233.29C264.67 233.452 264.002 233.544 263.304 233.547C262.606 233.55 261.937 233.463 261.443 233.305C260.949 233.148 260.671 232.933 260.67 232.707Z" fill="#4586B2"/>
<path d="M251.494 237.557L251.338 199.461C251.337 199.139 251.613 198.829 252.105 198.6C252.598 198.37 253.266 198.239 253.964 198.236C254.662 198.234 255.331 198.359 255.826 198.584C256.32 198.81 256.598 199.117 256.6 199.439L256.756 237.535C256.757 237.857 256.481 238.167 255.989 238.397C255.496 238.626 254.828 238.757 254.13 238.76C253.432 238.763 252.763 238.638 252.268 238.412C251.774 238.186 251.496 237.879 251.494 237.557Z" fill="#4586B2"/>
<path d="M242.344 247.915L242.12 193.076C242.118 192.612 242.393 192.167 242.885 191.837C243.377 191.507 244.046 191.32 244.743 191.317C245.441 191.315 246.111 191.496 246.606 191.822C247.1 192.147 247.379 192.591 247.381 193.054L247.606 247.893C247.608 248.357 247.332 248.802 246.84 249.132C246.348 249.462 245.68 249.649 244.982 249.651C244.285 249.654 243.615 249.473 243.12 249.147C242.625 248.822 242.346 248.378 242.344 247.915Z" fill="#4586B2"/>
<path d="M223.902 245.608L223.678 190.769C223.676 190.305 223.951 189.86 224.443 189.53C224.935 189.2 225.603 189.014 226.301 189.011C226.999 189.008 227.669 189.189 228.163 189.515C228.658 189.841 228.937 190.284 228.939 190.747L229.163 245.587C229.165 246.05 228.89 246.496 228.398 246.825C227.906 247.155 227.238 247.342 226.54 247.345C225.842 247.348 225.172 247.166 224.678 246.841C224.183 246.515 223.904 246.072 223.902 245.608Z" fill="#4586B2"/>
<path d="M177.728 239.913L177.562 199.534C177.561 199.193 177.837 198.864 178.329 198.621C178.821 198.378 179.49 198.239 180.188 198.236C180.885 198.234 181.555 198.366 182.049 198.606C182.544 198.845 182.822 199.171 182.824 199.512L182.989 239.891C182.99 240.232 182.715 240.561 182.222 240.804C181.73 241.047 181.061 241.186 180.364 241.189C179.666 241.191 178.996 241.059 178.502 240.819C178.008 240.58 177.729 240.254 177.728 239.913Z" fill="#4586B2"/>
<path d="M186.883 233.125L186.781 208.265C186.78 208.055 187.057 207.852 187.549 207.701C188.042 207.551 188.711 207.465 189.408 207.462C190.106 207.459 190.776 207.54 191.27 207.686C191.763 207.833 192.041 208.033 192.042 208.243L192.144 233.103C192.145 233.314 191.869 233.516 191.376 233.667C190.883 233.817 190.214 233.904 189.517 233.906C188.819 233.909 188.15 233.829 187.656 233.682C187.162 233.535 186.884 233.335 186.883 233.125Z" fill="#4586B2"/>
<path d="M196.203 245.659L196.006 197.476C196.004 197.069 196.28 196.677 196.772 196.388C197.264 196.098 197.932 195.933 198.63 195.93C199.328 195.927 199.998 196.086 200.492 196.372C200.987 196.658 201.265 197.048 201.267 197.455L201.464 245.638C201.466 246.045 201.19 246.437 200.698 246.727C200.206 247.017 199.538 247.181 198.84 247.184C198.142 247.187 197.473 247.028 196.978 246.742C196.483 246.456 196.205 246.067 196.203 245.659Z" fill="#4586B2"/>
<path d="M205.454 247.915L205.229 193.076C205.227 192.612 205.503 192.167 205.995 191.837C206.487 191.507 207.155 191.32 207.853 191.317C208.55 191.315 209.22 191.496 209.715 191.822C210.21 192.147 210.489 192.591 210.491 193.054L210.715 247.893C210.717 248.357 210.442 248.802 209.95 249.132C209.458 249.462 208.789 249.649 208.092 249.651C207.394 249.654 206.724 249.473 206.229 249.147C205.735 248.822 205.456 248.378 205.454 247.915Z" fill="#4586B2"/>
<path d="M214.597 239.479L214.451 203.991C214.45 203.691 214.726 203.402 215.219 203.188C215.711 202.974 216.38 202.852 217.077 202.849C217.775 202.846 218.445 202.963 218.939 203.173C219.433 203.383 219.711 203.669 219.713 203.969L219.858 239.458C219.859 239.758 219.583 240.046 219.091 240.261C218.598 240.475 217.93 240.596 217.232 240.599C216.534 240.602 215.865 240.486 215.37 240.276C214.876 240.066 214.598 239.779 214.597 239.479Z" fill="#4586B2"/>
<path d="M233.036 239.479L232.891 203.991C232.89 203.691 233.166 203.402 233.658 203.188C234.151 202.974 234.819 202.852 235.517 202.849C236.215 202.846 236.884 202.963 237.378 203.173C237.873 203.383 238.151 203.669 238.152 203.969L238.297 239.458C238.299 239.758 238.023 240.046 237.53 240.261C237.038 240.475 236.369 240.596 235.671 240.599C234.974 240.602 234.304 240.486 233.81 240.276C233.316 240.066 233.037 239.779 233.036 239.479Z" fill="#4586B2"/>
</g>
<defs>
<clipPath id="clip0_972_1398">
<rect width="52.518" height="52.518" fill="white" transform="translate(78.3467 136.067)"/>
</clipPath>
</defs>
</svg>
